G04 #@! TF.GenerationSoftware,KiCad,Pcbnew,(5.1.0-0)*
G04 #@! TF.CreationDate,2019-05-09T12:41:25+01:00*
G04 #@! TF.ProjectId,MS20filter,4d533230-6669-46c7-9465-722e6b696361,rev?*
G04 #@! TF.SameCoordinates,Original*
G04 #@! TF.FileFunction,Copper,L2,Bot*
G04 #@! TF.FilePolarity,Positive*
%FSLAX46Y46*%
G04 Gerber Fmt 4.6, Leading zero omitted, Abs format (unit mm)*
G04 Created by KiCad (PCBNEW (5.1.0-0)) date 2019-05-09 12:41:25*
%MOMM*%
%LPD*%
G04 APERTURE LIST*
%ADD10C,6.400000*%
%ADD11C,0.800000*%
%ADD12O,1.600000X1.600000*%
%ADD13C,1.600000*%
%ADD14C,1.998980*%
%ADD15C,1.500000*%
%ADD16R,1.500000X1.500000*%
%ADD17R,1.800000X1.800000*%
%ADD18C,1.800000*%
%ADD19R,1.600000X1.600000*%
%ADD20R,1.700000X1.700000*%
%ADD21O,1.700000X1.700000*%
%ADD22C,3.000000*%
%ADD23C,3.000000*%
%ADD24C,0.750000*%
%ADD25C,2.000000*%
G04 APERTURE END LIST*
D10*
X253492000Y-32512000D03*
D11*
X255892000Y-32512000D03*
X255189056Y-34209056D03*
X253492000Y-34912000D03*
X251794944Y-34209056D03*
X251092000Y-32512000D03*
X251794944Y-30814944D03*
X253492000Y-30112000D03*
X255189056Y-30814944D03*
D12*
X255778000Y-37465000D03*
D13*
X255778000Y-40005000D03*
D10*
X247142000Y-74930000D03*
D11*
X249542000Y-74930000D03*
X248839056Y-76627056D03*
X247142000Y-77330000D03*
X245444944Y-76627056D03*
X244742000Y-74930000D03*
X245444944Y-73232944D03*
X247142000Y-72530000D03*
X248839056Y-73232944D03*
D10*
X196342000Y-75057000D03*
D11*
X198742000Y-75057000D03*
X198039056Y-76754056D03*
X196342000Y-77457000D03*
X194644944Y-76754056D03*
X193942000Y-75057000D03*
X194644944Y-73359944D03*
X196342000Y-72657000D03*
X198039056Y-73359944D03*
X198420056Y-29925944D03*
X196723000Y-29223000D03*
X195025944Y-29925944D03*
X194323000Y-31623000D03*
X195025944Y-33320056D03*
X196723000Y-34023000D03*
X198420056Y-33320056D03*
X199123000Y-31623000D03*
D10*
X196723000Y-31623000D03*
D12*
X225940000Y-63881000D03*
D13*
X218440000Y-63881000D03*
D14*
X216535000Y-33020000D03*
X241300000Y-73660000D03*
X237490000Y-73660000D03*
X201930000Y-33020000D03*
D13*
X205700000Y-71120000D03*
X203200000Y-71120000D03*
D14*
X229870000Y-73660000D03*
X233680000Y-73660000D03*
X226060000Y-73660000D03*
D13*
X198120000Y-44450000D03*
D12*
X198120000Y-36830000D03*
D13*
X217070000Y-46990000D03*
D12*
X219610000Y-46990000D03*
D13*
X208280000Y-66040000D03*
D12*
X208280000Y-73660000D03*
D13*
X212090000Y-66040000D03*
D12*
X212090000Y-73660000D03*
X217297000Y-74422000D03*
D13*
X217297000Y-66802000D03*
D14*
X205740000Y-33020000D03*
D12*
X201930000Y-36830000D03*
D13*
X201930000Y-44450000D03*
D12*
X209550000Y-36830000D03*
D13*
X209550000Y-44450000D03*
X205740000Y-44450000D03*
D12*
X205740000Y-36830000D03*
X219540000Y-41910000D03*
D13*
X217000000Y-41910000D03*
D12*
X219540000Y-36830000D03*
D13*
X217000000Y-36830000D03*
D14*
X219710000Y-33020000D03*
X236220000Y-33020000D03*
D13*
X226160000Y-33020000D03*
D12*
X223620000Y-33020000D03*
D13*
X229770000Y-33020000D03*
D12*
X232310000Y-33020000D03*
X243740000Y-59690000D03*
D13*
X241200000Y-59690000D03*
X228600000Y-63500000D03*
D12*
X228600000Y-66040000D03*
D15*
X231140000Y-39370000D03*
X231140000Y-41910000D03*
D16*
X231140000Y-36830000D03*
X226060000Y-41910000D03*
D15*
X226060000Y-36830000D03*
X226060000Y-39370000D03*
D13*
X217170000Y-59690000D03*
D12*
X217170000Y-52070000D03*
D14*
X240030000Y-33020000D03*
D13*
X243740000Y-33020000D03*
D12*
X246280000Y-33020000D03*
D17*
X246380000Y-36830000D03*
D18*
X243840000Y-36830000D03*
X246380000Y-41910000D03*
D17*
X243840000Y-41910000D03*
D12*
X246380000Y-46990000D03*
D13*
X243840000Y-46990000D03*
D14*
X220980000Y-73660000D03*
D13*
X233720000Y-63500000D03*
X236220000Y-63500000D03*
X242530000Y-52070000D03*
X240030000Y-52070000D03*
X203200000Y-68580000D03*
X205700000Y-68580000D03*
D12*
X213360000Y-59690000D03*
X195580000Y-52070000D03*
X210820000Y-59690000D03*
X198120000Y-52070000D03*
X208280000Y-59690000D03*
X200660000Y-52070000D03*
X205740000Y-59690000D03*
X203200000Y-52070000D03*
X203200000Y-59690000D03*
X205740000Y-52070000D03*
X200660000Y-59690000D03*
X208280000Y-52070000D03*
X198120000Y-59690000D03*
X210820000Y-52070000D03*
X195580000Y-59690000D03*
D19*
X213360000Y-52070000D03*
D12*
X236220000Y-59690000D03*
X220980000Y-52070000D03*
X233680000Y-59690000D03*
X223520000Y-52070000D03*
X231140000Y-59690000D03*
X226060000Y-52070000D03*
X228600000Y-59690000D03*
X228600000Y-52070000D03*
X226060000Y-59690000D03*
X231140000Y-52070000D03*
X223520000Y-59690000D03*
X233680000Y-52070000D03*
X220980000Y-59690000D03*
D19*
X236220000Y-52070000D03*
X261620000Y-73660000D03*
D13*
X259620000Y-73660000D03*
D20*
X257070000Y-58420000D03*
D21*
X259610000Y-58420000D03*
X257070000Y-60960000D03*
X259610000Y-60960000D03*
X257070000Y-63500000D03*
X259610000Y-63500000D03*
X257070000Y-66040000D03*
X259610000Y-66040000D03*
X257070000Y-68580000D03*
X259610000Y-68580000D03*
D22*
X259610000Y-53340000D03*
X259610000Y-48260000D03*
X259610000Y-43180000D03*
D14*
X255800000Y-53340000D03*
X255800000Y-48260000D03*
D13*
X261610000Y-36830000D03*
D19*
X259610000Y-36830000D03*
D12*
X252730000Y-64770000D03*
D13*
X252730000Y-72390000D03*
D14*
X255800000Y-43180000D03*
D11*
X209550000Y-54610000D03*
X213360000Y-55880000D03*
X231140000Y-66040000D03*
X238760000Y-45720000D03*
X238760000Y-39370000D03*
X212090000Y-62230000D03*
X212090000Y-45720000D03*
X212090000Y-40640000D03*
X215900000Y-69850000D03*
X215900000Y-71120000D03*
X222250000Y-69850000D03*
X222250000Y-71120000D03*
D23*
X257919999Y-62650001D02*
X257919999Y-62339999D01*
X257070000Y-63500000D02*
X257919999Y-62650001D01*
X258230001Y-62339999D02*
X258340000Y-62230000D01*
X257919999Y-62339999D02*
X258230001Y-62339999D01*
D24*
X259610000Y-53340000D02*
X255800000Y-53340000D01*
X257070000Y-58420000D02*
X259610000Y-58420000D01*
X257070000Y-68580000D02*
X259610000Y-68580000D01*
X257070000Y-68580000D02*
X253260000Y-64770000D01*
X255800000Y-40640000D02*
X255800000Y-43180000D01*
X255800000Y-43180000D02*
X259610000Y-43180000D01*
X257070000Y-58420000D02*
X255470000Y-58420000D01*
X258350000Y-72390000D02*
X259620000Y-73660000D01*
X252730000Y-72390000D02*
X258350000Y-72390000D01*
X261620000Y-73660000D02*
X264160000Y-73660000D01*
X246380000Y-54610000D02*
X247650000Y-54610000D01*
X247650000Y-54610000D02*
X248920000Y-54610000D01*
X228600000Y-52070000D02*
X228600000Y-54610000D01*
X247650000Y-54610000D02*
X228600000Y-54610000D01*
X209550000Y-54610000D02*
X209550000Y-54610000D01*
X212090000Y-54610000D02*
X210820000Y-55880000D01*
X213360000Y-55880000D02*
X213360000Y-55880000D01*
X200660000Y-55880000D02*
X200660000Y-59690000D01*
X210820000Y-55880000D02*
X200660000Y-55880000D01*
X228600000Y-55880000D02*
X228600000Y-59690000D01*
X209550000Y-54610000D02*
X200660000Y-54610000D01*
X200660000Y-54610000D02*
X200660000Y-52070000D01*
X203200000Y-59690000D02*
X203200000Y-63500000D01*
X203200000Y-59690000D02*
X205740000Y-57150000D01*
X224790000Y-57150000D02*
X226060000Y-58420000D01*
X226060000Y-58420000D02*
X226060000Y-59690000D01*
X223520000Y-59690000D02*
X222250000Y-58420000D01*
X222250000Y-58420000D02*
X220980000Y-59690000D01*
X236220000Y-52070000D02*
X240030000Y-52070000D01*
X236220000Y-59690000D02*
X236220000Y-63500000D01*
X233720000Y-59730000D02*
X233680000Y-59690000D01*
X233720000Y-63500000D02*
X233720000Y-59730000D01*
X220980000Y-63500000D02*
X220980000Y-59690000D01*
X220980000Y-66000000D02*
X220980000Y-74930000D01*
X243840000Y-46990000D02*
X243840000Y-36830000D01*
X246380000Y-36830000D02*
X246380000Y-46990000D01*
X243840000Y-33120000D02*
X243740000Y-33020000D01*
X243840000Y-36830000D02*
X243840000Y-33120000D01*
X246380000Y-36830000D02*
X246380000Y-29210000D01*
X236220000Y-50520000D02*
X237210000Y-49530000D01*
X236220000Y-52070000D02*
X236220000Y-50520000D01*
X237210000Y-49530000D02*
X245110000Y-49530000D01*
X245110000Y-49530000D02*
X246380000Y-48260000D01*
X246380000Y-48260000D02*
X246380000Y-46990000D01*
X243840000Y-46990000D02*
X242570000Y-48260000D01*
X242570000Y-48260000D02*
X236220000Y-48260000D01*
X236220000Y-48260000D02*
X234950000Y-49530000D01*
X234950000Y-50800000D02*
X233680000Y-52070000D01*
X234950000Y-49530000D02*
X234950000Y-50800000D01*
X220980000Y-52070000D02*
X222250000Y-53340000D01*
X222250000Y-53340000D02*
X223520000Y-52070000D01*
X231140000Y-52070000D02*
X233680000Y-49530000D01*
X233680000Y-49530000D02*
X233680000Y-48260000D01*
X233680000Y-48260000D02*
X234950000Y-46990000D01*
X234950000Y-46990000D02*
X240030000Y-46990000D01*
X240030000Y-46990000D02*
X241300000Y-45720000D01*
X241300000Y-45720000D02*
X241300000Y-34290000D01*
X241300000Y-34290000D02*
X240030000Y-33020000D01*
X212090000Y-54610000D02*
X228600000Y-54610000D01*
X213360000Y-55880000D02*
X228600000Y-55880000D01*
X205740000Y-57150000D02*
X224790000Y-57150000D01*
X228600000Y-59690000D02*
X228600000Y-63500000D01*
X231180000Y-66040000D02*
X233720000Y-63500000D01*
X228600000Y-66040000D02*
X231140000Y-66040000D01*
X231140000Y-66040000D02*
X231180000Y-66040000D01*
X238760000Y-45720000D02*
X240030000Y-44450000D01*
X240030000Y-44450000D02*
X240030000Y-38100000D01*
X240030000Y-38100000D02*
X238760000Y-36830000D01*
X238760000Y-36830000D02*
X231140000Y-36830000D01*
X231140000Y-41910000D02*
X226060000Y-36830000D01*
X236220000Y-59690000D02*
X241200000Y-59690000D01*
X231140000Y-41910000D02*
X237490000Y-41910000D01*
X237490000Y-41910000D02*
X238760000Y-40640000D01*
X238760000Y-40640000D02*
X238760000Y-39370000D01*
X228600000Y-34190000D02*
X229770000Y-33020000D01*
X228600000Y-36830000D02*
X228600000Y-34190000D01*
X231140000Y-39370000D02*
X228600000Y-36830000D01*
X228600000Y-34190000D02*
X228500000Y-34190000D01*
X227330000Y-33020000D02*
X226160000Y-33020000D01*
X228500000Y-34190000D02*
X227330000Y-33020000D01*
X223620000Y-33020000D02*
X219710000Y-33020000D01*
X232310000Y-33020000D02*
X236220000Y-33020000D01*
X222250000Y-36830000D02*
X219540000Y-36830000D01*
X224790000Y-34290000D02*
X222250000Y-36830000D01*
X224890000Y-34290000D02*
X224790000Y-34290000D01*
X226160000Y-33020000D02*
X224890000Y-34290000D01*
X217000000Y-35698630D02*
X217170000Y-35528630D01*
X217000000Y-36830000D02*
X217000000Y-35698630D01*
X217170000Y-35528630D02*
X217170000Y-29210000D01*
X226060000Y-39370000D02*
X215900000Y-39370000D01*
X215900000Y-39370000D02*
X214630000Y-38100000D01*
X214630000Y-38100000D02*
X214630000Y-29210000D01*
X217000000Y-41910000D02*
X214630000Y-41910000D01*
X214630000Y-41910000D02*
X213360000Y-43180000D01*
X213360000Y-43180000D02*
X213360000Y-52070000D01*
X205740000Y-52070000D02*
X205740000Y-49530000D01*
X205740000Y-45720000D02*
X205740000Y-49530000D01*
X205740000Y-44450000D02*
X205740000Y-45720000D01*
X209550000Y-36830000D02*
X209550000Y-30480000D01*
X209550000Y-30480000D02*
X209550000Y-29210000D01*
X214630000Y-62230000D02*
X217170000Y-59690000D01*
X208280000Y-59690000D02*
X210820000Y-62230000D01*
X210820000Y-62230000D02*
X212090000Y-62230000D01*
X217170000Y-52070000D02*
X220980000Y-52070000D01*
X201930000Y-44450000D02*
X205740000Y-44450000D01*
X201930000Y-36830000D02*
X201930000Y-33020000D01*
X213360000Y-63500000D02*
X209550000Y-63500000D01*
X217170000Y-68580000D02*
X214630000Y-66040000D01*
X214630000Y-64770000D02*
X213360000Y-63500000D01*
X214630000Y-66040000D02*
X214630000Y-64770000D01*
X217170000Y-72390000D02*
X217170000Y-68580000D01*
X217170000Y-72390000D02*
X217170000Y-73660000D01*
X212090000Y-62230000D02*
X214630000Y-62230000D01*
X208280000Y-62230000D02*
X208280000Y-66040000D01*
X209550000Y-63500000D02*
X208280000Y-62230000D01*
X208280000Y-62230000D02*
X205740000Y-59690000D01*
X224690000Y-41910000D02*
X224790000Y-41910000D01*
X219610000Y-46990000D02*
X224690000Y-41910000D01*
X224790000Y-41910000D02*
X219540000Y-41910000D01*
X226060000Y-41910000D02*
X224790000Y-41910000D01*
X198120000Y-36830000D02*
X200660000Y-39370000D01*
X200660000Y-39370000D02*
X209550000Y-39370000D01*
X209550000Y-39370000D02*
X210820000Y-39370000D01*
X210820000Y-39370000D02*
X212090000Y-38100000D01*
X212090000Y-38100000D02*
X212090000Y-29210000D01*
X212090000Y-40640000D02*
X212090000Y-45720000D01*
D23*
X196850000Y-74930000D02*
X194765240Y-74930000D01*
X195116590Y-76088238D02*
X195155399Y-76144312D01*
X195079612Y-76030886D02*
X195116590Y-76088238D01*
X195044529Y-75972353D02*
X195079612Y-76030886D01*
X195011406Y-75912752D02*
X195044529Y-75972353D01*
X194980241Y-75852077D02*
X195011406Y-75912752D01*
X194951060Y-75790379D02*
X194980241Y-75852077D01*
X194923928Y-75727793D02*
X194951060Y-75790379D01*
X194898860Y-75664356D02*
X194923928Y-75727793D01*
X194875872Y-75600107D02*
X194898860Y-75664356D01*
X194855000Y-75535146D02*
X194875872Y-75600107D01*
X194836272Y-75469563D02*
X194855000Y-75535146D01*
X194819696Y-75403386D02*
X194836272Y-75469563D01*
X194805292Y-75336689D02*
X194819696Y-75403386D01*
X194766356Y-74998229D02*
X194769702Y-75066335D01*
X194793085Y-75269600D02*
X194805292Y-75336689D01*
X194783073Y-75202097D02*
X194793085Y-75269600D01*
X194775275Y-75134310D02*
X194783073Y-75202097D01*
X194769702Y-75066335D02*
X194775275Y-75134310D01*
X195196039Y-76199110D02*
X195238448Y-76252544D01*
X195155399Y-76144312D02*
X195196039Y-76199110D01*
X194765240Y-74930000D02*
X194766356Y-74998229D01*
X195989623Y-76828940D02*
X196052192Y-76856065D01*
X195927927Y-76799760D02*
X195989623Y-76828940D01*
X195867249Y-76768593D02*
X195927927Y-76799760D01*
X195807633Y-76735462D02*
X195867249Y-76768593D01*
X195238448Y-76252544D02*
X195527453Y-76541549D01*
X195580882Y-76583953D02*
X195635689Y-76624601D01*
X195635689Y-76624601D02*
X195691743Y-76663397D01*
X195749099Y-76700378D02*
X195807633Y-76735462D01*
X195691743Y-76663397D02*
X195749099Y-76700378D01*
X195527453Y-76541549D02*
X195580882Y-76583953D01*
X197506065Y-76856065D02*
X197664990Y-77014990D01*
X196052192Y-76856065D02*
X197506065Y-76856065D01*
X197664990Y-77014990D02*
X199390000Y-77014990D01*
X242114990Y-77014990D02*
X248920000Y-77014990D01*
X262834322Y-76624592D02*
X262889120Y-76583951D01*
X262662365Y-76735463D02*
X262720882Y-76700390D01*
X262354364Y-76881136D02*
X262417789Y-76856073D01*
X262026696Y-76974705D02*
X262093399Y-76960299D01*
X261959604Y-76986913D02*
X262026696Y-76974705D01*
X261892096Y-76996926D02*
X261959604Y-76986913D01*
X262290120Y-76904122D02*
X262354364Y-76881136D01*
X261824284Y-77004727D02*
X261892096Y-76996926D01*
X262225160Y-76924994D02*
X262290120Y-76904122D01*
X261756334Y-77010298D02*
X261824284Y-77004727D01*
X262889120Y-76583951D02*
X262942562Y-76541536D01*
X262159582Y-76943721D02*
X262225160Y-76924994D01*
X261688230Y-77013643D02*
X261756334Y-77010298D01*
X262778230Y-76663414D02*
X262834322Y-76624592D01*
X262602742Y-76768598D02*
X262662365Y-76735463D01*
X262480373Y-76828942D02*
X262542074Y-76799760D01*
X248920000Y-77014990D02*
X261605889Y-77014990D01*
X262417789Y-76856073D02*
X262480373Y-76828942D01*
X261605889Y-77014990D02*
X261688230Y-77013643D01*
X262720882Y-76700390D02*
X262778230Y-76663414D01*
X262542074Y-76799760D02*
X262602742Y-76768598D01*
X262093399Y-76960299D02*
X262159582Y-76943721D01*
X263458599Y-75912738D02*
X263489762Y-75852069D01*
X263425469Y-75972353D02*
X263458599Y-75912738D01*
X263390400Y-76030863D02*
X263425469Y-75972353D01*
X263353399Y-76088251D02*
X263390400Y-76030863D01*
X262942562Y-76541536D02*
X263231542Y-76252555D01*
X263273951Y-76199120D02*
X263314598Y-76144314D01*
X263314598Y-76144314D02*
X263353399Y-76088251D01*
X263231542Y-76252555D02*
X263273951Y-76199120D01*
X263676912Y-75269601D02*
X263686925Y-75202093D01*
X263686925Y-75202093D02*
X263694724Y-75134300D01*
X263633722Y-75469574D02*
X263650302Y-75403381D01*
X263614997Y-75535148D02*
X263633722Y-75469574D01*
X263571135Y-75664363D02*
X263594127Y-75600103D01*
X263518930Y-75790398D02*
X263546069Y-75727796D01*
X263664705Y-75336691D02*
X263676912Y-75269601D01*
X263650302Y-75403381D02*
X263664705Y-75336691D01*
X263594127Y-75600103D02*
X263614997Y-75535148D01*
X263546069Y-75727796D02*
X263571135Y-75664363D01*
X263489762Y-75852069D02*
X263518930Y-75790398D01*
X263094146Y-30275851D02*
X263045129Y-30228412D01*
X263141592Y-30324875D02*
X263094146Y-30275851D01*
X263187405Y-30375422D02*
X263141592Y-30324875D01*
X263231536Y-30427437D02*
X263187405Y-30375422D01*
X263273951Y-30480879D02*
X263231536Y-30427437D01*
X263314592Y-30535677D02*
X263273951Y-30480879D01*
X263353405Y-30591756D02*
X263314592Y-30535677D01*
X263458604Y-30767268D02*
X263425468Y-30707643D01*
X263390388Y-30649115D02*
X263353405Y-30591756D01*
X263425468Y-30707643D02*
X263390388Y-30649115D01*
X263489760Y-30827925D02*
X263458604Y-30767268D01*
X263518942Y-30889626D02*
X263489760Y-30827925D01*
X263594122Y-31079879D02*
X263571136Y-31015635D01*
X263571136Y-31015635D02*
X263546073Y-30952210D01*
X263633721Y-31210417D02*
X263614994Y-31144839D01*
X263703643Y-31681769D02*
X263700298Y-31613665D01*
X263650299Y-31276600D02*
X263633721Y-31210417D01*
X263664705Y-31343303D02*
X263650299Y-31276600D01*
X263694724Y-75134300D02*
X263694724Y-74125276D01*
X263686926Y-31477903D02*
X263676913Y-31410395D01*
X263676913Y-31410395D02*
X263664705Y-31343303D01*
X263694724Y-74125276D02*
X263704990Y-74115010D01*
X263694727Y-31545715D02*
X263686926Y-31477903D01*
X263546073Y-30952210D02*
X263518942Y-30889626D01*
X263614994Y-31144839D02*
X263594122Y-31079879D01*
X263704990Y-31764110D02*
X263703643Y-31681769D01*
X263700298Y-31613665D02*
X263694727Y-31545715D01*
X261892099Y-29683075D02*
X261824291Y-29675275D01*
X261959589Y-29693085D02*
X261892099Y-29683075D01*
X262026705Y-29705297D02*
X261959589Y-29693085D01*
X262093388Y-29719698D02*
X262026705Y-29705297D01*
X262159563Y-29736274D02*
X262093388Y-29719698D01*
X262225164Y-29755007D02*
X262159563Y-29736274D01*
X262290105Y-29775872D02*
X262225164Y-29755007D01*
X262354352Y-29798860D02*
X262290105Y-29775872D01*
X262417800Y-29823932D02*
X262354352Y-29798860D01*
X262480380Y-29851061D02*
X262417800Y-29823932D01*
X262542085Y-29880245D02*
X262480380Y-29851061D01*
X262602753Y-29911407D02*
X262542085Y-29880245D01*
X262662365Y-29944536D02*
X262602753Y-29911407D01*
X263045129Y-30228412D02*
X262994575Y-30182593D01*
X262889121Y-30096048D02*
X262834327Y-30055411D01*
X262720879Y-29979608D02*
X262662365Y-29944536D01*
X262778232Y-30016587D02*
X262720879Y-29979608D01*
X262994575Y-30182593D02*
X262942550Y-30138453D01*
X262834327Y-30055411D02*
X262778232Y-30016587D01*
X262942550Y-30138453D02*
X262889121Y-30096048D01*
X196510395Y-29693086D02*
X196443303Y-29705294D01*
X196443303Y-29705294D02*
X196376600Y-29719700D01*
X195989626Y-29851057D02*
X195927925Y-29880239D01*
X196052210Y-29823926D02*
X195989626Y-29851057D01*
X196115635Y-29798863D02*
X196052210Y-29823926D01*
X196179879Y-29775877D02*
X196115635Y-29798863D01*
X196244839Y-29755005D02*
X196179879Y-29775877D01*
X196376600Y-29719700D02*
X196310417Y-29736278D01*
X195867268Y-29911395D02*
X195807643Y-29944531D01*
X196310417Y-29736278D02*
X196244839Y-29755005D01*
X196713665Y-29669701D02*
X196645715Y-29675272D01*
X196577903Y-29683073D02*
X196510395Y-29693086D01*
X244305275Y-29675275D02*
X244295010Y-29665010D01*
X196781769Y-29666356D02*
X196713665Y-29669701D01*
X196864091Y-29665010D02*
X196781769Y-29666356D01*
X196645715Y-29675272D02*
X196577903Y-29683073D01*
X195927925Y-29880239D02*
X195867268Y-29911395D01*
X195044533Y-30707641D02*
X195807643Y-29944531D01*
X195011407Y-30767248D02*
X195044533Y-30707641D01*
X194980247Y-30827912D02*
X195011407Y-30767248D01*
X194951069Y-30889602D02*
X194980247Y-30827912D01*
X194923936Y-30952189D02*
X194951069Y-30889602D01*
X194898870Y-31015619D02*
X194923936Y-30952189D01*
X194875884Y-31079861D02*
X194898870Y-31015619D01*
X194855017Y-31144804D02*
X194875884Y-31079861D01*
X194836274Y-31210436D02*
X194855017Y-31144804D01*
X255800000Y-48260000D02*
X262890000Y-48260000D01*
X263704990Y-49074990D02*
X263704990Y-31764110D01*
X262890000Y-48260000D02*
X263704990Y-49074990D01*
X263249980Y-63500000D02*
X263704990Y-63044990D01*
X257070000Y-63500000D02*
X263249980Y-63500000D01*
X257070000Y-63500000D02*
X259080000Y-63500000D01*
X259080000Y-63500000D02*
X263704990Y-68124990D01*
X263704990Y-68124990D02*
X263704990Y-63044990D01*
X263704990Y-74115010D02*
X263704990Y-68124990D01*
X257070000Y-63500000D02*
X259439980Y-63500000D01*
X263704990Y-59234990D02*
X263704990Y-49074990D01*
X259439980Y-63500000D02*
X263704990Y-59234990D01*
X263704990Y-63044990D02*
X263704990Y-59234990D01*
X259610000Y-63500000D02*
X258760001Y-64349999D01*
X258230001Y-64349999D02*
X258760001Y-64349999D01*
X199390000Y-77014990D02*
X205284990Y-77014990D01*
D24*
X208280000Y-73660000D02*
X208280000Y-76200000D01*
X208280000Y-76200000D02*
X209094990Y-77014990D01*
D23*
X205284990Y-77014990D02*
X209094990Y-77014990D01*
D24*
X212090000Y-73660000D02*
X212090000Y-74930000D01*
X212090000Y-74930000D02*
X210005010Y-77014990D01*
D23*
X210005010Y-77014990D02*
X218440000Y-77014990D01*
X209094990Y-77014990D02*
X210005010Y-77014990D01*
D24*
X249820000Y-57520000D02*
X249820000Y-64400000D01*
X248180000Y-55880000D02*
X249820000Y-57520000D01*
X252730000Y-67310000D02*
X252730000Y-72390000D01*
X249820000Y-64400000D02*
X252730000Y-67310000D01*
X228600000Y-55880000D02*
X248180000Y-55880000D01*
D23*
X195238448Y-76252544D02*
X195238448Y-74588448D01*
D24*
X203200000Y-63500000D02*
X203200000Y-71120000D01*
X205700000Y-68580000D02*
X213360000Y-68580000D01*
X213360000Y-68580000D02*
X214630000Y-69850000D01*
X214630000Y-69850000D02*
X215900000Y-69850000D01*
X215900000Y-69850000D02*
X215900000Y-69850000D01*
X205700000Y-71120000D02*
X215900000Y-71120000D01*
X226060000Y-69850000D02*
X229870000Y-73660000D01*
X222250000Y-69850000D02*
X226060000Y-69850000D01*
X223520000Y-71120000D02*
X226060000Y-73660000D01*
X222250000Y-71120000D02*
X223520000Y-71120000D01*
X208280000Y-34290000D02*
X208280000Y-30480000D01*
X205740000Y-36830000D02*
X208280000Y-34290000D01*
X208280000Y-30480000D02*
X207465010Y-29665010D01*
D23*
X244295010Y-29665010D02*
X207465010Y-29665010D01*
X236675010Y-77014990D02*
X242114990Y-77014990D01*
X233224990Y-77014990D02*
X236675010Y-77014990D01*
D24*
X241300000Y-76200000D02*
X242114990Y-77014990D01*
D23*
X251925275Y-29675275D02*
X244305275Y-29675275D01*
D24*
X251460000Y-30140550D02*
X251925275Y-29675275D01*
D23*
X261824291Y-29675275D02*
X251925275Y-29675275D01*
D24*
X215900000Y-63500000D02*
X219710000Y-59690000D01*
X217170000Y-64770000D02*
X215900000Y-63500000D01*
X219710000Y-59690000D02*
X220980000Y-59690000D01*
X217170000Y-66040000D02*
X217170000Y-64770000D01*
X220980000Y-63500000D02*
X218440000Y-63500000D01*
X223440000Y-66000000D02*
X225940000Y-63500000D01*
X220980000Y-66000000D02*
X223440000Y-66000000D01*
D23*
X204925010Y-29665010D02*
X196864091Y-29665010D01*
X207465010Y-29665010D02*
X204925010Y-29665010D01*
D24*
X254835000Y-57785000D02*
X255470000Y-58420000D01*
X254635000Y-57785000D02*
X254835000Y-57785000D01*
X254635000Y-57785000D02*
X254635000Y-57150000D01*
X254635000Y-57150000D02*
X253365000Y-55880000D01*
X253365000Y-45615000D02*
X255800000Y-43180000D01*
X253365000Y-55880000D02*
X253365000Y-45615000D01*
X251460000Y-52070000D02*
X248920000Y-54610000D01*
X251460000Y-41910000D02*
X251460000Y-52070000D01*
X253365000Y-40005000D02*
X251460000Y-41910000D01*
X255778000Y-40005000D02*
X253365000Y-40005000D01*
X258975000Y-37465000D02*
X259610000Y-36830000D01*
X255778000Y-37465000D02*
X258975000Y-37465000D01*
X205740000Y-30480000D02*
X204925010Y-29665010D01*
D25*
X205740000Y-33020000D02*
X205740000Y-30480000D01*
X216535000Y-33020000D02*
X216535000Y-31606508D01*
X216424492Y-31496000D02*
X216535000Y-31606508D01*
X217000000Y-33485000D02*
X216535000Y-33020000D01*
X217000000Y-36830000D02*
X217000000Y-33485000D01*
X241300000Y-75073492D02*
X241300000Y-76200000D01*
X241300000Y-73660000D02*
X241300000Y-75073492D01*
X233680000Y-76559980D02*
X233680000Y-73660000D01*
X233224990Y-77014990D02*
X233680000Y-76559980D01*
X237490000Y-76200000D02*
X237490000Y-73660000D01*
X236675010Y-77014990D02*
X237490000Y-76200000D01*
X220980000Y-76708000D02*
X220980000Y-73660000D01*
X221286990Y-77014990D02*
X220980000Y-76708000D01*
D23*
X218440000Y-77014990D02*
X221286990Y-77014990D01*
X221286990Y-77014990D02*
X233224990Y-77014990D01*
D25*
X218440000Y-75565000D02*
X217297000Y-74422000D01*
X218440000Y-77014990D02*
X218440000Y-75565000D01*
M02*
