G04 #@! TF.GenerationSoftware,KiCad,Pcbnew,(5.1.0-0)*
G04 #@! TF.CreationDate,2019-05-09T12:41:25+01:00*
G04 #@! TF.ProjectId,MS20filter,4d533230-6669-46c7-9465-722e6b696361,rev?*
G04 #@! TF.SameCoordinates,Original*
G04 #@! TF.FileFunction,Copper,L1,Top*
G04 #@! TF.FilePolarity,Positive*
%FSLAX46Y46*%
G04 Gerber Fmt 4.6, Leading zero omitted, Abs format (unit mm)*
G04 Created by KiCad (PCBNEW (5.1.0-0)) date 2019-05-09 12:41:25*
%MOMM*%
%LPD*%
G04 APERTURE LIST*
%ADD10C,6.400000*%
%ADD11C,0.800000*%
%ADD12O,1.600000X1.600000*%
%ADD13C,1.600000*%
%ADD14C,1.998980*%
%ADD15C,1.500000*%
%ADD16R,1.500000X1.500000*%
%ADD17R,1.800000X1.800000*%
%ADD18C,1.800000*%
%ADD19R,1.600000X1.600000*%
%ADD20R,1.700000X1.700000*%
%ADD21O,1.700000X1.700000*%
%ADD22C,3.000000*%
%ADD23C,0.750000*%
G04 APERTURE END LIST*
D10*
X253492000Y-32512000D03*
D11*
X255892000Y-32512000D03*
X255189056Y-34209056D03*
X253492000Y-34912000D03*
X251794944Y-34209056D03*
X251092000Y-32512000D03*
X251794944Y-30814944D03*
X253492000Y-30112000D03*
X255189056Y-30814944D03*
D12*
X255778000Y-37465000D03*
D13*
X255778000Y-40005000D03*
D10*
X247142000Y-74930000D03*
D11*
X249542000Y-74930000D03*
X248839056Y-76627056D03*
X247142000Y-77330000D03*
X245444944Y-76627056D03*
X244742000Y-74930000D03*
X245444944Y-73232944D03*
X247142000Y-72530000D03*
X248839056Y-73232944D03*
D10*
X196342000Y-75057000D03*
D11*
X198742000Y-75057000D03*
X198039056Y-76754056D03*
X196342000Y-77457000D03*
X194644944Y-76754056D03*
X193942000Y-75057000D03*
X194644944Y-73359944D03*
X196342000Y-72657000D03*
X198039056Y-73359944D03*
X198420056Y-29925944D03*
X196723000Y-29223000D03*
X195025944Y-29925944D03*
X194323000Y-31623000D03*
X195025944Y-33320056D03*
X196723000Y-34023000D03*
X198420056Y-33320056D03*
X199123000Y-31623000D03*
D10*
X196723000Y-31623000D03*
D12*
X225940000Y-63881000D03*
D13*
X218440000Y-63881000D03*
D14*
X216535000Y-33020000D03*
X241300000Y-73660000D03*
X237490000Y-73660000D03*
X201930000Y-33020000D03*
D13*
X205700000Y-71120000D03*
X203200000Y-71120000D03*
D14*
X229870000Y-73660000D03*
X233680000Y-73660000D03*
X226060000Y-73660000D03*
D13*
X198120000Y-44450000D03*
D12*
X198120000Y-36830000D03*
D13*
X217070000Y-46990000D03*
D12*
X219610000Y-46990000D03*
D13*
X208280000Y-66040000D03*
D12*
X208280000Y-73660000D03*
D13*
X212090000Y-66040000D03*
D12*
X212090000Y-73660000D03*
X217297000Y-74422000D03*
D13*
X217297000Y-66802000D03*
D14*
X205740000Y-33020000D03*
D12*
X201930000Y-36830000D03*
D13*
X201930000Y-44450000D03*
D12*
X209550000Y-36830000D03*
D13*
X209550000Y-44450000D03*
X205740000Y-44450000D03*
D12*
X205740000Y-36830000D03*
X219540000Y-41910000D03*
D13*
X217000000Y-41910000D03*
D12*
X219540000Y-36830000D03*
D13*
X217000000Y-36830000D03*
D14*
X219710000Y-33020000D03*
X236220000Y-33020000D03*
D13*
X226160000Y-33020000D03*
D12*
X223620000Y-33020000D03*
D13*
X229770000Y-33020000D03*
D12*
X232310000Y-33020000D03*
X243740000Y-59690000D03*
D13*
X241200000Y-59690000D03*
X228600000Y-63500000D03*
D12*
X228600000Y-66040000D03*
D15*
X231140000Y-39370000D03*
X231140000Y-41910000D03*
D16*
X231140000Y-36830000D03*
X226060000Y-41910000D03*
D15*
X226060000Y-36830000D03*
X226060000Y-39370000D03*
D13*
X217170000Y-59690000D03*
D12*
X217170000Y-52070000D03*
D14*
X240030000Y-33020000D03*
D13*
X243740000Y-33020000D03*
D12*
X246280000Y-33020000D03*
D17*
X246380000Y-36830000D03*
D18*
X243840000Y-36830000D03*
X246380000Y-41910000D03*
D17*
X243840000Y-41910000D03*
D12*
X246380000Y-46990000D03*
D13*
X243840000Y-46990000D03*
D14*
X220980000Y-73660000D03*
D13*
X233720000Y-63500000D03*
X236220000Y-63500000D03*
X242530000Y-52070000D03*
X240030000Y-52070000D03*
X203200000Y-68580000D03*
X205700000Y-68580000D03*
D12*
X213360000Y-59690000D03*
X195580000Y-52070000D03*
X210820000Y-59690000D03*
X198120000Y-52070000D03*
X208280000Y-59690000D03*
X200660000Y-52070000D03*
X205740000Y-59690000D03*
X203200000Y-52070000D03*
X203200000Y-59690000D03*
X205740000Y-52070000D03*
X200660000Y-59690000D03*
X208280000Y-52070000D03*
X198120000Y-59690000D03*
X210820000Y-52070000D03*
X195580000Y-59690000D03*
D19*
X213360000Y-52070000D03*
D12*
X236220000Y-59690000D03*
X220980000Y-52070000D03*
X233680000Y-59690000D03*
X223520000Y-52070000D03*
X231140000Y-59690000D03*
X226060000Y-52070000D03*
X228600000Y-59690000D03*
X228600000Y-52070000D03*
X226060000Y-59690000D03*
X231140000Y-52070000D03*
X223520000Y-59690000D03*
X233680000Y-52070000D03*
X220980000Y-59690000D03*
D19*
X236220000Y-52070000D03*
X261620000Y-73660000D03*
D13*
X259620000Y-73660000D03*
D20*
X257070000Y-58420000D03*
D21*
X259610000Y-58420000D03*
X257070000Y-60960000D03*
X259610000Y-60960000D03*
X257070000Y-63500000D03*
X259610000Y-63500000D03*
X257070000Y-66040000D03*
X259610000Y-66040000D03*
X257070000Y-68580000D03*
X259610000Y-68580000D03*
D22*
X259610000Y-53340000D03*
X259610000Y-48260000D03*
X259610000Y-43180000D03*
D14*
X255800000Y-53340000D03*
X255800000Y-48260000D03*
D13*
X261610000Y-36830000D03*
D19*
X259610000Y-36830000D03*
D12*
X252730000Y-64770000D03*
D13*
X252730000Y-72390000D03*
D14*
X255800000Y-43180000D03*
D11*
X209550000Y-54610000D03*
X213360000Y-55880000D03*
X231140000Y-66040000D03*
X238760000Y-45720000D03*
X238760000Y-39370000D03*
X212090000Y-62230000D03*
X212090000Y-45720000D03*
X212090000Y-40640000D03*
X215900000Y-69850000D03*
X215900000Y-71120000D03*
X222250000Y-69850000D03*
X222250000Y-71120000D03*
D23*
X252730000Y-56410000D02*
X255800000Y-53340000D01*
X252730000Y-64770000D02*
X252730000Y-56410000D01*
X209550000Y-54610000D02*
X210820000Y-54610000D01*
X212090000Y-55880000D02*
X213360000Y-55880000D01*
X210820000Y-54610000D02*
X212090000Y-55880000D01*
X228600000Y-54610000D02*
X226060000Y-52070000D01*
X241300000Y-54610000D02*
X228600000Y-54610000D01*
X242530000Y-53380000D02*
X241300000Y-54610000D01*
X242530000Y-52070000D02*
X242530000Y-53380000D01*
X231140000Y-66040000D02*
X237490000Y-66040000D01*
X240030000Y-46990000D02*
X238760000Y-45720000D01*
X237490000Y-66040000D02*
X238760000Y-64770000D01*
X238760000Y-64770000D02*
X238760000Y-57150000D01*
X238760000Y-57150000D02*
X240030000Y-55880000D01*
X243840000Y-49530000D02*
X242570000Y-49530000D01*
X240030000Y-55880000D02*
X242570000Y-55880000D01*
X242570000Y-55880000D02*
X245110000Y-53340000D01*
X245110000Y-53340000D02*
X245110000Y-50800000D01*
X242570000Y-49530000D02*
X240030000Y-46990000D01*
X245110000Y-50800000D02*
X243840000Y-49530000D01*
X238760000Y-45720000D02*
X238760000Y-45720000D01*
X243740000Y-59690000D02*
X243740000Y-57250000D01*
X243740000Y-57250000D02*
X250190000Y-50800000D01*
X250190000Y-50800000D02*
X250190000Y-41910000D01*
X250190000Y-41910000D02*
X250190000Y-40640000D01*
X250190000Y-40640000D02*
X248920000Y-39370000D01*
X248920000Y-39370000D02*
X238760000Y-39370000D01*
X238760000Y-39370000D02*
X238760000Y-39370000D01*
X209550000Y-44450000D02*
X208280000Y-45720000D01*
X208280000Y-45720000D02*
X208280000Y-52070000D01*
X203200000Y-52070000D02*
X208280000Y-57150000D01*
X208280000Y-57150000D02*
X218440000Y-57150000D01*
X218440000Y-57150000D02*
X223520000Y-52070000D01*
X212090000Y-62230000D02*
X212090000Y-64770000D01*
X212090000Y-64770000D02*
X212090000Y-66040000D01*
X213360000Y-59690000D02*
X214630000Y-60960000D01*
X214630000Y-60960000D02*
X214630000Y-67310000D01*
X231140000Y-39370000D02*
X229870000Y-39370000D01*
X229870000Y-39370000D02*
X228600000Y-40640000D01*
X228600000Y-40640000D02*
X228600000Y-43180000D01*
X228600000Y-43180000D02*
X227330000Y-44450000D01*
X227330000Y-44450000D02*
X213360000Y-44450000D01*
X213360000Y-44450000D02*
X210820000Y-41910000D01*
X200660000Y-41910000D02*
X198120000Y-44450000D01*
X210820000Y-41910000D02*
X200660000Y-41910000D01*
X213360000Y-46990000D02*
X212090000Y-45720000D01*
X217070000Y-46990000D02*
X213360000Y-46990000D01*
X212090000Y-40640000D02*
X212090000Y-31750000D01*
X212090000Y-31750000D02*
X213360000Y-30480000D01*
X213360000Y-30480000D02*
X247650000Y-30480000D01*
X247650000Y-30480000D02*
X248920000Y-31750000D01*
X248920000Y-31750000D02*
X248920000Y-36830000D01*
X248920000Y-36830000D02*
X251460000Y-39370000D01*
X251460000Y-39370000D02*
X251460000Y-53340000D01*
X251460000Y-53340000D02*
X251460000Y-55880000D01*
X251460000Y-55880000D02*
X238760000Y-68580000D01*
X238760000Y-68580000D02*
X215900000Y-68580000D01*
X215900000Y-68580000D02*
X214630000Y-67310000D01*
X215900000Y-69850000D02*
X222250000Y-69850000D01*
X215900000Y-71120000D02*
X222250000Y-71120000D01*
M02*
