M48
; DRILL file {KiCad (5.1.0-0)} date Tuesday, 30 April 2019 at 17:26:25
; FORMAT={-:-/ absolute / inch / decimal}
; #@! TF.CreationDate,2019-04-30T17:26:25+01:00
; #@! TF.GenerationSoftware,Kicad,Pcbnew,(5.1.0-0)
; #@! TF.FileFunction,Plated,1,2,PTH
FMAT,2
INCH
T1C0.0157
T2C0.0315
T3C0.0315
T4C0.0354
T5C0.0394
T6C0.0787
%
G90
G05
T1
X8.25Y-2.15
X8.35Y-1.6
X8.35Y-1.8
X8.35Y-2.45
X8.4Y-2.2
X8.5Y-2.75
X8.5Y-2.8
X8.75Y-2.75
X8.75Y-2.8
X9.1Y-2.6
X9.4Y-1.55
X9.4Y-1.8
T2
X8.5461Y-1.85
X8.6461Y-1.85
X8.5433Y-1.45
X8.6433Y-1.45
X9.45Y-2.05
X9.5484Y-2.05
X8.0Y-2.7
X8.0984Y-2.7
X9.95Y-2.55
X9.95Y-2.85
X9.6Y-1.85
X9.7Y-1.85
X9.2016Y-2.5
X9.3Y-2.5
X9.5961Y-1.3
X10.0709Y-1.3
X10.0709Y-1.6
X8.8039Y-1.3
X8.9039Y-1.3
X8.1Y-1.45
X8.1Y-1.75
X10.2209Y-1.45
X10.2996Y-1.45
X8.0Y-2.8
X8.0984Y-2.8
X8.25Y-1.45
X8.25Y-1.75
X7.95Y-1.75
X9.0461Y-1.3
X9.1461Y-1.3
X8.5433Y-1.65
X8.6433Y-1.65
X8.7Y-2.05
X8.7Y-2.35
X8.8Y-2.05
X8.8Y-2.35
X8.9Y-2.05
X8.9Y-2.35
X8.55Y-2.6
X8.55Y-2.9
X8.9Y-1.45
X8.9Y-1.55
X7.7Y-2.05
X7.7Y-2.35
X7.8Y-2.05
X7.8Y-2.35
X7.9Y-2.05
X9.0Y-2.05
X8.9Y-1.65
X9.0Y-2.35
X9.1Y-2.05
X9.1Y-2.35
X9.2Y-2.05
X9.2Y-2.35
X9.3Y-2.05
X9.3Y-2.35
X9.0Y-2.5
X9.0Y-2.6
X8.2Y-2.6
X8.2Y-2.9
X7.8Y-1.45
X7.8Y-1.75
X8.6Y-2.5
X8.8953Y-2.5
X7.9Y-2.35
X8.0Y-2.05
X8.0Y-2.35
X8.1Y-2.05
X8.1Y-2.35
X8.2Y-2.05
X8.2Y-2.35
X8.3Y-2.05
X8.3Y-2.35
X8.4Y-2.05
X8.4Y-2.35
X8.55Y-2.05
X8.55Y-2.35
X7.95Y-1.45
X10.2213Y-2.9
X10.3Y-2.9
X8.35Y-2.9
X9.6961Y-1.3
X9.1Y-1.45
X9.1Y-1.55
X9.1Y-1.65
X9.4961Y-2.35
X9.5961Y-2.35
X8.35Y-2.6
T3
X9.2Y-2.9
X9.35Y-2.9
X8.1Y-1.3
X8.7Y-2.9
X8.9Y-2.9
X7.95Y-1.3
X9.45Y-1.3
X9.3Y-1.3
X10.0709Y-1.9
X9.5Y-2.9
X8.65Y-1.3
X9.9Y-1.3
X10.0709Y-2.1
X10.0709Y-1.7
X9.05Y-2.9
T4
X9.6Y-1.65
X9.7Y-1.65
X9.6Y-1.45
X9.7Y-1.45
T5
X10.1209Y-2.3
X10.1209Y-2.4
X10.1209Y-2.5
X10.1209Y-2.6
X10.1209Y-2.7
X10.2209Y-2.3
X10.2209Y-2.4
X10.2209Y-2.5
X10.2209Y-2.6
X10.2209Y-2.7
T6
X10.2209Y-2.1
X10.2209Y-1.9
X10.2209Y-1.7
X9.7Y-2.95
X7.75Y-2.95
X7.75Y-1.25
T0
M30
