G04 #@! TF.GenerationSoftware,KiCad,Pcbnew,(5.1.0-0)*
G04 #@! TF.CreationDate,2019-04-30T17:26:27+01:00*
G04 #@! TF.ProjectId,MS20filter,4d533230-6669-46c7-9465-722e6b696361,rev?*
G04 #@! TF.SameCoordinates,Original*
G04 #@! TF.FileFunction,Soldermask,Top*
G04 #@! TF.FilePolarity,Negative*
%FSLAX46Y46*%
G04 Gerber Fmt 4.6, Leading zero omitted, Abs format (unit mm)*
G04 Created by KiCad (PCBNEW (5.1.0-0)) date 2019-04-30 17:26:27*
%MOMM*%
%LPD*%
G04 APERTURE LIST*
%ADD10C,0.100000*%
G04 APERTURE END LIST*
D10*
G36*
X246755256Y-73321298D02*
G01*
X246861579Y-73342447D01*
X247162042Y-73466903D01*
X247432451Y-73647585D01*
X247662415Y-73877549D01*
X247843097Y-74147958D01*
X247843098Y-74147960D01*
X247865681Y-74202480D01*
X247967553Y-74448421D01*
X247980001Y-74511000D01*
X248031000Y-74767389D01*
X248031000Y-75092611D01*
X247967553Y-75411578D01*
X247862718Y-75664674D01*
X247843097Y-75712042D01*
X247662415Y-75982451D01*
X247432451Y-76212415D01*
X247162042Y-76393097D01*
X246861579Y-76517553D01*
X246755256Y-76538702D01*
X246542611Y-76581000D01*
X246217389Y-76581000D01*
X246004744Y-76538702D01*
X245898421Y-76517553D01*
X245597958Y-76393097D01*
X245327549Y-76212415D01*
X245097585Y-75982451D01*
X244916903Y-75712042D01*
X244897283Y-75664674D01*
X244792447Y-75411578D01*
X244729000Y-75092611D01*
X244729000Y-74767389D01*
X244779999Y-74511000D01*
X244792447Y-74448421D01*
X244894319Y-74202480D01*
X244916902Y-74147960D01*
X244916903Y-74147958D01*
X245097585Y-73877549D01*
X245327549Y-73647585D01*
X245597958Y-73466903D01*
X245898421Y-73342447D01*
X246004744Y-73321298D01*
X246217389Y-73279000D01*
X246542611Y-73279000D01*
X246755256Y-73321298D01*
X246755256Y-73321298D01*
G37*
G36*
X197225256Y-73321298D02*
G01*
X197331579Y-73342447D01*
X197632042Y-73466903D01*
X197902451Y-73647585D01*
X198132415Y-73877549D01*
X198313097Y-74147958D01*
X198313098Y-74147960D01*
X198335681Y-74202480D01*
X198437553Y-74448421D01*
X198450001Y-74511000D01*
X198501000Y-74767389D01*
X198501000Y-75092611D01*
X198437553Y-75411578D01*
X198332718Y-75664674D01*
X198313097Y-75712042D01*
X198132415Y-75982451D01*
X197902451Y-76212415D01*
X197632042Y-76393097D01*
X197331579Y-76517553D01*
X197225256Y-76538702D01*
X197012611Y-76581000D01*
X196687389Y-76581000D01*
X196474744Y-76538702D01*
X196368421Y-76517553D01*
X196067958Y-76393097D01*
X195797549Y-76212415D01*
X195567585Y-75982451D01*
X195386903Y-75712042D01*
X195367283Y-75664674D01*
X195262447Y-75411578D01*
X195199000Y-75092611D01*
X195199000Y-74767389D01*
X195249999Y-74511000D01*
X195262447Y-74448421D01*
X195364319Y-74202480D01*
X195386902Y-74147960D01*
X195386903Y-74147958D01*
X195567585Y-73877549D01*
X195797549Y-73647585D01*
X196067958Y-73466903D01*
X196368421Y-73342447D01*
X196474744Y-73321298D01*
X196687389Y-73279000D01*
X197012611Y-73279000D01*
X197225256Y-73321298D01*
X197225256Y-73321298D01*
G37*
G36*
X226366416Y-72649879D02*
G01*
X226557592Y-72729067D01*
X226557594Y-72729068D01*
X226729648Y-72844031D01*
X226875969Y-72990352D01*
X226978732Y-73144147D01*
X226990933Y-73162408D01*
X227070121Y-73353584D01*
X227110490Y-73556534D01*
X227110490Y-73763466D01*
X227070121Y-73966416D01*
X226994923Y-74147960D01*
X226990932Y-74157594D01*
X226875969Y-74329648D01*
X226729648Y-74475969D01*
X226557594Y-74590932D01*
X226557593Y-74590933D01*
X226557592Y-74590933D01*
X226366416Y-74670121D01*
X226163466Y-74710490D01*
X225956534Y-74710490D01*
X225753584Y-74670121D01*
X225562408Y-74590933D01*
X225562407Y-74590933D01*
X225562406Y-74590932D01*
X225390352Y-74475969D01*
X225244031Y-74329648D01*
X225129068Y-74157594D01*
X225125077Y-74147960D01*
X225049879Y-73966416D01*
X225009510Y-73763466D01*
X225009510Y-73556534D01*
X225049879Y-73353584D01*
X225129067Y-73162408D01*
X225141269Y-73144147D01*
X225244031Y-72990352D01*
X225390352Y-72844031D01*
X225562406Y-72729068D01*
X225562408Y-72729067D01*
X225753584Y-72649879D01*
X225956534Y-72609510D01*
X226163466Y-72609510D01*
X226366416Y-72649879D01*
X226366416Y-72649879D01*
G37*
G36*
X221286416Y-72649879D02*
G01*
X221477592Y-72729067D01*
X221477594Y-72729068D01*
X221649648Y-72844031D01*
X221795969Y-72990352D01*
X221898732Y-73144147D01*
X221910933Y-73162408D01*
X221990121Y-73353584D01*
X222030490Y-73556534D01*
X222030490Y-73763466D01*
X221990121Y-73966416D01*
X221914923Y-74147960D01*
X221910932Y-74157594D01*
X221795969Y-74329648D01*
X221649648Y-74475969D01*
X221477594Y-74590932D01*
X221477593Y-74590933D01*
X221477592Y-74590933D01*
X221286416Y-74670121D01*
X221083466Y-74710490D01*
X220876534Y-74710490D01*
X220673584Y-74670121D01*
X220482408Y-74590933D01*
X220482407Y-74590933D01*
X220482406Y-74590932D01*
X220310352Y-74475969D01*
X220164031Y-74329648D01*
X220049068Y-74157594D01*
X220045077Y-74147960D01*
X219969879Y-73966416D01*
X219929510Y-73763466D01*
X219929510Y-73556534D01*
X219969879Y-73353584D01*
X220049067Y-73162408D01*
X220061269Y-73144147D01*
X220164031Y-72990352D01*
X220310352Y-72844031D01*
X220482406Y-72729068D01*
X220482408Y-72729067D01*
X220673584Y-72649879D01*
X220876534Y-72609510D01*
X221083466Y-72609510D01*
X221286416Y-72649879D01*
X221286416Y-72649879D01*
G37*
G36*
X230176416Y-72649879D02*
G01*
X230367592Y-72729067D01*
X230367594Y-72729068D01*
X230539648Y-72844031D01*
X230685969Y-72990352D01*
X230788732Y-73144147D01*
X230800933Y-73162408D01*
X230880121Y-73353584D01*
X230920490Y-73556534D01*
X230920490Y-73763466D01*
X230880121Y-73966416D01*
X230804923Y-74147960D01*
X230800932Y-74157594D01*
X230685969Y-74329648D01*
X230539648Y-74475969D01*
X230367594Y-74590932D01*
X230367593Y-74590933D01*
X230367592Y-74590933D01*
X230176416Y-74670121D01*
X229973466Y-74710490D01*
X229766534Y-74710490D01*
X229563584Y-74670121D01*
X229372408Y-74590933D01*
X229372407Y-74590933D01*
X229372406Y-74590932D01*
X229200352Y-74475969D01*
X229054031Y-74329648D01*
X228939068Y-74157594D01*
X228935077Y-74147960D01*
X228859879Y-73966416D01*
X228819510Y-73763466D01*
X228819510Y-73556534D01*
X228859879Y-73353584D01*
X228939067Y-73162408D01*
X228951269Y-73144147D01*
X229054031Y-72990352D01*
X229200352Y-72844031D01*
X229372406Y-72729068D01*
X229372408Y-72729067D01*
X229563584Y-72649879D01*
X229766534Y-72609510D01*
X229973466Y-72609510D01*
X230176416Y-72649879D01*
X230176416Y-72649879D01*
G37*
G36*
X241606416Y-72649879D02*
G01*
X241797592Y-72729067D01*
X241797594Y-72729068D01*
X241969648Y-72844031D01*
X242115969Y-72990352D01*
X242218732Y-73144147D01*
X242230933Y-73162408D01*
X242310121Y-73353584D01*
X242350490Y-73556534D01*
X242350490Y-73763466D01*
X242310121Y-73966416D01*
X242234923Y-74147960D01*
X242230932Y-74157594D01*
X242115969Y-74329648D01*
X241969648Y-74475969D01*
X241797594Y-74590932D01*
X241797593Y-74590933D01*
X241797592Y-74590933D01*
X241606416Y-74670121D01*
X241403466Y-74710490D01*
X241196534Y-74710490D01*
X240993584Y-74670121D01*
X240802408Y-74590933D01*
X240802407Y-74590933D01*
X240802406Y-74590932D01*
X240630352Y-74475969D01*
X240484031Y-74329648D01*
X240369068Y-74157594D01*
X240365077Y-74147960D01*
X240289879Y-73966416D01*
X240249510Y-73763466D01*
X240249510Y-73556534D01*
X240289879Y-73353584D01*
X240369067Y-73162408D01*
X240381269Y-73144147D01*
X240484031Y-72990352D01*
X240630352Y-72844031D01*
X240802406Y-72729068D01*
X240802408Y-72729067D01*
X240993584Y-72649879D01*
X241196534Y-72609510D01*
X241403466Y-72609510D01*
X241606416Y-72649879D01*
X241606416Y-72649879D01*
G37*
G36*
X237796416Y-72649879D02*
G01*
X237987592Y-72729067D01*
X237987594Y-72729068D01*
X238159648Y-72844031D01*
X238305969Y-72990352D01*
X238408732Y-73144147D01*
X238420933Y-73162408D01*
X238500121Y-73353584D01*
X238540490Y-73556534D01*
X238540490Y-73763466D01*
X238500121Y-73966416D01*
X238424923Y-74147960D01*
X238420932Y-74157594D01*
X238305969Y-74329648D01*
X238159648Y-74475969D01*
X237987594Y-74590932D01*
X237987593Y-74590933D01*
X237987592Y-74590933D01*
X237796416Y-74670121D01*
X237593466Y-74710490D01*
X237386534Y-74710490D01*
X237183584Y-74670121D01*
X236992408Y-74590933D01*
X236992407Y-74590933D01*
X236992406Y-74590932D01*
X236820352Y-74475969D01*
X236674031Y-74329648D01*
X236559068Y-74157594D01*
X236555077Y-74147960D01*
X236479879Y-73966416D01*
X236439510Y-73763466D01*
X236439510Y-73556534D01*
X236479879Y-73353584D01*
X236559067Y-73162408D01*
X236571269Y-73144147D01*
X236674031Y-72990352D01*
X236820352Y-72844031D01*
X236992406Y-72729068D01*
X236992408Y-72729067D01*
X237183584Y-72649879D01*
X237386534Y-72609510D01*
X237593466Y-72609510D01*
X237796416Y-72649879D01*
X237796416Y-72649879D01*
G37*
G36*
X233986416Y-72649879D02*
G01*
X234177592Y-72729067D01*
X234177594Y-72729068D01*
X234349648Y-72844031D01*
X234495969Y-72990352D01*
X234598732Y-73144147D01*
X234610933Y-73162408D01*
X234690121Y-73353584D01*
X234730490Y-73556534D01*
X234730490Y-73763466D01*
X234690121Y-73966416D01*
X234614923Y-74147960D01*
X234610932Y-74157594D01*
X234495969Y-74329648D01*
X234349648Y-74475969D01*
X234177594Y-74590932D01*
X234177593Y-74590933D01*
X234177592Y-74590933D01*
X233986416Y-74670121D01*
X233783466Y-74710490D01*
X233576534Y-74710490D01*
X233373584Y-74670121D01*
X233182408Y-74590933D01*
X233182407Y-74590933D01*
X233182406Y-74590932D01*
X233010352Y-74475969D01*
X232864031Y-74329648D01*
X232749068Y-74157594D01*
X232745077Y-74147960D01*
X232669879Y-73966416D01*
X232629510Y-73763466D01*
X232629510Y-73556534D01*
X232669879Y-73353584D01*
X232749067Y-73162408D01*
X232761269Y-73144147D01*
X232864031Y-72990352D01*
X233010352Y-72844031D01*
X233182406Y-72729068D01*
X233182408Y-72729067D01*
X233373584Y-72649879D01*
X233576534Y-72609510D01*
X233783466Y-72609510D01*
X233986416Y-72649879D01*
X233986416Y-72649879D01*
G37*
G36*
X262471000Y-74511000D02*
G01*
X260769000Y-74511000D01*
X260769000Y-72809000D01*
X262471000Y-72809000D01*
X262471000Y-74511000D01*
X262471000Y-74511000D01*
G37*
G36*
X259868228Y-72841703D02*
G01*
X260023100Y-72905853D01*
X260162481Y-72998985D01*
X260281015Y-73117519D01*
X260374147Y-73256900D01*
X260438297Y-73411772D01*
X260471000Y-73576184D01*
X260471000Y-73743816D01*
X260438297Y-73908228D01*
X260374147Y-74063100D01*
X260281015Y-74202481D01*
X260162481Y-74321015D01*
X260023100Y-74414147D01*
X259868228Y-74478297D01*
X259703816Y-74511000D01*
X259536184Y-74511000D01*
X259371772Y-74478297D01*
X259216900Y-74414147D01*
X259077519Y-74321015D01*
X258958985Y-74202481D01*
X258865853Y-74063100D01*
X258801703Y-73908228D01*
X258769000Y-73743816D01*
X258769000Y-73576184D01*
X258801703Y-73411772D01*
X258865853Y-73256900D01*
X258958985Y-73117519D01*
X259077519Y-72998985D01*
X259216900Y-72905853D01*
X259371772Y-72841703D01*
X259536184Y-72809000D01*
X259703816Y-72809000D01*
X259868228Y-72841703D01*
X259868228Y-72841703D01*
G37*
G36*
X217336823Y-72821313D02*
G01*
X217497242Y-72869976D01*
X217629906Y-72940886D01*
X217645078Y-72948996D01*
X217774659Y-73055341D01*
X217881004Y-73184922D01*
X217881005Y-73184924D01*
X217960024Y-73332758D01*
X218008687Y-73493177D01*
X218025117Y-73660000D01*
X218008687Y-73826823D01*
X217960024Y-73987242D01*
X217919477Y-74063100D01*
X217881004Y-74135078D01*
X217774659Y-74264659D01*
X217645078Y-74371004D01*
X217645076Y-74371005D01*
X217497242Y-74450024D01*
X217336823Y-74498687D01*
X217211804Y-74511000D01*
X217128196Y-74511000D01*
X217003177Y-74498687D01*
X216842758Y-74450024D01*
X216694924Y-74371005D01*
X216694922Y-74371004D01*
X216565341Y-74264659D01*
X216458996Y-74135078D01*
X216420523Y-74063100D01*
X216379976Y-73987242D01*
X216331313Y-73826823D01*
X216314883Y-73660000D01*
X216331313Y-73493177D01*
X216379976Y-73332758D01*
X216458995Y-73184924D01*
X216458996Y-73184922D01*
X216565341Y-73055341D01*
X216694922Y-72948996D01*
X216710094Y-72940886D01*
X216842758Y-72869976D01*
X217003177Y-72821313D01*
X217128196Y-72809000D01*
X217211804Y-72809000D01*
X217336823Y-72821313D01*
X217336823Y-72821313D01*
G37*
G36*
X212256823Y-72821313D02*
G01*
X212417242Y-72869976D01*
X212549906Y-72940886D01*
X212565078Y-72948996D01*
X212694659Y-73055341D01*
X212801004Y-73184922D01*
X212801005Y-73184924D01*
X212880024Y-73332758D01*
X212928687Y-73493177D01*
X212945117Y-73660000D01*
X212928687Y-73826823D01*
X212880024Y-73987242D01*
X212839477Y-74063100D01*
X212801004Y-74135078D01*
X212694659Y-74264659D01*
X212565078Y-74371004D01*
X212565076Y-74371005D01*
X212417242Y-74450024D01*
X212256823Y-74498687D01*
X212131804Y-74511000D01*
X212048196Y-74511000D01*
X211923177Y-74498687D01*
X211762758Y-74450024D01*
X211614924Y-74371005D01*
X211614922Y-74371004D01*
X211485341Y-74264659D01*
X211378996Y-74135078D01*
X211340523Y-74063100D01*
X211299976Y-73987242D01*
X211251313Y-73826823D01*
X211234883Y-73660000D01*
X211251313Y-73493177D01*
X211299976Y-73332758D01*
X211378995Y-73184924D01*
X211378996Y-73184922D01*
X211485341Y-73055341D01*
X211614922Y-72948996D01*
X211630094Y-72940886D01*
X211762758Y-72869976D01*
X211923177Y-72821313D01*
X212048196Y-72809000D01*
X212131804Y-72809000D01*
X212256823Y-72821313D01*
X212256823Y-72821313D01*
G37*
G36*
X208446823Y-72821313D02*
G01*
X208607242Y-72869976D01*
X208739906Y-72940886D01*
X208755078Y-72948996D01*
X208884659Y-73055341D01*
X208991004Y-73184922D01*
X208991005Y-73184924D01*
X209070024Y-73332758D01*
X209118687Y-73493177D01*
X209135117Y-73660000D01*
X209118687Y-73826823D01*
X209070024Y-73987242D01*
X209029477Y-74063100D01*
X208991004Y-74135078D01*
X208884659Y-74264659D01*
X208755078Y-74371004D01*
X208755076Y-74371005D01*
X208607242Y-74450024D01*
X208446823Y-74498687D01*
X208321804Y-74511000D01*
X208238196Y-74511000D01*
X208113177Y-74498687D01*
X207952758Y-74450024D01*
X207804924Y-74371005D01*
X207804922Y-74371004D01*
X207675341Y-74264659D01*
X207568996Y-74135078D01*
X207530523Y-74063100D01*
X207489976Y-73987242D01*
X207441313Y-73826823D01*
X207424883Y-73660000D01*
X207441313Y-73493177D01*
X207489976Y-73332758D01*
X207568995Y-73184924D01*
X207568996Y-73184922D01*
X207675341Y-73055341D01*
X207804922Y-72948996D01*
X207820094Y-72940886D01*
X207952758Y-72869976D01*
X208113177Y-72821313D01*
X208238196Y-72809000D01*
X208321804Y-72809000D01*
X208446823Y-72821313D01*
X208446823Y-72821313D01*
G37*
G36*
X252978228Y-71571703D02*
G01*
X253133100Y-71635853D01*
X253272481Y-71728985D01*
X253391015Y-71847519D01*
X253484147Y-71986900D01*
X253548297Y-72141772D01*
X253581000Y-72306184D01*
X253581000Y-72473816D01*
X253548297Y-72638228D01*
X253484147Y-72793100D01*
X253391015Y-72932481D01*
X253272481Y-73051015D01*
X253133100Y-73144147D01*
X252978228Y-73208297D01*
X252813816Y-73241000D01*
X252646184Y-73241000D01*
X252481772Y-73208297D01*
X252326900Y-73144147D01*
X252187519Y-73051015D01*
X252068985Y-72932481D01*
X251975853Y-72793100D01*
X251911703Y-72638228D01*
X251879000Y-72473816D01*
X251879000Y-72306184D01*
X251911703Y-72141772D01*
X251975853Y-71986900D01*
X252068985Y-71847519D01*
X252187519Y-71728985D01*
X252326900Y-71635853D01*
X252481772Y-71571703D01*
X252646184Y-71539000D01*
X252813816Y-71539000D01*
X252978228Y-71571703D01*
X252978228Y-71571703D01*
G37*
G36*
X205948228Y-70301703D02*
G01*
X206103100Y-70365853D01*
X206242481Y-70458985D01*
X206361015Y-70577519D01*
X206454147Y-70716900D01*
X206518297Y-70871772D01*
X206551000Y-71036184D01*
X206551000Y-71203816D01*
X206518297Y-71368228D01*
X206454147Y-71523100D01*
X206361015Y-71662481D01*
X206242481Y-71781015D01*
X206103100Y-71874147D01*
X205948228Y-71938297D01*
X205783816Y-71971000D01*
X205616184Y-71971000D01*
X205451772Y-71938297D01*
X205296900Y-71874147D01*
X205157519Y-71781015D01*
X205038985Y-71662481D01*
X204945853Y-71523100D01*
X204881703Y-71368228D01*
X204849000Y-71203816D01*
X204849000Y-71036184D01*
X204881703Y-70871772D01*
X204945853Y-70716900D01*
X205038985Y-70577519D01*
X205157519Y-70458985D01*
X205296900Y-70365853D01*
X205451772Y-70301703D01*
X205616184Y-70269000D01*
X205783816Y-70269000D01*
X205948228Y-70301703D01*
X205948228Y-70301703D01*
G37*
G36*
X203448228Y-70301703D02*
G01*
X203603100Y-70365853D01*
X203742481Y-70458985D01*
X203861015Y-70577519D01*
X203954147Y-70716900D01*
X204018297Y-70871772D01*
X204051000Y-71036184D01*
X204051000Y-71203816D01*
X204018297Y-71368228D01*
X203954147Y-71523100D01*
X203861015Y-71662481D01*
X203742481Y-71781015D01*
X203603100Y-71874147D01*
X203448228Y-71938297D01*
X203283816Y-71971000D01*
X203116184Y-71971000D01*
X202951772Y-71938297D01*
X202796900Y-71874147D01*
X202657519Y-71781015D01*
X202538985Y-71662481D01*
X202445853Y-71523100D01*
X202381703Y-71368228D01*
X202349000Y-71203816D01*
X202349000Y-71036184D01*
X202381703Y-70871772D01*
X202445853Y-70716900D01*
X202538985Y-70577519D01*
X202657519Y-70458985D01*
X202796900Y-70365853D01*
X202951772Y-70301703D01*
X203116184Y-70269000D01*
X203283816Y-70269000D01*
X203448228Y-70301703D01*
X203448228Y-70301703D01*
G37*
G36*
X257180443Y-67685519D02*
G01*
X257246627Y-67692037D01*
X257416466Y-67743557D01*
X257572991Y-67827222D01*
X257608729Y-67856552D01*
X257710186Y-67939814D01*
X257790369Y-68037519D01*
X257822778Y-68077009D01*
X257906443Y-68233534D01*
X257957963Y-68403373D01*
X257975359Y-68580000D01*
X257957963Y-68756627D01*
X257906443Y-68926466D01*
X257822778Y-69082991D01*
X257793448Y-69118729D01*
X257710186Y-69220186D01*
X257608729Y-69303448D01*
X257572991Y-69332778D01*
X257416466Y-69416443D01*
X257246627Y-69467963D01*
X257180442Y-69474482D01*
X257114260Y-69481000D01*
X257025740Y-69481000D01*
X256959558Y-69474482D01*
X256893373Y-69467963D01*
X256723534Y-69416443D01*
X256567009Y-69332778D01*
X256531271Y-69303448D01*
X256429814Y-69220186D01*
X256346552Y-69118729D01*
X256317222Y-69082991D01*
X256233557Y-68926466D01*
X256182037Y-68756627D01*
X256164641Y-68580000D01*
X256182037Y-68403373D01*
X256233557Y-68233534D01*
X256317222Y-68077009D01*
X256349631Y-68037519D01*
X256429814Y-67939814D01*
X256531271Y-67856552D01*
X256567009Y-67827222D01*
X256723534Y-67743557D01*
X256893373Y-67692037D01*
X256959557Y-67685519D01*
X257025740Y-67679000D01*
X257114260Y-67679000D01*
X257180443Y-67685519D01*
X257180443Y-67685519D01*
G37*
G36*
X259720443Y-67685519D02*
G01*
X259786627Y-67692037D01*
X259956466Y-67743557D01*
X260112991Y-67827222D01*
X260148729Y-67856552D01*
X260250186Y-67939814D01*
X260330369Y-68037519D01*
X260362778Y-68077009D01*
X260446443Y-68233534D01*
X260497963Y-68403373D01*
X260515359Y-68580000D01*
X260497963Y-68756627D01*
X260446443Y-68926466D01*
X260362778Y-69082991D01*
X260333448Y-69118729D01*
X260250186Y-69220186D01*
X260148729Y-69303448D01*
X260112991Y-69332778D01*
X259956466Y-69416443D01*
X259786627Y-69467963D01*
X259720442Y-69474482D01*
X259654260Y-69481000D01*
X259565740Y-69481000D01*
X259499558Y-69474482D01*
X259433373Y-69467963D01*
X259263534Y-69416443D01*
X259107009Y-69332778D01*
X259071271Y-69303448D01*
X258969814Y-69220186D01*
X258886552Y-69118729D01*
X258857222Y-69082991D01*
X258773557Y-68926466D01*
X258722037Y-68756627D01*
X258704641Y-68580000D01*
X258722037Y-68403373D01*
X258773557Y-68233534D01*
X258857222Y-68077009D01*
X258889631Y-68037519D01*
X258969814Y-67939814D01*
X259071271Y-67856552D01*
X259107009Y-67827222D01*
X259263534Y-67743557D01*
X259433373Y-67692037D01*
X259499557Y-67685519D01*
X259565740Y-67679000D01*
X259654260Y-67679000D01*
X259720443Y-67685519D01*
X259720443Y-67685519D01*
G37*
G36*
X205948228Y-67761703D02*
G01*
X206103100Y-67825853D01*
X206242481Y-67918985D01*
X206361015Y-68037519D01*
X206454147Y-68176900D01*
X206518297Y-68331772D01*
X206551000Y-68496184D01*
X206551000Y-68663816D01*
X206518297Y-68828228D01*
X206454147Y-68983100D01*
X206361015Y-69122481D01*
X206242481Y-69241015D01*
X206103100Y-69334147D01*
X205948228Y-69398297D01*
X205783816Y-69431000D01*
X205616184Y-69431000D01*
X205451772Y-69398297D01*
X205296900Y-69334147D01*
X205157519Y-69241015D01*
X205038985Y-69122481D01*
X204945853Y-68983100D01*
X204881703Y-68828228D01*
X204849000Y-68663816D01*
X204849000Y-68496184D01*
X204881703Y-68331772D01*
X204945853Y-68176900D01*
X205038985Y-68037519D01*
X205157519Y-67918985D01*
X205296900Y-67825853D01*
X205451772Y-67761703D01*
X205616184Y-67729000D01*
X205783816Y-67729000D01*
X205948228Y-67761703D01*
X205948228Y-67761703D01*
G37*
G36*
X203448228Y-67761703D02*
G01*
X203603100Y-67825853D01*
X203742481Y-67918985D01*
X203861015Y-68037519D01*
X203954147Y-68176900D01*
X204018297Y-68331772D01*
X204051000Y-68496184D01*
X204051000Y-68663816D01*
X204018297Y-68828228D01*
X203954147Y-68983100D01*
X203861015Y-69122481D01*
X203742481Y-69241015D01*
X203603100Y-69334147D01*
X203448228Y-69398297D01*
X203283816Y-69431000D01*
X203116184Y-69431000D01*
X202951772Y-69398297D01*
X202796900Y-69334147D01*
X202657519Y-69241015D01*
X202538985Y-69122481D01*
X202445853Y-68983100D01*
X202381703Y-68828228D01*
X202349000Y-68663816D01*
X202349000Y-68496184D01*
X202381703Y-68331772D01*
X202445853Y-68176900D01*
X202538985Y-68037519D01*
X202657519Y-67918985D01*
X202796900Y-67825853D01*
X202951772Y-67761703D01*
X203116184Y-67729000D01*
X203283816Y-67729000D01*
X203448228Y-67761703D01*
X203448228Y-67761703D01*
G37*
G36*
X257180442Y-65145518D02*
G01*
X257246627Y-65152037D01*
X257416466Y-65203557D01*
X257572991Y-65287222D01*
X257608729Y-65316552D01*
X257710186Y-65399814D01*
X257790369Y-65497519D01*
X257822778Y-65537009D01*
X257906443Y-65693534D01*
X257957963Y-65863373D01*
X257975359Y-66040000D01*
X257957963Y-66216627D01*
X257906443Y-66386466D01*
X257822778Y-66542991D01*
X257793448Y-66578729D01*
X257710186Y-66680186D01*
X257608729Y-66763448D01*
X257572991Y-66792778D01*
X257416466Y-66876443D01*
X257246627Y-66927963D01*
X257180442Y-66934482D01*
X257114260Y-66941000D01*
X257025740Y-66941000D01*
X256959558Y-66934482D01*
X256893373Y-66927963D01*
X256723534Y-66876443D01*
X256567009Y-66792778D01*
X256531271Y-66763448D01*
X256429814Y-66680186D01*
X256346552Y-66578729D01*
X256317222Y-66542991D01*
X256233557Y-66386466D01*
X256182037Y-66216627D01*
X256164641Y-66040000D01*
X256182037Y-65863373D01*
X256233557Y-65693534D01*
X256317222Y-65537009D01*
X256349631Y-65497519D01*
X256429814Y-65399814D01*
X256531271Y-65316552D01*
X256567009Y-65287222D01*
X256723534Y-65203557D01*
X256893373Y-65152037D01*
X256959558Y-65145518D01*
X257025740Y-65139000D01*
X257114260Y-65139000D01*
X257180442Y-65145518D01*
X257180442Y-65145518D01*
G37*
G36*
X259720442Y-65145518D02*
G01*
X259786627Y-65152037D01*
X259956466Y-65203557D01*
X260112991Y-65287222D01*
X260148729Y-65316552D01*
X260250186Y-65399814D01*
X260330369Y-65497519D01*
X260362778Y-65537009D01*
X260446443Y-65693534D01*
X260497963Y-65863373D01*
X260515359Y-66040000D01*
X260497963Y-66216627D01*
X260446443Y-66386466D01*
X260362778Y-66542991D01*
X260333448Y-66578729D01*
X260250186Y-66680186D01*
X260148729Y-66763448D01*
X260112991Y-66792778D01*
X259956466Y-66876443D01*
X259786627Y-66927963D01*
X259720442Y-66934482D01*
X259654260Y-66941000D01*
X259565740Y-66941000D01*
X259499558Y-66934482D01*
X259433373Y-66927963D01*
X259263534Y-66876443D01*
X259107009Y-66792778D01*
X259071271Y-66763448D01*
X258969814Y-66680186D01*
X258886552Y-66578729D01*
X258857222Y-66542991D01*
X258773557Y-66386466D01*
X258722037Y-66216627D01*
X258704641Y-66040000D01*
X258722037Y-65863373D01*
X258773557Y-65693534D01*
X258857222Y-65537009D01*
X258889631Y-65497519D01*
X258969814Y-65399814D01*
X259071271Y-65316552D01*
X259107009Y-65287222D01*
X259263534Y-65203557D01*
X259433373Y-65152037D01*
X259499558Y-65145518D01*
X259565740Y-65139000D01*
X259654260Y-65139000D01*
X259720442Y-65145518D01*
X259720442Y-65145518D01*
G37*
G36*
X228766823Y-65201313D02*
G01*
X228927242Y-65249976D01*
X228994361Y-65285852D01*
X229075078Y-65328996D01*
X229204659Y-65435341D01*
X229311004Y-65564922D01*
X229311005Y-65564924D01*
X229390024Y-65712758D01*
X229438687Y-65873177D01*
X229455117Y-66040000D01*
X229438687Y-66206823D01*
X229390024Y-66367242D01*
X229349477Y-66443100D01*
X229311004Y-66515078D01*
X229204659Y-66644659D01*
X229075078Y-66751004D01*
X229075076Y-66751005D01*
X228927242Y-66830024D01*
X228766823Y-66878687D01*
X228641804Y-66891000D01*
X228558196Y-66891000D01*
X228433177Y-66878687D01*
X228272758Y-66830024D01*
X228124924Y-66751005D01*
X228124922Y-66751004D01*
X227995341Y-66644659D01*
X227888996Y-66515078D01*
X227850523Y-66443100D01*
X227809976Y-66367242D01*
X227761313Y-66206823D01*
X227744883Y-66040000D01*
X227761313Y-65873177D01*
X227809976Y-65712758D01*
X227888995Y-65564924D01*
X227888996Y-65564922D01*
X227995341Y-65435341D01*
X228124922Y-65328996D01*
X228205639Y-65285852D01*
X228272758Y-65249976D01*
X228433177Y-65201313D01*
X228558196Y-65189000D01*
X228641804Y-65189000D01*
X228766823Y-65201313D01*
X228766823Y-65201313D01*
G37*
G36*
X217418228Y-65221703D02*
G01*
X217573100Y-65285853D01*
X217712481Y-65378985D01*
X217831015Y-65497519D01*
X217924147Y-65636900D01*
X217988297Y-65791772D01*
X218021000Y-65956184D01*
X218021000Y-66123816D01*
X217988297Y-66288228D01*
X217924147Y-66443100D01*
X217831015Y-66582481D01*
X217712481Y-66701015D01*
X217573100Y-66794147D01*
X217418228Y-66858297D01*
X217253816Y-66891000D01*
X217086184Y-66891000D01*
X216921772Y-66858297D01*
X216766900Y-66794147D01*
X216627519Y-66701015D01*
X216508985Y-66582481D01*
X216415853Y-66443100D01*
X216351703Y-66288228D01*
X216319000Y-66123816D01*
X216319000Y-65956184D01*
X216351703Y-65791772D01*
X216415853Y-65636900D01*
X216508985Y-65497519D01*
X216627519Y-65378985D01*
X216766900Y-65285853D01*
X216921772Y-65221703D01*
X217086184Y-65189000D01*
X217253816Y-65189000D01*
X217418228Y-65221703D01*
X217418228Y-65221703D01*
G37*
G36*
X212338228Y-65221703D02*
G01*
X212493100Y-65285853D01*
X212632481Y-65378985D01*
X212751015Y-65497519D01*
X212844147Y-65636900D01*
X212908297Y-65791772D01*
X212941000Y-65956184D01*
X212941000Y-66123816D01*
X212908297Y-66288228D01*
X212844147Y-66443100D01*
X212751015Y-66582481D01*
X212632481Y-66701015D01*
X212493100Y-66794147D01*
X212338228Y-66858297D01*
X212173816Y-66891000D01*
X212006184Y-66891000D01*
X211841772Y-66858297D01*
X211686900Y-66794147D01*
X211547519Y-66701015D01*
X211428985Y-66582481D01*
X211335853Y-66443100D01*
X211271703Y-66288228D01*
X211239000Y-66123816D01*
X211239000Y-65956184D01*
X211271703Y-65791772D01*
X211335853Y-65636900D01*
X211428985Y-65497519D01*
X211547519Y-65378985D01*
X211686900Y-65285853D01*
X211841772Y-65221703D01*
X212006184Y-65189000D01*
X212173816Y-65189000D01*
X212338228Y-65221703D01*
X212338228Y-65221703D01*
G37*
G36*
X208528228Y-65221703D02*
G01*
X208683100Y-65285853D01*
X208822481Y-65378985D01*
X208941015Y-65497519D01*
X209034147Y-65636900D01*
X209098297Y-65791772D01*
X209131000Y-65956184D01*
X209131000Y-66123816D01*
X209098297Y-66288228D01*
X209034147Y-66443100D01*
X208941015Y-66582481D01*
X208822481Y-66701015D01*
X208683100Y-66794147D01*
X208528228Y-66858297D01*
X208363816Y-66891000D01*
X208196184Y-66891000D01*
X208031772Y-66858297D01*
X207876900Y-66794147D01*
X207737519Y-66701015D01*
X207618985Y-66582481D01*
X207525853Y-66443100D01*
X207461703Y-66288228D01*
X207429000Y-66123816D01*
X207429000Y-65956184D01*
X207461703Y-65791772D01*
X207525853Y-65636900D01*
X207618985Y-65497519D01*
X207737519Y-65378985D01*
X207876900Y-65285853D01*
X208031772Y-65221703D01*
X208196184Y-65189000D01*
X208363816Y-65189000D01*
X208528228Y-65221703D01*
X208528228Y-65221703D01*
G37*
G36*
X252896823Y-63931313D02*
G01*
X253057242Y-63979976D01*
X253189906Y-64050886D01*
X253205078Y-64058996D01*
X253334659Y-64165341D01*
X253441004Y-64294922D01*
X253441005Y-64294924D01*
X253520024Y-64442758D01*
X253568687Y-64603177D01*
X253585117Y-64770000D01*
X253568687Y-64936823D01*
X253520024Y-65097242D01*
X253490735Y-65152037D01*
X253441004Y-65245078D01*
X253334659Y-65374659D01*
X253205078Y-65481004D01*
X253205076Y-65481005D01*
X253057242Y-65560024D01*
X252896823Y-65608687D01*
X252771804Y-65621000D01*
X252688196Y-65621000D01*
X252563177Y-65608687D01*
X252402758Y-65560024D01*
X252254924Y-65481005D01*
X252254922Y-65481004D01*
X252125341Y-65374659D01*
X252018996Y-65245078D01*
X251969265Y-65152037D01*
X251939976Y-65097242D01*
X251891313Y-64936823D01*
X251874883Y-64770000D01*
X251891313Y-64603177D01*
X251939976Y-64442758D01*
X252018995Y-64294924D01*
X252018996Y-64294922D01*
X252125341Y-64165341D01*
X252254922Y-64058996D01*
X252270094Y-64050886D01*
X252402758Y-63979976D01*
X252563177Y-63931313D01*
X252688196Y-63919000D01*
X252771804Y-63919000D01*
X252896823Y-63931313D01*
X252896823Y-63931313D01*
G37*
G36*
X259720442Y-62605518D02*
G01*
X259786627Y-62612037D01*
X259956466Y-62663557D01*
X260112991Y-62747222D01*
X260148729Y-62776552D01*
X260250186Y-62859814D01*
X260330369Y-62957519D01*
X260362778Y-62997009D01*
X260446443Y-63153534D01*
X260497963Y-63323373D01*
X260515359Y-63500000D01*
X260497963Y-63676627D01*
X260446443Y-63846466D01*
X260362778Y-64002991D01*
X260333448Y-64038729D01*
X260250186Y-64140186D01*
X260148729Y-64223448D01*
X260112991Y-64252778D01*
X259956466Y-64336443D01*
X259786627Y-64387963D01*
X259720442Y-64394482D01*
X259654260Y-64401000D01*
X259565740Y-64401000D01*
X259499558Y-64394482D01*
X259433373Y-64387963D01*
X259263534Y-64336443D01*
X259107009Y-64252778D01*
X259071271Y-64223448D01*
X258969814Y-64140186D01*
X258886552Y-64038729D01*
X258857222Y-64002991D01*
X258773557Y-63846466D01*
X258722037Y-63676627D01*
X258704641Y-63500000D01*
X258722037Y-63323373D01*
X258773557Y-63153534D01*
X258857222Y-62997009D01*
X258889631Y-62957519D01*
X258969814Y-62859814D01*
X259071271Y-62776552D01*
X259107009Y-62747222D01*
X259263534Y-62663557D01*
X259433373Y-62612037D01*
X259499558Y-62605518D01*
X259565740Y-62599000D01*
X259654260Y-62599000D01*
X259720442Y-62605518D01*
X259720442Y-62605518D01*
G37*
G36*
X257180442Y-62605518D02*
G01*
X257246627Y-62612037D01*
X257416466Y-62663557D01*
X257572991Y-62747222D01*
X257608729Y-62776552D01*
X257710186Y-62859814D01*
X257790369Y-62957519D01*
X257822778Y-62997009D01*
X257906443Y-63153534D01*
X257957963Y-63323373D01*
X257975359Y-63500000D01*
X257957963Y-63676627D01*
X257906443Y-63846466D01*
X257822778Y-64002991D01*
X257793448Y-64038729D01*
X257710186Y-64140186D01*
X257608729Y-64223448D01*
X257572991Y-64252778D01*
X257416466Y-64336443D01*
X257246627Y-64387963D01*
X257180442Y-64394482D01*
X257114260Y-64401000D01*
X257025740Y-64401000D01*
X256959558Y-64394482D01*
X256893373Y-64387963D01*
X256723534Y-64336443D01*
X256567009Y-64252778D01*
X256531271Y-64223448D01*
X256429814Y-64140186D01*
X256346552Y-64038729D01*
X256317222Y-64002991D01*
X256233557Y-63846466D01*
X256182037Y-63676627D01*
X256164641Y-63500000D01*
X256182037Y-63323373D01*
X256233557Y-63153534D01*
X256317222Y-62997009D01*
X256349631Y-62957519D01*
X256429814Y-62859814D01*
X256531271Y-62776552D01*
X256567009Y-62747222D01*
X256723534Y-62663557D01*
X256893373Y-62612037D01*
X256959558Y-62605518D01*
X257025740Y-62599000D01*
X257114260Y-62599000D01*
X257180442Y-62605518D01*
X257180442Y-62605518D01*
G37*
G36*
X218688228Y-62681703D02*
G01*
X218843100Y-62745853D01*
X218982481Y-62838985D01*
X219101015Y-62957519D01*
X219194147Y-63096900D01*
X219258297Y-63251772D01*
X219291000Y-63416184D01*
X219291000Y-63583816D01*
X219258297Y-63748228D01*
X219194147Y-63903100D01*
X219101015Y-64042481D01*
X218982481Y-64161015D01*
X218843100Y-64254147D01*
X218688228Y-64318297D01*
X218523816Y-64351000D01*
X218356184Y-64351000D01*
X218191772Y-64318297D01*
X218036900Y-64254147D01*
X217897519Y-64161015D01*
X217778985Y-64042481D01*
X217685853Y-63903100D01*
X217621703Y-63748228D01*
X217589000Y-63583816D01*
X217589000Y-63416184D01*
X217621703Y-63251772D01*
X217685853Y-63096900D01*
X217778985Y-62957519D01*
X217897519Y-62838985D01*
X218036900Y-62745853D01*
X218191772Y-62681703D01*
X218356184Y-62649000D01*
X218523816Y-62649000D01*
X218688228Y-62681703D01*
X218688228Y-62681703D01*
G37*
G36*
X228848228Y-62681703D02*
G01*
X229003100Y-62745853D01*
X229142481Y-62838985D01*
X229261015Y-62957519D01*
X229354147Y-63096900D01*
X229418297Y-63251772D01*
X229451000Y-63416184D01*
X229451000Y-63583816D01*
X229418297Y-63748228D01*
X229354147Y-63903100D01*
X229261015Y-64042481D01*
X229142481Y-64161015D01*
X229003100Y-64254147D01*
X228848228Y-64318297D01*
X228683816Y-64351000D01*
X228516184Y-64351000D01*
X228351772Y-64318297D01*
X228196900Y-64254147D01*
X228057519Y-64161015D01*
X227938985Y-64042481D01*
X227845853Y-63903100D01*
X227781703Y-63748228D01*
X227749000Y-63583816D01*
X227749000Y-63416184D01*
X227781703Y-63251772D01*
X227845853Y-63096900D01*
X227938985Y-62957519D01*
X228057519Y-62838985D01*
X228196900Y-62745853D01*
X228351772Y-62681703D01*
X228516184Y-62649000D01*
X228683816Y-62649000D01*
X228848228Y-62681703D01*
X228848228Y-62681703D01*
G37*
G36*
X233968228Y-62681703D02*
G01*
X234123100Y-62745853D01*
X234262481Y-62838985D01*
X234381015Y-62957519D01*
X234474147Y-63096900D01*
X234538297Y-63251772D01*
X234571000Y-63416184D01*
X234571000Y-63583816D01*
X234538297Y-63748228D01*
X234474147Y-63903100D01*
X234381015Y-64042481D01*
X234262481Y-64161015D01*
X234123100Y-64254147D01*
X233968228Y-64318297D01*
X233803816Y-64351000D01*
X233636184Y-64351000D01*
X233471772Y-64318297D01*
X233316900Y-64254147D01*
X233177519Y-64161015D01*
X233058985Y-64042481D01*
X232965853Y-63903100D01*
X232901703Y-63748228D01*
X232869000Y-63583816D01*
X232869000Y-63416184D01*
X232901703Y-63251772D01*
X232965853Y-63096900D01*
X233058985Y-62957519D01*
X233177519Y-62838985D01*
X233316900Y-62745853D01*
X233471772Y-62681703D01*
X233636184Y-62649000D01*
X233803816Y-62649000D01*
X233968228Y-62681703D01*
X233968228Y-62681703D01*
G37*
G36*
X236468228Y-62681703D02*
G01*
X236623100Y-62745853D01*
X236762481Y-62838985D01*
X236881015Y-62957519D01*
X236974147Y-63096900D01*
X237038297Y-63251772D01*
X237071000Y-63416184D01*
X237071000Y-63583816D01*
X237038297Y-63748228D01*
X236974147Y-63903100D01*
X236881015Y-64042481D01*
X236762481Y-64161015D01*
X236623100Y-64254147D01*
X236468228Y-64318297D01*
X236303816Y-64351000D01*
X236136184Y-64351000D01*
X235971772Y-64318297D01*
X235816900Y-64254147D01*
X235677519Y-64161015D01*
X235558985Y-64042481D01*
X235465853Y-63903100D01*
X235401703Y-63748228D01*
X235369000Y-63583816D01*
X235369000Y-63416184D01*
X235401703Y-63251772D01*
X235465853Y-63096900D01*
X235558985Y-62957519D01*
X235677519Y-62838985D01*
X235816900Y-62745853D01*
X235971772Y-62681703D01*
X236136184Y-62649000D01*
X236303816Y-62649000D01*
X236468228Y-62681703D01*
X236468228Y-62681703D01*
G37*
G36*
X226106823Y-62661313D02*
G01*
X226267242Y-62709976D01*
X226334361Y-62745852D01*
X226415078Y-62788996D01*
X226544659Y-62895341D01*
X226651004Y-63024922D01*
X226651005Y-63024924D01*
X226730024Y-63172758D01*
X226778687Y-63333177D01*
X226795117Y-63500000D01*
X226778687Y-63666823D01*
X226730024Y-63827242D01*
X226689477Y-63903100D01*
X226651004Y-63975078D01*
X226544659Y-64104659D01*
X226415078Y-64211004D01*
X226415076Y-64211005D01*
X226267242Y-64290024D01*
X226106823Y-64338687D01*
X225981804Y-64351000D01*
X225898196Y-64351000D01*
X225773177Y-64338687D01*
X225612758Y-64290024D01*
X225464924Y-64211005D01*
X225464922Y-64211004D01*
X225335341Y-64104659D01*
X225228996Y-63975078D01*
X225190523Y-63903100D01*
X225149976Y-63827242D01*
X225101313Y-63666823D01*
X225084883Y-63500000D01*
X225101313Y-63333177D01*
X225149976Y-63172758D01*
X225228995Y-63024924D01*
X225228996Y-63024922D01*
X225335341Y-62895341D01*
X225464922Y-62788996D01*
X225545639Y-62745852D01*
X225612758Y-62709976D01*
X225773177Y-62661313D01*
X225898196Y-62649000D01*
X225981804Y-62649000D01*
X226106823Y-62661313D01*
X226106823Y-62661313D01*
G37*
G36*
X257180442Y-60065518D02*
G01*
X257246627Y-60072037D01*
X257416466Y-60123557D01*
X257572991Y-60207222D01*
X257603768Y-60232480D01*
X257710186Y-60319814D01*
X257793448Y-60421271D01*
X257822778Y-60457009D01*
X257906443Y-60613534D01*
X257957963Y-60783373D01*
X257975359Y-60960000D01*
X257957963Y-61136627D01*
X257906443Y-61306466D01*
X257822778Y-61462991D01*
X257793448Y-61498729D01*
X257710186Y-61600186D01*
X257608729Y-61683448D01*
X257572991Y-61712778D01*
X257416466Y-61796443D01*
X257246627Y-61847963D01*
X257180443Y-61854481D01*
X257114260Y-61861000D01*
X257025740Y-61861000D01*
X256959557Y-61854481D01*
X256893373Y-61847963D01*
X256723534Y-61796443D01*
X256567009Y-61712778D01*
X256531271Y-61683448D01*
X256429814Y-61600186D01*
X256346552Y-61498729D01*
X256317222Y-61462991D01*
X256233557Y-61306466D01*
X256182037Y-61136627D01*
X256164641Y-60960000D01*
X256182037Y-60783373D01*
X256233557Y-60613534D01*
X256317222Y-60457009D01*
X256346552Y-60421271D01*
X256429814Y-60319814D01*
X256536232Y-60232480D01*
X256567009Y-60207222D01*
X256723534Y-60123557D01*
X256893373Y-60072037D01*
X256959558Y-60065518D01*
X257025740Y-60059000D01*
X257114260Y-60059000D01*
X257180442Y-60065518D01*
X257180442Y-60065518D01*
G37*
G36*
X259720442Y-60065518D02*
G01*
X259786627Y-60072037D01*
X259956466Y-60123557D01*
X260112991Y-60207222D01*
X260143768Y-60232480D01*
X260250186Y-60319814D01*
X260333448Y-60421271D01*
X260362778Y-60457009D01*
X260446443Y-60613534D01*
X260497963Y-60783373D01*
X260515359Y-60960000D01*
X260497963Y-61136627D01*
X260446443Y-61306466D01*
X260362778Y-61462991D01*
X260333448Y-61498729D01*
X260250186Y-61600186D01*
X260148729Y-61683448D01*
X260112991Y-61712778D01*
X259956466Y-61796443D01*
X259786627Y-61847963D01*
X259720443Y-61854481D01*
X259654260Y-61861000D01*
X259565740Y-61861000D01*
X259499557Y-61854481D01*
X259433373Y-61847963D01*
X259263534Y-61796443D01*
X259107009Y-61712778D01*
X259071271Y-61683448D01*
X258969814Y-61600186D01*
X258886552Y-61498729D01*
X258857222Y-61462991D01*
X258773557Y-61306466D01*
X258722037Y-61136627D01*
X258704641Y-60960000D01*
X258722037Y-60783373D01*
X258773557Y-60613534D01*
X258857222Y-60457009D01*
X258886552Y-60421271D01*
X258969814Y-60319814D01*
X259076232Y-60232480D01*
X259107009Y-60207222D01*
X259263534Y-60123557D01*
X259433373Y-60072037D01*
X259499558Y-60065518D01*
X259565740Y-60059000D01*
X259654260Y-60059000D01*
X259720442Y-60065518D01*
X259720442Y-60065518D01*
G37*
G36*
X243906823Y-58851313D02*
G01*
X244067242Y-58899976D01*
X244134361Y-58935852D01*
X244215078Y-58978996D01*
X244344659Y-59085341D01*
X244451004Y-59214922D01*
X244451005Y-59214924D01*
X244530024Y-59362758D01*
X244578687Y-59523177D01*
X244595117Y-59690000D01*
X244578687Y-59856823D01*
X244530024Y-60017242D01*
X244489477Y-60093100D01*
X244451004Y-60165078D01*
X244344659Y-60294659D01*
X244215078Y-60401004D01*
X244215076Y-60401005D01*
X244067242Y-60480024D01*
X243906823Y-60528687D01*
X243781804Y-60541000D01*
X243698196Y-60541000D01*
X243573177Y-60528687D01*
X243412758Y-60480024D01*
X243264924Y-60401005D01*
X243264922Y-60401004D01*
X243135341Y-60294659D01*
X243028996Y-60165078D01*
X242990523Y-60093100D01*
X242949976Y-60017242D01*
X242901313Y-59856823D01*
X242884883Y-59690000D01*
X242901313Y-59523177D01*
X242949976Y-59362758D01*
X243028995Y-59214924D01*
X243028996Y-59214922D01*
X243135341Y-59085341D01*
X243264922Y-58978996D01*
X243345639Y-58935852D01*
X243412758Y-58899976D01*
X243573177Y-58851313D01*
X243698196Y-58839000D01*
X243781804Y-58839000D01*
X243906823Y-58851313D01*
X243906823Y-58851313D01*
G37*
G36*
X241448228Y-58871703D02*
G01*
X241603100Y-58935853D01*
X241742481Y-59028985D01*
X241861015Y-59147519D01*
X241954147Y-59286900D01*
X242018297Y-59441772D01*
X242051000Y-59606184D01*
X242051000Y-59773816D01*
X242018297Y-59938228D01*
X241954147Y-60093100D01*
X241861015Y-60232481D01*
X241742481Y-60351015D01*
X241603100Y-60444147D01*
X241448228Y-60508297D01*
X241283816Y-60541000D01*
X241116184Y-60541000D01*
X240951772Y-60508297D01*
X240796900Y-60444147D01*
X240657519Y-60351015D01*
X240538985Y-60232481D01*
X240445853Y-60093100D01*
X240381703Y-59938228D01*
X240349000Y-59773816D01*
X240349000Y-59606184D01*
X240381703Y-59441772D01*
X240445853Y-59286900D01*
X240538985Y-59147519D01*
X240657519Y-59028985D01*
X240796900Y-58935853D01*
X240951772Y-58871703D01*
X241116184Y-58839000D01*
X241283816Y-58839000D01*
X241448228Y-58871703D01*
X241448228Y-58871703D01*
G37*
G36*
X236386823Y-58851313D02*
G01*
X236547242Y-58899976D01*
X236614361Y-58935852D01*
X236695078Y-58978996D01*
X236824659Y-59085341D01*
X236931004Y-59214922D01*
X236931005Y-59214924D01*
X237010024Y-59362758D01*
X237058687Y-59523177D01*
X237075117Y-59690000D01*
X237058687Y-59856823D01*
X237010024Y-60017242D01*
X236969477Y-60093100D01*
X236931004Y-60165078D01*
X236824659Y-60294659D01*
X236695078Y-60401004D01*
X236695076Y-60401005D01*
X236547242Y-60480024D01*
X236386823Y-60528687D01*
X236261804Y-60541000D01*
X236178196Y-60541000D01*
X236053177Y-60528687D01*
X235892758Y-60480024D01*
X235744924Y-60401005D01*
X235744922Y-60401004D01*
X235615341Y-60294659D01*
X235508996Y-60165078D01*
X235470523Y-60093100D01*
X235429976Y-60017242D01*
X235381313Y-59856823D01*
X235364883Y-59690000D01*
X235381313Y-59523177D01*
X235429976Y-59362758D01*
X235508995Y-59214924D01*
X235508996Y-59214922D01*
X235615341Y-59085341D01*
X235744922Y-58978996D01*
X235825639Y-58935852D01*
X235892758Y-58899976D01*
X236053177Y-58851313D01*
X236178196Y-58839000D01*
X236261804Y-58839000D01*
X236386823Y-58851313D01*
X236386823Y-58851313D01*
G37*
G36*
X226226823Y-58851313D02*
G01*
X226387242Y-58899976D01*
X226454361Y-58935852D01*
X226535078Y-58978996D01*
X226664659Y-59085341D01*
X226771004Y-59214922D01*
X226771005Y-59214924D01*
X226850024Y-59362758D01*
X226898687Y-59523177D01*
X226915117Y-59690000D01*
X226898687Y-59856823D01*
X226850024Y-60017242D01*
X226809477Y-60093100D01*
X226771004Y-60165078D01*
X226664659Y-60294659D01*
X226535078Y-60401004D01*
X226535076Y-60401005D01*
X226387242Y-60480024D01*
X226226823Y-60528687D01*
X226101804Y-60541000D01*
X226018196Y-60541000D01*
X225893177Y-60528687D01*
X225732758Y-60480024D01*
X225584924Y-60401005D01*
X225584922Y-60401004D01*
X225455341Y-60294659D01*
X225348996Y-60165078D01*
X225310523Y-60093100D01*
X225269976Y-60017242D01*
X225221313Y-59856823D01*
X225204883Y-59690000D01*
X225221313Y-59523177D01*
X225269976Y-59362758D01*
X225348995Y-59214924D01*
X225348996Y-59214922D01*
X225455341Y-59085341D01*
X225584922Y-58978996D01*
X225665639Y-58935852D01*
X225732758Y-58899976D01*
X225893177Y-58851313D01*
X226018196Y-58839000D01*
X226101804Y-58839000D01*
X226226823Y-58851313D01*
X226226823Y-58851313D01*
G37*
G36*
X217418228Y-58871703D02*
G01*
X217573100Y-58935853D01*
X217712481Y-59028985D01*
X217831015Y-59147519D01*
X217924147Y-59286900D01*
X217988297Y-59441772D01*
X218021000Y-59606184D01*
X218021000Y-59773816D01*
X217988297Y-59938228D01*
X217924147Y-60093100D01*
X217831015Y-60232481D01*
X217712481Y-60351015D01*
X217573100Y-60444147D01*
X217418228Y-60508297D01*
X217253816Y-60541000D01*
X217086184Y-60541000D01*
X216921772Y-60508297D01*
X216766900Y-60444147D01*
X216627519Y-60351015D01*
X216508985Y-60232481D01*
X216415853Y-60093100D01*
X216351703Y-59938228D01*
X216319000Y-59773816D01*
X216319000Y-59606184D01*
X216351703Y-59441772D01*
X216415853Y-59286900D01*
X216508985Y-59147519D01*
X216627519Y-59028985D01*
X216766900Y-58935853D01*
X216921772Y-58871703D01*
X217086184Y-58839000D01*
X217253816Y-58839000D01*
X217418228Y-58871703D01*
X217418228Y-58871703D01*
G37*
G36*
X228766823Y-58851313D02*
G01*
X228927242Y-58899976D01*
X228994361Y-58935852D01*
X229075078Y-58978996D01*
X229204659Y-59085341D01*
X229311004Y-59214922D01*
X229311005Y-59214924D01*
X229390024Y-59362758D01*
X229438687Y-59523177D01*
X229455117Y-59690000D01*
X229438687Y-59856823D01*
X229390024Y-60017242D01*
X229349477Y-60093100D01*
X229311004Y-60165078D01*
X229204659Y-60294659D01*
X229075078Y-60401004D01*
X229075076Y-60401005D01*
X228927242Y-60480024D01*
X228766823Y-60528687D01*
X228641804Y-60541000D01*
X228558196Y-60541000D01*
X228433177Y-60528687D01*
X228272758Y-60480024D01*
X228124924Y-60401005D01*
X228124922Y-60401004D01*
X227995341Y-60294659D01*
X227888996Y-60165078D01*
X227850523Y-60093100D01*
X227809976Y-60017242D01*
X227761313Y-59856823D01*
X227744883Y-59690000D01*
X227761313Y-59523177D01*
X227809976Y-59362758D01*
X227888995Y-59214924D01*
X227888996Y-59214922D01*
X227995341Y-59085341D01*
X228124922Y-58978996D01*
X228205639Y-58935852D01*
X228272758Y-58899976D01*
X228433177Y-58851313D01*
X228558196Y-58839000D01*
X228641804Y-58839000D01*
X228766823Y-58851313D01*
X228766823Y-58851313D01*
G37*
G36*
X231306823Y-58851313D02*
G01*
X231467242Y-58899976D01*
X231534361Y-58935852D01*
X231615078Y-58978996D01*
X231744659Y-59085341D01*
X231851004Y-59214922D01*
X231851005Y-59214924D01*
X231930024Y-59362758D01*
X231978687Y-59523177D01*
X231995117Y-59690000D01*
X231978687Y-59856823D01*
X231930024Y-60017242D01*
X231889477Y-60093100D01*
X231851004Y-60165078D01*
X231744659Y-60294659D01*
X231615078Y-60401004D01*
X231615076Y-60401005D01*
X231467242Y-60480024D01*
X231306823Y-60528687D01*
X231181804Y-60541000D01*
X231098196Y-60541000D01*
X230973177Y-60528687D01*
X230812758Y-60480024D01*
X230664924Y-60401005D01*
X230664922Y-60401004D01*
X230535341Y-60294659D01*
X230428996Y-60165078D01*
X230390523Y-60093100D01*
X230349976Y-60017242D01*
X230301313Y-59856823D01*
X230284883Y-59690000D01*
X230301313Y-59523177D01*
X230349976Y-59362758D01*
X230428995Y-59214924D01*
X230428996Y-59214922D01*
X230535341Y-59085341D01*
X230664922Y-58978996D01*
X230745639Y-58935852D01*
X230812758Y-58899976D01*
X230973177Y-58851313D01*
X231098196Y-58839000D01*
X231181804Y-58839000D01*
X231306823Y-58851313D01*
X231306823Y-58851313D01*
G37*
G36*
X233846823Y-58851313D02*
G01*
X234007242Y-58899976D01*
X234074361Y-58935852D01*
X234155078Y-58978996D01*
X234284659Y-59085341D01*
X234391004Y-59214922D01*
X234391005Y-59214924D01*
X234470024Y-59362758D01*
X234518687Y-59523177D01*
X234535117Y-59690000D01*
X234518687Y-59856823D01*
X234470024Y-60017242D01*
X234429477Y-60093100D01*
X234391004Y-60165078D01*
X234284659Y-60294659D01*
X234155078Y-60401004D01*
X234155076Y-60401005D01*
X234007242Y-60480024D01*
X233846823Y-60528687D01*
X233721804Y-60541000D01*
X233638196Y-60541000D01*
X233513177Y-60528687D01*
X233352758Y-60480024D01*
X233204924Y-60401005D01*
X233204922Y-60401004D01*
X233075341Y-60294659D01*
X232968996Y-60165078D01*
X232930523Y-60093100D01*
X232889976Y-60017242D01*
X232841313Y-59856823D01*
X232824883Y-59690000D01*
X232841313Y-59523177D01*
X232889976Y-59362758D01*
X232968995Y-59214924D01*
X232968996Y-59214922D01*
X233075341Y-59085341D01*
X233204922Y-58978996D01*
X233285639Y-58935852D01*
X233352758Y-58899976D01*
X233513177Y-58851313D01*
X233638196Y-58839000D01*
X233721804Y-58839000D01*
X233846823Y-58851313D01*
X233846823Y-58851313D01*
G37*
G36*
X213526823Y-58851313D02*
G01*
X213687242Y-58899976D01*
X213754361Y-58935852D01*
X213835078Y-58978996D01*
X213964659Y-59085341D01*
X214071004Y-59214922D01*
X214071005Y-59214924D01*
X214150024Y-59362758D01*
X214198687Y-59523177D01*
X214215117Y-59690000D01*
X214198687Y-59856823D01*
X214150024Y-60017242D01*
X214109477Y-60093100D01*
X214071004Y-60165078D01*
X213964659Y-60294659D01*
X213835078Y-60401004D01*
X213835076Y-60401005D01*
X213687242Y-60480024D01*
X213526823Y-60528687D01*
X213401804Y-60541000D01*
X213318196Y-60541000D01*
X213193177Y-60528687D01*
X213032758Y-60480024D01*
X212884924Y-60401005D01*
X212884922Y-60401004D01*
X212755341Y-60294659D01*
X212648996Y-60165078D01*
X212610523Y-60093100D01*
X212569976Y-60017242D01*
X212521313Y-59856823D01*
X212504883Y-59690000D01*
X212521313Y-59523177D01*
X212569976Y-59362758D01*
X212648995Y-59214924D01*
X212648996Y-59214922D01*
X212755341Y-59085341D01*
X212884922Y-58978996D01*
X212965639Y-58935852D01*
X213032758Y-58899976D01*
X213193177Y-58851313D01*
X213318196Y-58839000D01*
X213401804Y-58839000D01*
X213526823Y-58851313D01*
X213526823Y-58851313D01*
G37*
G36*
X223686823Y-58851313D02*
G01*
X223847242Y-58899976D01*
X223914361Y-58935852D01*
X223995078Y-58978996D01*
X224124659Y-59085341D01*
X224231004Y-59214922D01*
X224231005Y-59214924D01*
X224310024Y-59362758D01*
X224358687Y-59523177D01*
X224375117Y-59690000D01*
X224358687Y-59856823D01*
X224310024Y-60017242D01*
X224269477Y-60093100D01*
X224231004Y-60165078D01*
X224124659Y-60294659D01*
X223995078Y-60401004D01*
X223995076Y-60401005D01*
X223847242Y-60480024D01*
X223686823Y-60528687D01*
X223561804Y-60541000D01*
X223478196Y-60541000D01*
X223353177Y-60528687D01*
X223192758Y-60480024D01*
X223044924Y-60401005D01*
X223044922Y-60401004D01*
X222915341Y-60294659D01*
X222808996Y-60165078D01*
X222770523Y-60093100D01*
X222729976Y-60017242D01*
X222681313Y-59856823D01*
X222664883Y-59690000D01*
X222681313Y-59523177D01*
X222729976Y-59362758D01*
X222808995Y-59214924D01*
X222808996Y-59214922D01*
X222915341Y-59085341D01*
X223044922Y-58978996D01*
X223125639Y-58935852D01*
X223192758Y-58899976D01*
X223353177Y-58851313D01*
X223478196Y-58839000D01*
X223561804Y-58839000D01*
X223686823Y-58851313D01*
X223686823Y-58851313D01*
G37*
G36*
X221146823Y-58851313D02*
G01*
X221307242Y-58899976D01*
X221374361Y-58935852D01*
X221455078Y-58978996D01*
X221584659Y-59085341D01*
X221691004Y-59214922D01*
X221691005Y-59214924D01*
X221770024Y-59362758D01*
X221818687Y-59523177D01*
X221835117Y-59690000D01*
X221818687Y-59856823D01*
X221770024Y-60017242D01*
X221729477Y-60093100D01*
X221691004Y-60165078D01*
X221584659Y-60294659D01*
X221455078Y-60401004D01*
X221455076Y-60401005D01*
X221307242Y-60480024D01*
X221146823Y-60528687D01*
X221021804Y-60541000D01*
X220938196Y-60541000D01*
X220813177Y-60528687D01*
X220652758Y-60480024D01*
X220504924Y-60401005D01*
X220504922Y-60401004D01*
X220375341Y-60294659D01*
X220268996Y-60165078D01*
X220230523Y-60093100D01*
X220189976Y-60017242D01*
X220141313Y-59856823D01*
X220124883Y-59690000D01*
X220141313Y-59523177D01*
X220189976Y-59362758D01*
X220268995Y-59214924D01*
X220268996Y-59214922D01*
X220375341Y-59085341D01*
X220504922Y-58978996D01*
X220585639Y-58935852D01*
X220652758Y-58899976D01*
X220813177Y-58851313D01*
X220938196Y-58839000D01*
X221021804Y-58839000D01*
X221146823Y-58851313D01*
X221146823Y-58851313D01*
G37*
G36*
X200826823Y-58851313D02*
G01*
X200987242Y-58899976D01*
X201054361Y-58935852D01*
X201135078Y-58978996D01*
X201264659Y-59085341D01*
X201371004Y-59214922D01*
X201371005Y-59214924D01*
X201450024Y-59362758D01*
X201498687Y-59523177D01*
X201515117Y-59690000D01*
X201498687Y-59856823D01*
X201450024Y-60017242D01*
X201409477Y-60093100D01*
X201371004Y-60165078D01*
X201264659Y-60294659D01*
X201135078Y-60401004D01*
X201135076Y-60401005D01*
X200987242Y-60480024D01*
X200826823Y-60528687D01*
X200701804Y-60541000D01*
X200618196Y-60541000D01*
X200493177Y-60528687D01*
X200332758Y-60480024D01*
X200184924Y-60401005D01*
X200184922Y-60401004D01*
X200055341Y-60294659D01*
X199948996Y-60165078D01*
X199910523Y-60093100D01*
X199869976Y-60017242D01*
X199821313Y-59856823D01*
X199804883Y-59690000D01*
X199821313Y-59523177D01*
X199869976Y-59362758D01*
X199948995Y-59214924D01*
X199948996Y-59214922D01*
X200055341Y-59085341D01*
X200184922Y-58978996D01*
X200265639Y-58935852D01*
X200332758Y-58899976D01*
X200493177Y-58851313D01*
X200618196Y-58839000D01*
X200701804Y-58839000D01*
X200826823Y-58851313D01*
X200826823Y-58851313D01*
G37*
G36*
X195746823Y-58851313D02*
G01*
X195907242Y-58899976D01*
X195974361Y-58935852D01*
X196055078Y-58978996D01*
X196184659Y-59085341D01*
X196291004Y-59214922D01*
X196291005Y-59214924D01*
X196370024Y-59362758D01*
X196418687Y-59523177D01*
X196435117Y-59690000D01*
X196418687Y-59856823D01*
X196370024Y-60017242D01*
X196329477Y-60093100D01*
X196291004Y-60165078D01*
X196184659Y-60294659D01*
X196055078Y-60401004D01*
X196055076Y-60401005D01*
X195907242Y-60480024D01*
X195746823Y-60528687D01*
X195621804Y-60541000D01*
X195538196Y-60541000D01*
X195413177Y-60528687D01*
X195252758Y-60480024D01*
X195104924Y-60401005D01*
X195104922Y-60401004D01*
X194975341Y-60294659D01*
X194868996Y-60165078D01*
X194830523Y-60093100D01*
X194789976Y-60017242D01*
X194741313Y-59856823D01*
X194724883Y-59690000D01*
X194741313Y-59523177D01*
X194789976Y-59362758D01*
X194868995Y-59214924D01*
X194868996Y-59214922D01*
X194975341Y-59085341D01*
X195104922Y-58978996D01*
X195185639Y-58935852D01*
X195252758Y-58899976D01*
X195413177Y-58851313D01*
X195538196Y-58839000D01*
X195621804Y-58839000D01*
X195746823Y-58851313D01*
X195746823Y-58851313D01*
G37*
G36*
X210986823Y-58851313D02*
G01*
X211147242Y-58899976D01*
X211214361Y-58935852D01*
X211295078Y-58978996D01*
X211424659Y-59085341D01*
X211531004Y-59214922D01*
X211531005Y-59214924D01*
X211610024Y-59362758D01*
X211658687Y-59523177D01*
X211675117Y-59690000D01*
X211658687Y-59856823D01*
X211610024Y-60017242D01*
X211569477Y-60093100D01*
X211531004Y-60165078D01*
X211424659Y-60294659D01*
X211295078Y-60401004D01*
X211295076Y-60401005D01*
X211147242Y-60480024D01*
X210986823Y-60528687D01*
X210861804Y-60541000D01*
X210778196Y-60541000D01*
X210653177Y-60528687D01*
X210492758Y-60480024D01*
X210344924Y-60401005D01*
X210344922Y-60401004D01*
X210215341Y-60294659D01*
X210108996Y-60165078D01*
X210070523Y-60093100D01*
X210029976Y-60017242D01*
X209981313Y-59856823D01*
X209964883Y-59690000D01*
X209981313Y-59523177D01*
X210029976Y-59362758D01*
X210108995Y-59214924D01*
X210108996Y-59214922D01*
X210215341Y-59085341D01*
X210344922Y-58978996D01*
X210425639Y-58935852D01*
X210492758Y-58899976D01*
X210653177Y-58851313D01*
X210778196Y-58839000D01*
X210861804Y-58839000D01*
X210986823Y-58851313D01*
X210986823Y-58851313D01*
G37*
G36*
X208446823Y-58851313D02*
G01*
X208607242Y-58899976D01*
X208674361Y-58935852D01*
X208755078Y-58978996D01*
X208884659Y-59085341D01*
X208991004Y-59214922D01*
X208991005Y-59214924D01*
X209070024Y-59362758D01*
X209118687Y-59523177D01*
X209135117Y-59690000D01*
X209118687Y-59856823D01*
X209070024Y-60017242D01*
X209029477Y-60093100D01*
X208991004Y-60165078D01*
X208884659Y-60294659D01*
X208755078Y-60401004D01*
X208755076Y-60401005D01*
X208607242Y-60480024D01*
X208446823Y-60528687D01*
X208321804Y-60541000D01*
X208238196Y-60541000D01*
X208113177Y-60528687D01*
X207952758Y-60480024D01*
X207804924Y-60401005D01*
X207804922Y-60401004D01*
X207675341Y-60294659D01*
X207568996Y-60165078D01*
X207530523Y-60093100D01*
X207489976Y-60017242D01*
X207441313Y-59856823D01*
X207424883Y-59690000D01*
X207441313Y-59523177D01*
X207489976Y-59362758D01*
X207568995Y-59214924D01*
X207568996Y-59214922D01*
X207675341Y-59085341D01*
X207804922Y-58978996D01*
X207885639Y-58935852D01*
X207952758Y-58899976D01*
X208113177Y-58851313D01*
X208238196Y-58839000D01*
X208321804Y-58839000D01*
X208446823Y-58851313D01*
X208446823Y-58851313D01*
G37*
G36*
X205906823Y-58851313D02*
G01*
X206067242Y-58899976D01*
X206134361Y-58935852D01*
X206215078Y-58978996D01*
X206344659Y-59085341D01*
X206451004Y-59214922D01*
X206451005Y-59214924D01*
X206530024Y-59362758D01*
X206578687Y-59523177D01*
X206595117Y-59690000D01*
X206578687Y-59856823D01*
X206530024Y-60017242D01*
X206489477Y-60093100D01*
X206451004Y-60165078D01*
X206344659Y-60294659D01*
X206215078Y-60401004D01*
X206215076Y-60401005D01*
X206067242Y-60480024D01*
X205906823Y-60528687D01*
X205781804Y-60541000D01*
X205698196Y-60541000D01*
X205573177Y-60528687D01*
X205412758Y-60480024D01*
X205264924Y-60401005D01*
X205264922Y-60401004D01*
X205135341Y-60294659D01*
X205028996Y-60165078D01*
X204990523Y-60093100D01*
X204949976Y-60017242D01*
X204901313Y-59856823D01*
X204884883Y-59690000D01*
X204901313Y-59523177D01*
X204949976Y-59362758D01*
X205028995Y-59214924D01*
X205028996Y-59214922D01*
X205135341Y-59085341D01*
X205264922Y-58978996D01*
X205345639Y-58935852D01*
X205412758Y-58899976D01*
X205573177Y-58851313D01*
X205698196Y-58839000D01*
X205781804Y-58839000D01*
X205906823Y-58851313D01*
X205906823Y-58851313D01*
G37*
G36*
X203366823Y-58851313D02*
G01*
X203527242Y-58899976D01*
X203594361Y-58935852D01*
X203675078Y-58978996D01*
X203804659Y-59085341D01*
X203911004Y-59214922D01*
X203911005Y-59214924D01*
X203990024Y-59362758D01*
X204038687Y-59523177D01*
X204055117Y-59690000D01*
X204038687Y-59856823D01*
X203990024Y-60017242D01*
X203949477Y-60093100D01*
X203911004Y-60165078D01*
X203804659Y-60294659D01*
X203675078Y-60401004D01*
X203675076Y-60401005D01*
X203527242Y-60480024D01*
X203366823Y-60528687D01*
X203241804Y-60541000D01*
X203158196Y-60541000D01*
X203033177Y-60528687D01*
X202872758Y-60480024D01*
X202724924Y-60401005D01*
X202724922Y-60401004D01*
X202595341Y-60294659D01*
X202488996Y-60165078D01*
X202450523Y-60093100D01*
X202409976Y-60017242D01*
X202361313Y-59856823D01*
X202344883Y-59690000D01*
X202361313Y-59523177D01*
X202409976Y-59362758D01*
X202488995Y-59214924D01*
X202488996Y-59214922D01*
X202595341Y-59085341D01*
X202724922Y-58978996D01*
X202805639Y-58935852D01*
X202872758Y-58899976D01*
X203033177Y-58851313D01*
X203158196Y-58839000D01*
X203241804Y-58839000D01*
X203366823Y-58851313D01*
X203366823Y-58851313D01*
G37*
G36*
X198286823Y-58851313D02*
G01*
X198447242Y-58899976D01*
X198514361Y-58935852D01*
X198595078Y-58978996D01*
X198724659Y-59085341D01*
X198831004Y-59214922D01*
X198831005Y-59214924D01*
X198910024Y-59362758D01*
X198958687Y-59523177D01*
X198975117Y-59690000D01*
X198958687Y-59856823D01*
X198910024Y-60017242D01*
X198869477Y-60093100D01*
X198831004Y-60165078D01*
X198724659Y-60294659D01*
X198595078Y-60401004D01*
X198595076Y-60401005D01*
X198447242Y-60480024D01*
X198286823Y-60528687D01*
X198161804Y-60541000D01*
X198078196Y-60541000D01*
X197953177Y-60528687D01*
X197792758Y-60480024D01*
X197644924Y-60401005D01*
X197644922Y-60401004D01*
X197515341Y-60294659D01*
X197408996Y-60165078D01*
X197370523Y-60093100D01*
X197329976Y-60017242D01*
X197281313Y-59856823D01*
X197264883Y-59690000D01*
X197281313Y-59523177D01*
X197329976Y-59362758D01*
X197408995Y-59214924D01*
X197408996Y-59214922D01*
X197515341Y-59085341D01*
X197644922Y-58978996D01*
X197725639Y-58935852D01*
X197792758Y-58899976D01*
X197953177Y-58851313D01*
X198078196Y-58839000D01*
X198161804Y-58839000D01*
X198286823Y-58851313D01*
X198286823Y-58851313D01*
G37*
G36*
X257971000Y-59321000D02*
G01*
X256169000Y-59321000D01*
X256169000Y-57519000D01*
X257971000Y-57519000D01*
X257971000Y-59321000D01*
X257971000Y-59321000D01*
G37*
G36*
X259720443Y-57525519D02*
G01*
X259786627Y-57532037D01*
X259956466Y-57583557D01*
X260112991Y-57667222D01*
X260148729Y-57696552D01*
X260250186Y-57779814D01*
X260333448Y-57881271D01*
X260362778Y-57917009D01*
X260446443Y-58073534D01*
X260497963Y-58243373D01*
X260515359Y-58420000D01*
X260497963Y-58596627D01*
X260446443Y-58766466D01*
X260362778Y-58922991D01*
X260352223Y-58935852D01*
X260250186Y-59060186D01*
X260148729Y-59143448D01*
X260112991Y-59172778D01*
X259956466Y-59256443D01*
X259786627Y-59307963D01*
X259720442Y-59314482D01*
X259654260Y-59321000D01*
X259565740Y-59321000D01*
X259499558Y-59314482D01*
X259433373Y-59307963D01*
X259263534Y-59256443D01*
X259107009Y-59172778D01*
X259071271Y-59143448D01*
X258969814Y-59060186D01*
X258867777Y-58935852D01*
X258857222Y-58922991D01*
X258773557Y-58766466D01*
X258722037Y-58596627D01*
X258704641Y-58420000D01*
X258722037Y-58243373D01*
X258773557Y-58073534D01*
X258857222Y-57917009D01*
X258886552Y-57881271D01*
X258969814Y-57779814D01*
X259071271Y-57696552D01*
X259107009Y-57667222D01*
X259263534Y-57583557D01*
X259433373Y-57532037D01*
X259499557Y-57525519D01*
X259565740Y-57519000D01*
X259654260Y-57519000D01*
X259720443Y-57525519D01*
X259720443Y-57525519D01*
G37*
G36*
X259912585Y-51818802D02*
G01*
X260062410Y-51848604D01*
X260344674Y-51965521D01*
X260598705Y-52135259D01*
X260814741Y-52351295D01*
X260984479Y-52605326D01*
X261101396Y-52887590D01*
X261161000Y-53187240D01*
X261161000Y-53492760D01*
X261101396Y-53792410D01*
X260984479Y-54074674D01*
X260814741Y-54328705D01*
X260598705Y-54544741D01*
X260344674Y-54714479D01*
X260062410Y-54831396D01*
X259912585Y-54861198D01*
X259762761Y-54891000D01*
X259457239Y-54891000D01*
X259307415Y-54861198D01*
X259157590Y-54831396D01*
X258875326Y-54714479D01*
X258621295Y-54544741D01*
X258405259Y-54328705D01*
X258235521Y-54074674D01*
X258118604Y-53792410D01*
X258059000Y-53492760D01*
X258059000Y-53187240D01*
X258118604Y-52887590D01*
X258235521Y-52605326D01*
X258405259Y-52351295D01*
X258621295Y-52135259D01*
X258875326Y-51965521D01*
X259157590Y-51848604D01*
X259307415Y-51818802D01*
X259457239Y-51789000D01*
X259762761Y-51789000D01*
X259912585Y-51818802D01*
X259912585Y-51818802D01*
G37*
G36*
X256106416Y-52329879D02*
G01*
X256297592Y-52409067D01*
X256297594Y-52409068D01*
X256469648Y-52524031D01*
X256615969Y-52670352D01*
X256718732Y-52824147D01*
X256730933Y-52842408D01*
X256810121Y-53033584D01*
X256850490Y-53236534D01*
X256850490Y-53443466D01*
X256810121Y-53646416D01*
X256749648Y-53792409D01*
X256730932Y-53837594D01*
X256615969Y-54009648D01*
X256469648Y-54155969D01*
X256297594Y-54270932D01*
X256297593Y-54270933D01*
X256297592Y-54270933D01*
X256106416Y-54350121D01*
X255903466Y-54390490D01*
X255696534Y-54390490D01*
X255493584Y-54350121D01*
X255302408Y-54270933D01*
X255302407Y-54270933D01*
X255302406Y-54270932D01*
X255130352Y-54155969D01*
X254984031Y-54009648D01*
X254869068Y-53837594D01*
X254850352Y-53792409D01*
X254789879Y-53646416D01*
X254749510Y-53443466D01*
X254749510Y-53236534D01*
X254789879Y-53033584D01*
X254869067Y-52842408D01*
X254881269Y-52824147D01*
X254984031Y-52670352D01*
X255130352Y-52524031D01*
X255302406Y-52409068D01*
X255302408Y-52409067D01*
X255493584Y-52329879D01*
X255696534Y-52289510D01*
X255903466Y-52289510D01*
X256106416Y-52329879D01*
X256106416Y-52329879D01*
G37*
G36*
X208446823Y-51231313D02*
G01*
X208607242Y-51279976D01*
X208674361Y-51315852D01*
X208755078Y-51358996D01*
X208884659Y-51465341D01*
X208991004Y-51594922D01*
X208991005Y-51594924D01*
X209070024Y-51742758D01*
X209118687Y-51903177D01*
X209135117Y-52070000D01*
X209118687Y-52236823D01*
X209070024Y-52397242D01*
X209029477Y-52473100D01*
X208991004Y-52545078D01*
X208884659Y-52674659D01*
X208755078Y-52781004D01*
X208755076Y-52781005D01*
X208607242Y-52860024D01*
X208446823Y-52908687D01*
X208321804Y-52921000D01*
X208238196Y-52921000D01*
X208113177Y-52908687D01*
X207952758Y-52860024D01*
X207804924Y-52781005D01*
X207804922Y-52781004D01*
X207675341Y-52674659D01*
X207568996Y-52545078D01*
X207530523Y-52473100D01*
X207489976Y-52397242D01*
X207441313Y-52236823D01*
X207424883Y-52070000D01*
X207441313Y-51903177D01*
X207489976Y-51742758D01*
X207568995Y-51594924D01*
X207568996Y-51594922D01*
X207675341Y-51465341D01*
X207804922Y-51358996D01*
X207885639Y-51315852D01*
X207952758Y-51279976D01*
X208113177Y-51231313D01*
X208238196Y-51219000D01*
X208321804Y-51219000D01*
X208446823Y-51231313D01*
X208446823Y-51231313D01*
G37*
G36*
X210986823Y-51231313D02*
G01*
X211147242Y-51279976D01*
X211214361Y-51315852D01*
X211295078Y-51358996D01*
X211424659Y-51465341D01*
X211531004Y-51594922D01*
X211531005Y-51594924D01*
X211610024Y-51742758D01*
X211658687Y-51903177D01*
X211675117Y-52070000D01*
X211658687Y-52236823D01*
X211610024Y-52397242D01*
X211569477Y-52473100D01*
X211531004Y-52545078D01*
X211424659Y-52674659D01*
X211295078Y-52781004D01*
X211295076Y-52781005D01*
X211147242Y-52860024D01*
X210986823Y-52908687D01*
X210861804Y-52921000D01*
X210778196Y-52921000D01*
X210653177Y-52908687D01*
X210492758Y-52860024D01*
X210344924Y-52781005D01*
X210344922Y-52781004D01*
X210215341Y-52674659D01*
X210108996Y-52545078D01*
X210070523Y-52473100D01*
X210029976Y-52397242D01*
X209981313Y-52236823D01*
X209964883Y-52070000D01*
X209981313Y-51903177D01*
X210029976Y-51742758D01*
X210108995Y-51594924D01*
X210108996Y-51594922D01*
X210215341Y-51465341D01*
X210344922Y-51358996D01*
X210425639Y-51315852D01*
X210492758Y-51279976D01*
X210653177Y-51231313D01*
X210778196Y-51219000D01*
X210861804Y-51219000D01*
X210986823Y-51231313D01*
X210986823Y-51231313D01*
G37*
G36*
X205906823Y-51231313D02*
G01*
X206067242Y-51279976D01*
X206134361Y-51315852D01*
X206215078Y-51358996D01*
X206344659Y-51465341D01*
X206451004Y-51594922D01*
X206451005Y-51594924D01*
X206530024Y-51742758D01*
X206578687Y-51903177D01*
X206595117Y-52070000D01*
X206578687Y-52236823D01*
X206530024Y-52397242D01*
X206489477Y-52473100D01*
X206451004Y-52545078D01*
X206344659Y-52674659D01*
X206215078Y-52781004D01*
X206215076Y-52781005D01*
X206067242Y-52860024D01*
X205906823Y-52908687D01*
X205781804Y-52921000D01*
X205698196Y-52921000D01*
X205573177Y-52908687D01*
X205412758Y-52860024D01*
X205264924Y-52781005D01*
X205264922Y-52781004D01*
X205135341Y-52674659D01*
X205028996Y-52545078D01*
X204990523Y-52473100D01*
X204949976Y-52397242D01*
X204901313Y-52236823D01*
X204884883Y-52070000D01*
X204901313Y-51903177D01*
X204949976Y-51742758D01*
X205028995Y-51594924D01*
X205028996Y-51594922D01*
X205135341Y-51465341D01*
X205264922Y-51358996D01*
X205345639Y-51315852D01*
X205412758Y-51279976D01*
X205573177Y-51231313D01*
X205698196Y-51219000D01*
X205781804Y-51219000D01*
X205906823Y-51231313D01*
X205906823Y-51231313D01*
G37*
G36*
X214211000Y-52921000D02*
G01*
X212509000Y-52921000D01*
X212509000Y-51219000D01*
X214211000Y-51219000D01*
X214211000Y-52921000D01*
X214211000Y-52921000D01*
G37*
G36*
X203366823Y-51231313D02*
G01*
X203527242Y-51279976D01*
X203594361Y-51315852D01*
X203675078Y-51358996D01*
X203804659Y-51465341D01*
X203911004Y-51594922D01*
X203911005Y-51594924D01*
X203990024Y-51742758D01*
X204038687Y-51903177D01*
X204055117Y-52070000D01*
X204038687Y-52236823D01*
X203990024Y-52397242D01*
X203949477Y-52473100D01*
X203911004Y-52545078D01*
X203804659Y-52674659D01*
X203675078Y-52781004D01*
X203675076Y-52781005D01*
X203527242Y-52860024D01*
X203366823Y-52908687D01*
X203241804Y-52921000D01*
X203158196Y-52921000D01*
X203033177Y-52908687D01*
X202872758Y-52860024D01*
X202724924Y-52781005D01*
X202724922Y-52781004D01*
X202595341Y-52674659D01*
X202488996Y-52545078D01*
X202450523Y-52473100D01*
X202409976Y-52397242D01*
X202361313Y-52236823D01*
X202344883Y-52070000D01*
X202361313Y-51903177D01*
X202409976Y-51742758D01*
X202488995Y-51594924D01*
X202488996Y-51594922D01*
X202595341Y-51465341D01*
X202724922Y-51358996D01*
X202805639Y-51315852D01*
X202872758Y-51279976D01*
X203033177Y-51231313D01*
X203158196Y-51219000D01*
X203241804Y-51219000D01*
X203366823Y-51231313D01*
X203366823Y-51231313D01*
G37*
G36*
X198286823Y-51231313D02*
G01*
X198447242Y-51279976D01*
X198514361Y-51315852D01*
X198595078Y-51358996D01*
X198724659Y-51465341D01*
X198831004Y-51594922D01*
X198831005Y-51594924D01*
X198910024Y-51742758D01*
X198958687Y-51903177D01*
X198975117Y-52070000D01*
X198958687Y-52236823D01*
X198910024Y-52397242D01*
X198869477Y-52473100D01*
X198831004Y-52545078D01*
X198724659Y-52674659D01*
X198595078Y-52781004D01*
X198595076Y-52781005D01*
X198447242Y-52860024D01*
X198286823Y-52908687D01*
X198161804Y-52921000D01*
X198078196Y-52921000D01*
X197953177Y-52908687D01*
X197792758Y-52860024D01*
X197644924Y-52781005D01*
X197644922Y-52781004D01*
X197515341Y-52674659D01*
X197408996Y-52545078D01*
X197370523Y-52473100D01*
X197329976Y-52397242D01*
X197281313Y-52236823D01*
X197264883Y-52070000D01*
X197281313Y-51903177D01*
X197329976Y-51742758D01*
X197408995Y-51594924D01*
X197408996Y-51594922D01*
X197515341Y-51465341D01*
X197644922Y-51358996D01*
X197725639Y-51315852D01*
X197792758Y-51279976D01*
X197953177Y-51231313D01*
X198078196Y-51219000D01*
X198161804Y-51219000D01*
X198286823Y-51231313D01*
X198286823Y-51231313D01*
G37*
G36*
X240278228Y-51251703D02*
G01*
X240433100Y-51315853D01*
X240572481Y-51408985D01*
X240691015Y-51527519D01*
X240784147Y-51666900D01*
X240848297Y-51821772D01*
X240881000Y-51986184D01*
X240881000Y-52153816D01*
X240848297Y-52318228D01*
X240784147Y-52473100D01*
X240691015Y-52612481D01*
X240572481Y-52731015D01*
X240433100Y-52824147D01*
X240278228Y-52888297D01*
X240113816Y-52921000D01*
X239946184Y-52921000D01*
X239781772Y-52888297D01*
X239626900Y-52824147D01*
X239487519Y-52731015D01*
X239368985Y-52612481D01*
X239275853Y-52473100D01*
X239211703Y-52318228D01*
X239179000Y-52153816D01*
X239179000Y-51986184D01*
X239211703Y-51821772D01*
X239275853Y-51666900D01*
X239368985Y-51527519D01*
X239487519Y-51408985D01*
X239626900Y-51315853D01*
X239781772Y-51251703D01*
X239946184Y-51219000D01*
X240113816Y-51219000D01*
X240278228Y-51251703D01*
X240278228Y-51251703D01*
G37*
G36*
X242778228Y-51251703D02*
G01*
X242933100Y-51315853D01*
X243072481Y-51408985D01*
X243191015Y-51527519D01*
X243284147Y-51666900D01*
X243348297Y-51821772D01*
X243381000Y-51986184D01*
X243381000Y-52153816D01*
X243348297Y-52318228D01*
X243284147Y-52473100D01*
X243191015Y-52612481D01*
X243072481Y-52731015D01*
X242933100Y-52824147D01*
X242778228Y-52888297D01*
X242613816Y-52921000D01*
X242446184Y-52921000D01*
X242281772Y-52888297D01*
X242126900Y-52824147D01*
X241987519Y-52731015D01*
X241868985Y-52612481D01*
X241775853Y-52473100D01*
X241711703Y-52318228D01*
X241679000Y-52153816D01*
X241679000Y-51986184D01*
X241711703Y-51821772D01*
X241775853Y-51666900D01*
X241868985Y-51527519D01*
X241987519Y-51408985D01*
X242126900Y-51315853D01*
X242281772Y-51251703D01*
X242446184Y-51219000D01*
X242613816Y-51219000D01*
X242778228Y-51251703D01*
X242778228Y-51251703D01*
G37*
G36*
X226226823Y-51231313D02*
G01*
X226387242Y-51279976D01*
X226454361Y-51315852D01*
X226535078Y-51358996D01*
X226664659Y-51465341D01*
X226771004Y-51594922D01*
X226771005Y-51594924D01*
X226850024Y-51742758D01*
X226898687Y-51903177D01*
X226915117Y-52070000D01*
X226898687Y-52236823D01*
X226850024Y-52397242D01*
X226809477Y-52473100D01*
X226771004Y-52545078D01*
X226664659Y-52674659D01*
X226535078Y-52781004D01*
X226535076Y-52781005D01*
X226387242Y-52860024D01*
X226226823Y-52908687D01*
X226101804Y-52921000D01*
X226018196Y-52921000D01*
X225893177Y-52908687D01*
X225732758Y-52860024D01*
X225584924Y-52781005D01*
X225584922Y-52781004D01*
X225455341Y-52674659D01*
X225348996Y-52545078D01*
X225310523Y-52473100D01*
X225269976Y-52397242D01*
X225221313Y-52236823D01*
X225204883Y-52070000D01*
X225221313Y-51903177D01*
X225269976Y-51742758D01*
X225348995Y-51594924D01*
X225348996Y-51594922D01*
X225455341Y-51465341D01*
X225584922Y-51358996D01*
X225665639Y-51315852D01*
X225732758Y-51279976D01*
X225893177Y-51231313D01*
X226018196Y-51219000D01*
X226101804Y-51219000D01*
X226226823Y-51231313D01*
X226226823Y-51231313D01*
G37*
G36*
X237071000Y-52921000D02*
G01*
X235369000Y-52921000D01*
X235369000Y-51219000D01*
X237071000Y-51219000D01*
X237071000Y-52921000D01*
X237071000Y-52921000D01*
G37*
G36*
X200826823Y-51231313D02*
G01*
X200987242Y-51279976D01*
X201054361Y-51315852D01*
X201135078Y-51358996D01*
X201264659Y-51465341D01*
X201371004Y-51594922D01*
X201371005Y-51594924D01*
X201450024Y-51742758D01*
X201498687Y-51903177D01*
X201515117Y-52070000D01*
X201498687Y-52236823D01*
X201450024Y-52397242D01*
X201409477Y-52473100D01*
X201371004Y-52545078D01*
X201264659Y-52674659D01*
X201135078Y-52781004D01*
X201135076Y-52781005D01*
X200987242Y-52860024D01*
X200826823Y-52908687D01*
X200701804Y-52921000D01*
X200618196Y-52921000D01*
X200493177Y-52908687D01*
X200332758Y-52860024D01*
X200184924Y-52781005D01*
X200184922Y-52781004D01*
X200055341Y-52674659D01*
X199948996Y-52545078D01*
X199910523Y-52473100D01*
X199869976Y-52397242D01*
X199821313Y-52236823D01*
X199804883Y-52070000D01*
X199821313Y-51903177D01*
X199869976Y-51742758D01*
X199948995Y-51594924D01*
X199948996Y-51594922D01*
X200055341Y-51465341D01*
X200184922Y-51358996D01*
X200265639Y-51315852D01*
X200332758Y-51279976D01*
X200493177Y-51231313D01*
X200618196Y-51219000D01*
X200701804Y-51219000D01*
X200826823Y-51231313D01*
X200826823Y-51231313D01*
G37*
G36*
X221146823Y-51231313D02*
G01*
X221307242Y-51279976D01*
X221374361Y-51315852D01*
X221455078Y-51358996D01*
X221584659Y-51465341D01*
X221691004Y-51594922D01*
X221691005Y-51594924D01*
X221770024Y-51742758D01*
X221818687Y-51903177D01*
X221835117Y-52070000D01*
X221818687Y-52236823D01*
X221770024Y-52397242D01*
X221729477Y-52473100D01*
X221691004Y-52545078D01*
X221584659Y-52674659D01*
X221455078Y-52781004D01*
X221455076Y-52781005D01*
X221307242Y-52860024D01*
X221146823Y-52908687D01*
X221021804Y-52921000D01*
X220938196Y-52921000D01*
X220813177Y-52908687D01*
X220652758Y-52860024D01*
X220504924Y-52781005D01*
X220504922Y-52781004D01*
X220375341Y-52674659D01*
X220268996Y-52545078D01*
X220230523Y-52473100D01*
X220189976Y-52397242D01*
X220141313Y-52236823D01*
X220124883Y-52070000D01*
X220141313Y-51903177D01*
X220189976Y-51742758D01*
X220268995Y-51594924D01*
X220268996Y-51594922D01*
X220375341Y-51465341D01*
X220504922Y-51358996D01*
X220585639Y-51315852D01*
X220652758Y-51279976D01*
X220813177Y-51231313D01*
X220938196Y-51219000D01*
X221021804Y-51219000D01*
X221146823Y-51231313D01*
X221146823Y-51231313D01*
G37*
G36*
X223686823Y-51231313D02*
G01*
X223847242Y-51279976D01*
X223914361Y-51315852D01*
X223995078Y-51358996D01*
X224124659Y-51465341D01*
X224231004Y-51594922D01*
X224231005Y-51594924D01*
X224310024Y-51742758D01*
X224358687Y-51903177D01*
X224375117Y-52070000D01*
X224358687Y-52236823D01*
X224310024Y-52397242D01*
X224269477Y-52473100D01*
X224231004Y-52545078D01*
X224124659Y-52674659D01*
X223995078Y-52781004D01*
X223995076Y-52781005D01*
X223847242Y-52860024D01*
X223686823Y-52908687D01*
X223561804Y-52921000D01*
X223478196Y-52921000D01*
X223353177Y-52908687D01*
X223192758Y-52860024D01*
X223044924Y-52781005D01*
X223044922Y-52781004D01*
X222915341Y-52674659D01*
X222808996Y-52545078D01*
X222770523Y-52473100D01*
X222729976Y-52397242D01*
X222681313Y-52236823D01*
X222664883Y-52070000D01*
X222681313Y-51903177D01*
X222729976Y-51742758D01*
X222808995Y-51594924D01*
X222808996Y-51594922D01*
X222915341Y-51465341D01*
X223044922Y-51358996D01*
X223125639Y-51315852D01*
X223192758Y-51279976D01*
X223353177Y-51231313D01*
X223478196Y-51219000D01*
X223561804Y-51219000D01*
X223686823Y-51231313D01*
X223686823Y-51231313D01*
G37*
G36*
X228766823Y-51231313D02*
G01*
X228927242Y-51279976D01*
X228994361Y-51315852D01*
X229075078Y-51358996D01*
X229204659Y-51465341D01*
X229311004Y-51594922D01*
X229311005Y-51594924D01*
X229390024Y-51742758D01*
X229438687Y-51903177D01*
X229455117Y-52070000D01*
X229438687Y-52236823D01*
X229390024Y-52397242D01*
X229349477Y-52473100D01*
X229311004Y-52545078D01*
X229204659Y-52674659D01*
X229075078Y-52781004D01*
X229075076Y-52781005D01*
X228927242Y-52860024D01*
X228766823Y-52908687D01*
X228641804Y-52921000D01*
X228558196Y-52921000D01*
X228433177Y-52908687D01*
X228272758Y-52860024D01*
X228124924Y-52781005D01*
X228124922Y-52781004D01*
X227995341Y-52674659D01*
X227888996Y-52545078D01*
X227850523Y-52473100D01*
X227809976Y-52397242D01*
X227761313Y-52236823D01*
X227744883Y-52070000D01*
X227761313Y-51903177D01*
X227809976Y-51742758D01*
X227888995Y-51594924D01*
X227888996Y-51594922D01*
X227995341Y-51465341D01*
X228124922Y-51358996D01*
X228205639Y-51315852D01*
X228272758Y-51279976D01*
X228433177Y-51231313D01*
X228558196Y-51219000D01*
X228641804Y-51219000D01*
X228766823Y-51231313D01*
X228766823Y-51231313D01*
G37*
G36*
X231306823Y-51231313D02*
G01*
X231467242Y-51279976D01*
X231534361Y-51315852D01*
X231615078Y-51358996D01*
X231744659Y-51465341D01*
X231851004Y-51594922D01*
X231851005Y-51594924D01*
X231930024Y-51742758D01*
X231978687Y-51903177D01*
X231995117Y-52070000D01*
X231978687Y-52236823D01*
X231930024Y-52397242D01*
X231889477Y-52473100D01*
X231851004Y-52545078D01*
X231744659Y-52674659D01*
X231615078Y-52781004D01*
X231615076Y-52781005D01*
X231467242Y-52860024D01*
X231306823Y-52908687D01*
X231181804Y-52921000D01*
X231098196Y-52921000D01*
X230973177Y-52908687D01*
X230812758Y-52860024D01*
X230664924Y-52781005D01*
X230664922Y-52781004D01*
X230535341Y-52674659D01*
X230428996Y-52545078D01*
X230390523Y-52473100D01*
X230349976Y-52397242D01*
X230301313Y-52236823D01*
X230284883Y-52070000D01*
X230301313Y-51903177D01*
X230349976Y-51742758D01*
X230428995Y-51594924D01*
X230428996Y-51594922D01*
X230535341Y-51465341D01*
X230664922Y-51358996D01*
X230745639Y-51315852D01*
X230812758Y-51279976D01*
X230973177Y-51231313D01*
X231098196Y-51219000D01*
X231181804Y-51219000D01*
X231306823Y-51231313D01*
X231306823Y-51231313D01*
G37*
G36*
X233846823Y-51231313D02*
G01*
X234007242Y-51279976D01*
X234074361Y-51315852D01*
X234155078Y-51358996D01*
X234284659Y-51465341D01*
X234391004Y-51594922D01*
X234391005Y-51594924D01*
X234470024Y-51742758D01*
X234518687Y-51903177D01*
X234535117Y-52070000D01*
X234518687Y-52236823D01*
X234470024Y-52397242D01*
X234429477Y-52473100D01*
X234391004Y-52545078D01*
X234284659Y-52674659D01*
X234155078Y-52781004D01*
X234155076Y-52781005D01*
X234007242Y-52860024D01*
X233846823Y-52908687D01*
X233721804Y-52921000D01*
X233638196Y-52921000D01*
X233513177Y-52908687D01*
X233352758Y-52860024D01*
X233204924Y-52781005D01*
X233204922Y-52781004D01*
X233075341Y-52674659D01*
X232968996Y-52545078D01*
X232930523Y-52473100D01*
X232889976Y-52397242D01*
X232841313Y-52236823D01*
X232824883Y-52070000D01*
X232841313Y-51903177D01*
X232889976Y-51742758D01*
X232968995Y-51594924D01*
X232968996Y-51594922D01*
X233075341Y-51465341D01*
X233204922Y-51358996D01*
X233285639Y-51315852D01*
X233352758Y-51279976D01*
X233513177Y-51231313D01*
X233638196Y-51219000D01*
X233721804Y-51219000D01*
X233846823Y-51231313D01*
X233846823Y-51231313D01*
G37*
G36*
X217336823Y-51231313D02*
G01*
X217497242Y-51279976D01*
X217564361Y-51315852D01*
X217645078Y-51358996D01*
X217774659Y-51465341D01*
X217881004Y-51594922D01*
X217881005Y-51594924D01*
X217960024Y-51742758D01*
X218008687Y-51903177D01*
X218025117Y-52070000D01*
X218008687Y-52236823D01*
X217960024Y-52397242D01*
X217919477Y-52473100D01*
X217881004Y-52545078D01*
X217774659Y-52674659D01*
X217645078Y-52781004D01*
X217645076Y-52781005D01*
X217497242Y-52860024D01*
X217336823Y-52908687D01*
X217211804Y-52921000D01*
X217128196Y-52921000D01*
X217003177Y-52908687D01*
X216842758Y-52860024D01*
X216694924Y-52781005D01*
X216694922Y-52781004D01*
X216565341Y-52674659D01*
X216458996Y-52545078D01*
X216420523Y-52473100D01*
X216379976Y-52397242D01*
X216331313Y-52236823D01*
X216314883Y-52070000D01*
X216331313Y-51903177D01*
X216379976Y-51742758D01*
X216458995Y-51594924D01*
X216458996Y-51594922D01*
X216565341Y-51465341D01*
X216694922Y-51358996D01*
X216775639Y-51315852D01*
X216842758Y-51279976D01*
X217003177Y-51231313D01*
X217128196Y-51219000D01*
X217211804Y-51219000D01*
X217336823Y-51231313D01*
X217336823Y-51231313D01*
G37*
G36*
X195746823Y-51231313D02*
G01*
X195907242Y-51279976D01*
X195974361Y-51315852D01*
X196055078Y-51358996D01*
X196184659Y-51465341D01*
X196291004Y-51594922D01*
X196291005Y-51594924D01*
X196370024Y-51742758D01*
X196418687Y-51903177D01*
X196435117Y-52070000D01*
X196418687Y-52236823D01*
X196370024Y-52397242D01*
X196329477Y-52473100D01*
X196291004Y-52545078D01*
X196184659Y-52674659D01*
X196055078Y-52781004D01*
X196055076Y-52781005D01*
X195907242Y-52860024D01*
X195746823Y-52908687D01*
X195621804Y-52921000D01*
X195538196Y-52921000D01*
X195413177Y-52908687D01*
X195252758Y-52860024D01*
X195104924Y-52781005D01*
X195104922Y-52781004D01*
X194975341Y-52674659D01*
X194868996Y-52545078D01*
X194830523Y-52473100D01*
X194789976Y-52397242D01*
X194741313Y-52236823D01*
X194724883Y-52070000D01*
X194741313Y-51903177D01*
X194789976Y-51742758D01*
X194868995Y-51594924D01*
X194868996Y-51594922D01*
X194975341Y-51465341D01*
X195104922Y-51358996D01*
X195185639Y-51315852D01*
X195252758Y-51279976D01*
X195413177Y-51231313D01*
X195538196Y-51219000D01*
X195621804Y-51219000D01*
X195746823Y-51231313D01*
X195746823Y-51231313D01*
G37*
G36*
X259912585Y-46738802D02*
G01*
X260062410Y-46768604D01*
X260344674Y-46885521D01*
X260598705Y-47055259D01*
X260814741Y-47271295D01*
X260984479Y-47525326D01*
X261101396Y-47807590D01*
X261161000Y-48107240D01*
X261161000Y-48412760D01*
X261101396Y-48712410D01*
X260984479Y-48994674D01*
X260814741Y-49248705D01*
X260598705Y-49464741D01*
X260344674Y-49634479D01*
X260062410Y-49751396D01*
X259912585Y-49781198D01*
X259762761Y-49811000D01*
X259457239Y-49811000D01*
X259307415Y-49781198D01*
X259157590Y-49751396D01*
X258875326Y-49634479D01*
X258621295Y-49464741D01*
X258405259Y-49248705D01*
X258235521Y-48994674D01*
X258118604Y-48712410D01*
X258059000Y-48412760D01*
X258059000Y-48107240D01*
X258118604Y-47807590D01*
X258235521Y-47525326D01*
X258405259Y-47271295D01*
X258621295Y-47055259D01*
X258875326Y-46885521D01*
X259157590Y-46768604D01*
X259307415Y-46738802D01*
X259457239Y-46709000D01*
X259762761Y-46709000D01*
X259912585Y-46738802D01*
X259912585Y-46738802D01*
G37*
G36*
X256106416Y-47249879D02*
G01*
X256297592Y-47329067D01*
X256297594Y-47329068D01*
X256469648Y-47444031D01*
X256615969Y-47590352D01*
X256718732Y-47744147D01*
X256730933Y-47762408D01*
X256810121Y-47953584D01*
X256850490Y-48156534D01*
X256850490Y-48363466D01*
X256810121Y-48566416D01*
X256749648Y-48712409D01*
X256730932Y-48757594D01*
X256615969Y-48929648D01*
X256469648Y-49075969D01*
X256297594Y-49190932D01*
X256297593Y-49190933D01*
X256297592Y-49190933D01*
X256106416Y-49270121D01*
X255903466Y-49310490D01*
X255696534Y-49310490D01*
X255493584Y-49270121D01*
X255302408Y-49190933D01*
X255302407Y-49190933D01*
X255302406Y-49190932D01*
X255130352Y-49075969D01*
X254984031Y-48929648D01*
X254869068Y-48757594D01*
X254850352Y-48712409D01*
X254789879Y-48566416D01*
X254749510Y-48363466D01*
X254749510Y-48156534D01*
X254789879Y-47953584D01*
X254869067Y-47762408D01*
X254881269Y-47744147D01*
X254984031Y-47590352D01*
X255130352Y-47444031D01*
X255302406Y-47329068D01*
X255302408Y-47329067D01*
X255493584Y-47249879D01*
X255696534Y-47209510D01*
X255903466Y-47209510D01*
X256106416Y-47249879D01*
X256106416Y-47249879D01*
G37*
G36*
X219776823Y-46151313D02*
G01*
X219937242Y-46199976D01*
X220004361Y-46235852D01*
X220085078Y-46278996D01*
X220214659Y-46385341D01*
X220321004Y-46514922D01*
X220321005Y-46514924D01*
X220400024Y-46662758D01*
X220448687Y-46823177D01*
X220465117Y-46990000D01*
X220448687Y-47156823D01*
X220400024Y-47317242D01*
X220359477Y-47393100D01*
X220321004Y-47465078D01*
X220214659Y-47594659D01*
X220085078Y-47701004D01*
X220085076Y-47701005D01*
X219937242Y-47780024D01*
X219776823Y-47828687D01*
X219651804Y-47841000D01*
X219568196Y-47841000D01*
X219443177Y-47828687D01*
X219282758Y-47780024D01*
X219134924Y-47701005D01*
X219134922Y-47701004D01*
X219005341Y-47594659D01*
X218898996Y-47465078D01*
X218860523Y-47393100D01*
X218819976Y-47317242D01*
X218771313Y-47156823D01*
X218754883Y-46990000D01*
X218771313Y-46823177D01*
X218819976Y-46662758D01*
X218898995Y-46514924D01*
X218898996Y-46514922D01*
X219005341Y-46385341D01*
X219134922Y-46278996D01*
X219215639Y-46235852D01*
X219282758Y-46199976D01*
X219443177Y-46151313D01*
X219568196Y-46139000D01*
X219651804Y-46139000D01*
X219776823Y-46151313D01*
X219776823Y-46151313D01*
G37*
G36*
X217318228Y-46171703D02*
G01*
X217473100Y-46235853D01*
X217612481Y-46328985D01*
X217731015Y-46447519D01*
X217824147Y-46586900D01*
X217888297Y-46741772D01*
X217921000Y-46906184D01*
X217921000Y-47073816D01*
X217888297Y-47238228D01*
X217824147Y-47393100D01*
X217731015Y-47532481D01*
X217612481Y-47651015D01*
X217473100Y-47744147D01*
X217318228Y-47808297D01*
X217153816Y-47841000D01*
X216986184Y-47841000D01*
X216821772Y-47808297D01*
X216666900Y-47744147D01*
X216527519Y-47651015D01*
X216408985Y-47532481D01*
X216315853Y-47393100D01*
X216251703Y-47238228D01*
X216219000Y-47073816D01*
X216219000Y-46906184D01*
X216251703Y-46741772D01*
X216315853Y-46586900D01*
X216408985Y-46447519D01*
X216527519Y-46328985D01*
X216666900Y-46235853D01*
X216821772Y-46171703D01*
X216986184Y-46139000D01*
X217153816Y-46139000D01*
X217318228Y-46171703D01*
X217318228Y-46171703D01*
G37*
G36*
X244088228Y-46171703D02*
G01*
X244243100Y-46235853D01*
X244382481Y-46328985D01*
X244501015Y-46447519D01*
X244594147Y-46586900D01*
X244658297Y-46741772D01*
X244691000Y-46906184D01*
X244691000Y-47073816D01*
X244658297Y-47238228D01*
X244594147Y-47393100D01*
X244501015Y-47532481D01*
X244382481Y-47651015D01*
X244243100Y-47744147D01*
X244088228Y-47808297D01*
X243923816Y-47841000D01*
X243756184Y-47841000D01*
X243591772Y-47808297D01*
X243436900Y-47744147D01*
X243297519Y-47651015D01*
X243178985Y-47532481D01*
X243085853Y-47393100D01*
X243021703Y-47238228D01*
X242989000Y-47073816D01*
X242989000Y-46906184D01*
X243021703Y-46741772D01*
X243085853Y-46586900D01*
X243178985Y-46447519D01*
X243297519Y-46328985D01*
X243436900Y-46235853D01*
X243591772Y-46171703D01*
X243756184Y-46139000D01*
X243923816Y-46139000D01*
X244088228Y-46171703D01*
X244088228Y-46171703D01*
G37*
G36*
X246546823Y-46151313D02*
G01*
X246707242Y-46199976D01*
X246774361Y-46235852D01*
X246855078Y-46278996D01*
X246984659Y-46385341D01*
X247091004Y-46514922D01*
X247091005Y-46514924D01*
X247170024Y-46662758D01*
X247218687Y-46823177D01*
X247235117Y-46990000D01*
X247218687Y-47156823D01*
X247170024Y-47317242D01*
X247129477Y-47393100D01*
X247091004Y-47465078D01*
X246984659Y-47594659D01*
X246855078Y-47701004D01*
X246855076Y-47701005D01*
X246707242Y-47780024D01*
X246546823Y-47828687D01*
X246421804Y-47841000D01*
X246338196Y-47841000D01*
X246213177Y-47828687D01*
X246052758Y-47780024D01*
X245904924Y-47701005D01*
X245904922Y-47701004D01*
X245775341Y-47594659D01*
X245668996Y-47465078D01*
X245630523Y-47393100D01*
X245589976Y-47317242D01*
X245541313Y-47156823D01*
X245524883Y-46990000D01*
X245541313Y-46823177D01*
X245589976Y-46662758D01*
X245668995Y-46514924D01*
X245668996Y-46514922D01*
X245775341Y-46385341D01*
X245904922Y-46278996D01*
X245985639Y-46235852D01*
X246052758Y-46199976D01*
X246213177Y-46151313D01*
X246338196Y-46139000D01*
X246421804Y-46139000D01*
X246546823Y-46151313D01*
X246546823Y-46151313D01*
G37*
G36*
X205988228Y-43631703D02*
G01*
X206143100Y-43695853D01*
X206282481Y-43788985D01*
X206401015Y-43907519D01*
X206494147Y-44046900D01*
X206558297Y-44201772D01*
X206591000Y-44366184D01*
X206591000Y-44533816D01*
X206558297Y-44698228D01*
X206494147Y-44853100D01*
X206401015Y-44992481D01*
X206282481Y-45111015D01*
X206143100Y-45204147D01*
X205988228Y-45268297D01*
X205823816Y-45301000D01*
X205656184Y-45301000D01*
X205491772Y-45268297D01*
X205336900Y-45204147D01*
X205197519Y-45111015D01*
X205078985Y-44992481D01*
X204985853Y-44853100D01*
X204921703Y-44698228D01*
X204889000Y-44533816D01*
X204889000Y-44366184D01*
X204921703Y-44201772D01*
X204985853Y-44046900D01*
X205078985Y-43907519D01*
X205197519Y-43788985D01*
X205336900Y-43695853D01*
X205491772Y-43631703D01*
X205656184Y-43599000D01*
X205823816Y-43599000D01*
X205988228Y-43631703D01*
X205988228Y-43631703D01*
G37*
G36*
X209798228Y-43631703D02*
G01*
X209953100Y-43695853D01*
X210092481Y-43788985D01*
X210211015Y-43907519D01*
X210304147Y-44046900D01*
X210368297Y-44201772D01*
X210401000Y-44366184D01*
X210401000Y-44533816D01*
X210368297Y-44698228D01*
X210304147Y-44853100D01*
X210211015Y-44992481D01*
X210092481Y-45111015D01*
X209953100Y-45204147D01*
X209798228Y-45268297D01*
X209633816Y-45301000D01*
X209466184Y-45301000D01*
X209301772Y-45268297D01*
X209146900Y-45204147D01*
X209007519Y-45111015D01*
X208888985Y-44992481D01*
X208795853Y-44853100D01*
X208731703Y-44698228D01*
X208699000Y-44533816D01*
X208699000Y-44366184D01*
X208731703Y-44201772D01*
X208795853Y-44046900D01*
X208888985Y-43907519D01*
X209007519Y-43788985D01*
X209146900Y-43695853D01*
X209301772Y-43631703D01*
X209466184Y-43599000D01*
X209633816Y-43599000D01*
X209798228Y-43631703D01*
X209798228Y-43631703D01*
G37*
G36*
X198368228Y-43631703D02*
G01*
X198523100Y-43695853D01*
X198662481Y-43788985D01*
X198781015Y-43907519D01*
X198874147Y-44046900D01*
X198938297Y-44201772D01*
X198971000Y-44366184D01*
X198971000Y-44533816D01*
X198938297Y-44698228D01*
X198874147Y-44853100D01*
X198781015Y-44992481D01*
X198662481Y-45111015D01*
X198523100Y-45204147D01*
X198368228Y-45268297D01*
X198203816Y-45301000D01*
X198036184Y-45301000D01*
X197871772Y-45268297D01*
X197716900Y-45204147D01*
X197577519Y-45111015D01*
X197458985Y-44992481D01*
X197365853Y-44853100D01*
X197301703Y-44698228D01*
X197269000Y-44533816D01*
X197269000Y-44366184D01*
X197301703Y-44201772D01*
X197365853Y-44046900D01*
X197458985Y-43907519D01*
X197577519Y-43788985D01*
X197716900Y-43695853D01*
X197871772Y-43631703D01*
X198036184Y-43599000D01*
X198203816Y-43599000D01*
X198368228Y-43631703D01*
X198368228Y-43631703D01*
G37*
G36*
X202178228Y-43631703D02*
G01*
X202333100Y-43695853D01*
X202472481Y-43788985D01*
X202591015Y-43907519D01*
X202684147Y-44046900D01*
X202748297Y-44201772D01*
X202781000Y-44366184D01*
X202781000Y-44533816D01*
X202748297Y-44698228D01*
X202684147Y-44853100D01*
X202591015Y-44992481D01*
X202472481Y-45111015D01*
X202333100Y-45204147D01*
X202178228Y-45268297D01*
X202013816Y-45301000D01*
X201846184Y-45301000D01*
X201681772Y-45268297D01*
X201526900Y-45204147D01*
X201387519Y-45111015D01*
X201268985Y-44992481D01*
X201175853Y-44853100D01*
X201111703Y-44698228D01*
X201079000Y-44533816D01*
X201079000Y-44366184D01*
X201111703Y-44201772D01*
X201175853Y-44046900D01*
X201268985Y-43907519D01*
X201387519Y-43788985D01*
X201526900Y-43695853D01*
X201681772Y-43631703D01*
X201846184Y-43599000D01*
X202013816Y-43599000D01*
X202178228Y-43631703D01*
X202178228Y-43631703D01*
G37*
G36*
X259780879Y-41632604D02*
G01*
X260062410Y-41688604D01*
X260344674Y-41805521D01*
X260598705Y-41975259D01*
X260814741Y-42191295D01*
X260984479Y-42445326D01*
X261101396Y-42727590D01*
X261161000Y-43027240D01*
X261161000Y-43332760D01*
X261101396Y-43632410D01*
X260984479Y-43914674D01*
X260814741Y-44168705D01*
X260598705Y-44384741D01*
X260344674Y-44554479D01*
X260062410Y-44671396D01*
X259927516Y-44698228D01*
X259762761Y-44731000D01*
X259457239Y-44731000D01*
X259292484Y-44698228D01*
X259157590Y-44671396D01*
X258875326Y-44554479D01*
X258621295Y-44384741D01*
X258405259Y-44168705D01*
X258235521Y-43914674D01*
X258118604Y-43632410D01*
X258059000Y-43332760D01*
X258059000Y-43027240D01*
X258118604Y-42727590D01*
X258235521Y-42445326D01*
X258405259Y-42191295D01*
X258621295Y-41975259D01*
X258875326Y-41805521D01*
X259157590Y-41688604D01*
X259439121Y-41632604D01*
X259457239Y-41629000D01*
X259762761Y-41629000D01*
X259780879Y-41632604D01*
X259780879Y-41632604D01*
G37*
G36*
X256106416Y-42169879D02*
G01*
X256297592Y-42249067D01*
X256297594Y-42249068D01*
X256469648Y-42364031D01*
X256615969Y-42510352D01*
X256729471Y-42680219D01*
X256730933Y-42682408D01*
X256810121Y-42873584D01*
X256850490Y-43076534D01*
X256850490Y-43283466D01*
X256810121Y-43486416D01*
X256763487Y-43599000D01*
X256730932Y-43677594D01*
X256615969Y-43849648D01*
X256469648Y-43995969D01*
X256297594Y-44110932D01*
X256297593Y-44110933D01*
X256297592Y-44110933D01*
X256106416Y-44190121D01*
X255903466Y-44230490D01*
X255696534Y-44230490D01*
X255493584Y-44190121D01*
X255302408Y-44110933D01*
X255302407Y-44110933D01*
X255302406Y-44110932D01*
X255130352Y-43995969D01*
X254984031Y-43849648D01*
X254869068Y-43677594D01*
X254836513Y-43599000D01*
X254789879Y-43486416D01*
X254749510Y-43283466D01*
X254749510Y-43076534D01*
X254789879Y-42873584D01*
X254869067Y-42682408D01*
X254870530Y-42680219D01*
X254984031Y-42510352D01*
X255130352Y-42364031D01*
X255302406Y-42249068D01*
X255302408Y-42249067D01*
X255493584Y-42169879D01*
X255696534Y-42129510D01*
X255903466Y-42129510D01*
X256106416Y-42169879D01*
X256106416Y-42169879D01*
G37*
G36*
X244791000Y-42861000D02*
G01*
X242889000Y-42861000D01*
X242889000Y-40959000D01*
X244791000Y-40959000D01*
X244791000Y-42861000D01*
X244791000Y-42861000D01*
G37*
G36*
X246657395Y-40995546D02*
G01*
X246830466Y-41067234D01*
X246836572Y-41071314D01*
X246986227Y-41171310D01*
X247118690Y-41303773D01*
X247161284Y-41367520D01*
X247222766Y-41459534D01*
X247294454Y-41632605D01*
X247331000Y-41816333D01*
X247331000Y-42003667D01*
X247294454Y-42187395D01*
X247222766Y-42360466D01*
X247222765Y-42360467D01*
X247118690Y-42516227D01*
X246986227Y-42648690D01*
X246963092Y-42664148D01*
X246830466Y-42752766D01*
X246657395Y-42824454D01*
X246473667Y-42861000D01*
X246286333Y-42861000D01*
X246102605Y-42824454D01*
X245929534Y-42752766D01*
X245796908Y-42664148D01*
X245773773Y-42648690D01*
X245641310Y-42516227D01*
X245537235Y-42360467D01*
X245537234Y-42360466D01*
X245465546Y-42187395D01*
X245429000Y-42003667D01*
X245429000Y-41816333D01*
X245465546Y-41632605D01*
X245537234Y-41459534D01*
X245598716Y-41367520D01*
X245641310Y-41303773D01*
X245773773Y-41171310D01*
X245923428Y-41071314D01*
X245929534Y-41067234D01*
X246102605Y-40995546D01*
X246286333Y-40959000D01*
X246473667Y-40959000D01*
X246657395Y-40995546D01*
X246657395Y-40995546D01*
G37*
G36*
X217248228Y-41091703D02*
G01*
X217403100Y-41155853D01*
X217542481Y-41248985D01*
X217661015Y-41367519D01*
X217754147Y-41506900D01*
X217818297Y-41661772D01*
X217851000Y-41826184D01*
X217851000Y-41993816D01*
X217818297Y-42158228D01*
X217754147Y-42313100D01*
X217661015Y-42452481D01*
X217542481Y-42571015D01*
X217403100Y-42664147D01*
X217248228Y-42728297D01*
X217083816Y-42761000D01*
X216916184Y-42761000D01*
X216751772Y-42728297D01*
X216596900Y-42664147D01*
X216457519Y-42571015D01*
X216338985Y-42452481D01*
X216245853Y-42313100D01*
X216181703Y-42158228D01*
X216149000Y-41993816D01*
X216149000Y-41826184D01*
X216181703Y-41661772D01*
X216245853Y-41506900D01*
X216338985Y-41367519D01*
X216457519Y-41248985D01*
X216596900Y-41155853D01*
X216751772Y-41091703D01*
X216916184Y-41059000D01*
X217083816Y-41059000D01*
X217248228Y-41091703D01*
X217248228Y-41091703D01*
G37*
G36*
X219706823Y-41071313D02*
G01*
X219867242Y-41119976D01*
X219999906Y-41190886D01*
X220015078Y-41198996D01*
X220144659Y-41305341D01*
X220251004Y-41434922D01*
X220251005Y-41434924D01*
X220330024Y-41582758D01*
X220378687Y-41743177D01*
X220395117Y-41910000D01*
X220378687Y-42076823D01*
X220330024Y-42237242D01*
X220289477Y-42313100D01*
X220251004Y-42385078D01*
X220144659Y-42514659D01*
X220015078Y-42621004D01*
X220015076Y-42621005D01*
X219867242Y-42700024D01*
X219706823Y-42748687D01*
X219581804Y-42761000D01*
X219498196Y-42761000D01*
X219373177Y-42748687D01*
X219212758Y-42700024D01*
X219064924Y-42621005D01*
X219064922Y-42621004D01*
X218935341Y-42514659D01*
X218828996Y-42385078D01*
X218790523Y-42313100D01*
X218749976Y-42237242D01*
X218701313Y-42076823D01*
X218684883Y-41910000D01*
X218701313Y-41743177D01*
X218749976Y-41582758D01*
X218828995Y-41434924D01*
X218828996Y-41434922D01*
X218935341Y-41305341D01*
X219064922Y-41198996D01*
X219080094Y-41190886D01*
X219212758Y-41119976D01*
X219373177Y-41071313D01*
X219498196Y-41059000D01*
X219581804Y-41059000D01*
X219706823Y-41071313D01*
X219706823Y-41071313D01*
G37*
G36*
X231373642Y-41139781D02*
G01*
X231516599Y-41198996D01*
X231519416Y-41200163D01*
X231650608Y-41287822D01*
X231762178Y-41399392D01*
X231802363Y-41459534D01*
X231849838Y-41530586D01*
X231910219Y-41676358D01*
X231941000Y-41831107D01*
X231941000Y-41988893D01*
X231910219Y-42143642D01*
X231871448Y-42237242D01*
X231849837Y-42289416D01*
X231762178Y-42420608D01*
X231650608Y-42532178D01*
X231519416Y-42619837D01*
X231519415Y-42619838D01*
X231519414Y-42619838D01*
X231373642Y-42680219D01*
X231218893Y-42711000D01*
X231061107Y-42711000D01*
X230906358Y-42680219D01*
X230760586Y-42619838D01*
X230760585Y-42619838D01*
X230760584Y-42619837D01*
X230629392Y-42532178D01*
X230517822Y-42420608D01*
X230430163Y-42289416D01*
X230408552Y-42237242D01*
X230369781Y-42143642D01*
X230339000Y-41988893D01*
X230339000Y-41831107D01*
X230369781Y-41676358D01*
X230430162Y-41530586D01*
X230477637Y-41459534D01*
X230517822Y-41399392D01*
X230629392Y-41287822D01*
X230760584Y-41200163D01*
X230763401Y-41198996D01*
X230906358Y-41139781D01*
X231061107Y-41109000D01*
X231218893Y-41109000D01*
X231373642Y-41139781D01*
X231373642Y-41139781D01*
G37*
G36*
X226861000Y-42711000D02*
G01*
X225259000Y-42711000D01*
X225259000Y-41109000D01*
X226861000Y-41109000D01*
X226861000Y-42711000D01*
X226861000Y-42711000D01*
G37*
G36*
X256048228Y-39821703D02*
G01*
X256203100Y-39885853D01*
X256342481Y-39978985D01*
X256461015Y-40097519D01*
X256554147Y-40236900D01*
X256618297Y-40391772D01*
X256651000Y-40556184D01*
X256651000Y-40723816D01*
X256618297Y-40888228D01*
X256554147Y-41043100D01*
X256461015Y-41182481D01*
X256342481Y-41301015D01*
X256203100Y-41394147D01*
X256048228Y-41458297D01*
X255883816Y-41491000D01*
X255716184Y-41491000D01*
X255551772Y-41458297D01*
X255396900Y-41394147D01*
X255257519Y-41301015D01*
X255138985Y-41182481D01*
X255045853Y-41043100D01*
X254981703Y-40888228D01*
X254949000Y-40723816D01*
X254949000Y-40556184D01*
X254981703Y-40391772D01*
X255045853Y-40236900D01*
X255138985Y-40097519D01*
X255257519Y-39978985D01*
X255396900Y-39885853D01*
X255551772Y-39821703D01*
X255716184Y-39789000D01*
X255883816Y-39789000D01*
X256048228Y-39821703D01*
X256048228Y-39821703D01*
G37*
G36*
X231373642Y-38599781D02*
G01*
X231519414Y-38660162D01*
X231519416Y-38660163D01*
X231650608Y-38747822D01*
X231762178Y-38859392D01*
X231849837Y-38990584D01*
X231849838Y-38990586D01*
X231910219Y-39136358D01*
X231941000Y-39291107D01*
X231941000Y-39448893D01*
X231910219Y-39603642D01*
X231849838Y-39749414D01*
X231849837Y-39749416D01*
X231762178Y-39880608D01*
X231650608Y-39992178D01*
X231519416Y-40079837D01*
X231519415Y-40079838D01*
X231519414Y-40079838D01*
X231373642Y-40140219D01*
X231218893Y-40171000D01*
X231061107Y-40171000D01*
X230906358Y-40140219D01*
X230760586Y-40079838D01*
X230760585Y-40079838D01*
X230760584Y-40079837D01*
X230629392Y-39992178D01*
X230517822Y-39880608D01*
X230430163Y-39749416D01*
X230430162Y-39749414D01*
X230369781Y-39603642D01*
X230339000Y-39448893D01*
X230339000Y-39291107D01*
X230369781Y-39136358D01*
X230430162Y-38990586D01*
X230430163Y-38990584D01*
X230517822Y-38859392D01*
X230629392Y-38747822D01*
X230760584Y-38660163D01*
X230760586Y-38660162D01*
X230906358Y-38599781D01*
X231061107Y-38569000D01*
X231218893Y-38569000D01*
X231373642Y-38599781D01*
X231373642Y-38599781D01*
G37*
G36*
X226293642Y-38599781D02*
G01*
X226439414Y-38660162D01*
X226439416Y-38660163D01*
X226570608Y-38747822D01*
X226682178Y-38859392D01*
X226769837Y-38990584D01*
X226769838Y-38990586D01*
X226830219Y-39136358D01*
X226861000Y-39291107D01*
X226861000Y-39448893D01*
X226830219Y-39603642D01*
X226769838Y-39749414D01*
X226769837Y-39749416D01*
X226682178Y-39880608D01*
X226570608Y-39992178D01*
X226439416Y-40079837D01*
X226439415Y-40079838D01*
X226439414Y-40079838D01*
X226293642Y-40140219D01*
X226138893Y-40171000D01*
X225981107Y-40171000D01*
X225826358Y-40140219D01*
X225680586Y-40079838D01*
X225680585Y-40079838D01*
X225680584Y-40079837D01*
X225549392Y-39992178D01*
X225437822Y-39880608D01*
X225350163Y-39749416D01*
X225350162Y-39749414D01*
X225289781Y-39603642D01*
X225259000Y-39448893D01*
X225259000Y-39291107D01*
X225289781Y-39136358D01*
X225350162Y-38990586D01*
X225350163Y-38990584D01*
X225437822Y-38859392D01*
X225549392Y-38747822D01*
X225680584Y-38660163D01*
X225680586Y-38660162D01*
X225826358Y-38599781D01*
X225981107Y-38569000D01*
X226138893Y-38569000D01*
X226293642Y-38599781D01*
X226293642Y-38599781D01*
G37*
G36*
X244117395Y-35915546D02*
G01*
X244290466Y-35987234D01*
X244296572Y-35991314D01*
X244446227Y-36091310D01*
X244578690Y-36223773D01*
X244621284Y-36287520D01*
X244682766Y-36379534D01*
X244754454Y-36552605D01*
X244791000Y-36736333D01*
X244791000Y-36923667D01*
X244754454Y-37107395D01*
X244682766Y-37280466D01*
X244682765Y-37280467D01*
X244578690Y-37436227D01*
X244446227Y-37568690D01*
X244423092Y-37584148D01*
X244290466Y-37672766D01*
X244117395Y-37744454D01*
X243933667Y-37781000D01*
X243746333Y-37781000D01*
X243562605Y-37744454D01*
X243389534Y-37672766D01*
X243256908Y-37584148D01*
X243233773Y-37568690D01*
X243101310Y-37436227D01*
X242997235Y-37280467D01*
X242997234Y-37280466D01*
X242925546Y-37107395D01*
X242889000Y-36923667D01*
X242889000Y-36736333D01*
X242925546Y-36552605D01*
X242997234Y-36379534D01*
X243058716Y-36287520D01*
X243101310Y-36223773D01*
X243233773Y-36091310D01*
X243383428Y-35991314D01*
X243389534Y-35987234D01*
X243562605Y-35915546D01*
X243746333Y-35879000D01*
X243933667Y-35879000D01*
X244117395Y-35915546D01*
X244117395Y-35915546D01*
G37*
G36*
X247331000Y-37781000D02*
G01*
X245429000Y-37781000D01*
X245429000Y-35879000D01*
X247331000Y-35879000D01*
X247331000Y-37781000D01*
X247331000Y-37781000D01*
G37*
G36*
X205906823Y-35991313D02*
G01*
X206067242Y-36039976D01*
X206104296Y-36059782D01*
X206215078Y-36118996D01*
X206344659Y-36225341D01*
X206451004Y-36354922D01*
X206451005Y-36354924D01*
X206530024Y-36502758D01*
X206578687Y-36663177D01*
X206595117Y-36830000D01*
X206578687Y-36996823D01*
X206530024Y-37157242D01*
X206489477Y-37233100D01*
X206451004Y-37305078D01*
X206344659Y-37434659D01*
X206215078Y-37541004D01*
X206215076Y-37541005D01*
X206067242Y-37620024D01*
X205906823Y-37668687D01*
X205781804Y-37681000D01*
X205698196Y-37681000D01*
X205573177Y-37668687D01*
X205412758Y-37620024D01*
X205264924Y-37541005D01*
X205264922Y-37541004D01*
X205135341Y-37434659D01*
X205028996Y-37305078D01*
X204990523Y-37233100D01*
X204949976Y-37157242D01*
X204901313Y-36996823D01*
X204884883Y-36830000D01*
X204901313Y-36663177D01*
X204949976Y-36502758D01*
X205028995Y-36354924D01*
X205028996Y-36354922D01*
X205135341Y-36225341D01*
X205264922Y-36118996D01*
X205375704Y-36059782D01*
X205412758Y-36039976D01*
X205573177Y-35991313D01*
X205698196Y-35979000D01*
X205781804Y-35979000D01*
X205906823Y-35991313D01*
X205906823Y-35991313D01*
G37*
G36*
X202096823Y-35991313D02*
G01*
X202257242Y-36039976D01*
X202294296Y-36059782D01*
X202405078Y-36118996D01*
X202534659Y-36225341D01*
X202641004Y-36354922D01*
X202641005Y-36354924D01*
X202720024Y-36502758D01*
X202768687Y-36663177D01*
X202785117Y-36830000D01*
X202768687Y-36996823D01*
X202720024Y-37157242D01*
X202679477Y-37233100D01*
X202641004Y-37305078D01*
X202534659Y-37434659D01*
X202405078Y-37541004D01*
X202405076Y-37541005D01*
X202257242Y-37620024D01*
X202096823Y-37668687D01*
X201971804Y-37681000D01*
X201888196Y-37681000D01*
X201763177Y-37668687D01*
X201602758Y-37620024D01*
X201454924Y-37541005D01*
X201454922Y-37541004D01*
X201325341Y-37434659D01*
X201218996Y-37305078D01*
X201180523Y-37233100D01*
X201139976Y-37157242D01*
X201091313Y-36996823D01*
X201074883Y-36830000D01*
X201091313Y-36663177D01*
X201139976Y-36502758D01*
X201218995Y-36354924D01*
X201218996Y-36354922D01*
X201325341Y-36225341D01*
X201454922Y-36118996D01*
X201565704Y-36059782D01*
X201602758Y-36039976D01*
X201763177Y-35991313D01*
X201888196Y-35979000D01*
X201971804Y-35979000D01*
X202096823Y-35991313D01*
X202096823Y-35991313D01*
G37*
G36*
X198286823Y-35991313D02*
G01*
X198447242Y-36039976D01*
X198484296Y-36059782D01*
X198595078Y-36118996D01*
X198724659Y-36225341D01*
X198831004Y-36354922D01*
X198831005Y-36354924D01*
X198910024Y-36502758D01*
X198958687Y-36663177D01*
X198975117Y-36830000D01*
X198958687Y-36996823D01*
X198910024Y-37157242D01*
X198869477Y-37233100D01*
X198831004Y-37305078D01*
X198724659Y-37434659D01*
X198595078Y-37541004D01*
X198595076Y-37541005D01*
X198447242Y-37620024D01*
X198286823Y-37668687D01*
X198161804Y-37681000D01*
X198078196Y-37681000D01*
X197953177Y-37668687D01*
X197792758Y-37620024D01*
X197644924Y-37541005D01*
X197644922Y-37541004D01*
X197515341Y-37434659D01*
X197408996Y-37305078D01*
X197370523Y-37233100D01*
X197329976Y-37157242D01*
X197281313Y-36996823D01*
X197264883Y-36830000D01*
X197281313Y-36663177D01*
X197329976Y-36502758D01*
X197408995Y-36354924D01*
X197408996Y-36354922D01*
X197515341Y-36225341D01*
X197644922Y-36118996D01*
X197755704Y-36059782D01*
X197792758Y-36039976D01*
X197953177Y-35991313D01*
X198078196Y-35979000D01*
X198161804Y-35979000D01*
X198286823Y-35991313D01*
X198286823Y-35991313D01*
G37*
G36*
X219706823Y-35991313D02*
G01*
X219867242Y-36039976D01*
X219904296Y-36059782D01*
X220015078Y-36118996D01*
X220144659Y-36225341D01*
X220251004Y-36354922D01*
X220251005Y-36354924D01*
X220330024Y-36502758D01*
X220378687Y-36663177D01*
X220395117Y-36830000D01*
X220378687Y-36996823D01*
X220330024Y-37157242D01*
X220289477Y-37233100D01*
X220251004Y-37305078D01*
X220144659Y-37434659D01*
X220015078Y-37541004D01*
X220015076Y-37541005D01*
X219867242Y-37620024D01*
X219706823Y-37668687D01*
X219581804Y-37681000D01*
X219498196Y-37681000D01*
X219373177Y-37668687D01*
X219212758Y-37620024D01*
X219064924Y-37541005D01*
X219064922Y-37541004D01*
X218935341Y-37434659D01*
X218828996Y-37305078D01*
X218790523Y-37233100D01*
X218749976Y-37157242D01*
X218701313Y-36996823D01*
X218684883Y-36830000D01*
X218701313Y-36663177D01*
X218749976Y-36502758D01*
X218828995Y-36354924D01*
X218828996Y-36354922D01*
X218935341Y-36225341D01*
X219064922Y-36118996D01*
X219175704Y-36059782D01*
X219212758Y-36039976D01*
X219373177Y-35991313D01*
X219498196Y-35979000D01*
X219581804Y-35979000D01*
X219706823Y-35991313D01*
X219706823Y-35991313D01*
G37*
G36*
X209716823Y-35991313D02*
G01*
X209877242Y-36039976D01*
X209914296Y-36059782D01*
X210025078Y-36118996D01*
X210154659Y-36225341D01*
X210261004Y-36354922D01*
X210261005Y-36354924D01*
X210340024Y-36502758D01*
X210388687Y-36663177D01*
X210405117Y-36830000D01*
X210388687Y-36996823D01*
X210340024Y-37157242D01*
X210299477Y-37233100D01*
X210261004Y-37305078D01*
X210154659Y-37434659D01*
X210025078Y-37541004D01*
X210025076Y-37541005D01*
X209877242Y-37620024D01*
X209716823Y-37668687D01*
X209591804Y-37681000D01*
X209508196Y-37681000D01*
X209383177Y-37668687D01*
X209222758Y-37620024D01*
X209074924Y-37541005D01*
X209074922Y-37541004D01*
X208945341Y-37434659D01*
X208838996Y-37305078D01*
X208800523Y-37233100D01*
X208759976Y-37157242D01*
X208711313Y-36996823D01*
X208694883Y-36830000D01*
X208711313Y-36663177D01*
X208759976Y-36502758D01*
X208838995Y-36354924D01*
X208838996Y-36354922D01*
X208945341Y-36225341D01*
X209074922Y-36118996D01*
X209185704Y-36059782D01*
X209222758Y-36039976D01*
X209383177Y-35991313D01*
X209508196Y-35979000D01*
X209591804Y-35979000D01*
X209716823Y-35991313D01*
X209716823Y-35991313D01*
G37*
G36*
X261858228Y-36011703D02*
G01*
X262013100Y-36075853D01*
X262152481Y-36168985D01*
X262271015Y-36287519D01*
X262364147Y-36426900D01*
X262428297Y-36581772D01*
X262461000Y-36746184D01*
X262461000Y-36913816D01*
X262428297Y-37078228D01*
X262364147Y-37233100D01*
X262271015Y-37372481D01*
X262152481Y-37491015D01*
X262013100Y-37584147D01*
X261858228Y-37648297D01*
X261693816Y-37681000D01*
X261526184Y-37681000D01*
X261361772Y-37648297D01*
X261206900Y-37584147D01*
X261067519Y-37491015D01*
X260948985Y-37372481D01*
X260855853Y-37233100D01*
X260791703Y-37078228D01*
X260759000Y-36913816D01*
X260759000Y-36746184D01*
X260791703Y-36581772D01*
X260855853Y-36426900D01*
X260948985Y-36287519D01*
X261067519Y-36168985D01*
X261206900Y-36075853D01*
X261361772Y-36011703D01*
X261526184Y-35979000D01*
X261693816Y-35979000D01*
X261858228Y-36011703D01*
X261858228Y-36011703D01*
G37*
G36*
X260461000Y-37681000D02*
G01*
X258759000Y-37681000D01*
X258759000Y-35979000D01*
X260461000Y-35979000D01*
X260461000Y-37681000D01*
X260461000Y-37681000D01*
G37*
G36*
X217248228Y-36011703D02*
G01*
X217403100Y-36075853D01*
X217542481Y-36168985D01*
X217661015Y-36287519D01*
X217754147Y-36426900D01*
X217818297Y-36581772D01*
X217851000Y-36746184D01*
X217851000Y-36913816D01*
X217818297Y-37078228D01*
X217754147Y-37233100D01*
X217661015Y-37372481D01*
X217542481Y-37491015D01*
X217403100Y-37584147D01*
X217248228Y-37648297D01*
X217083816Y-37681000D01*
X216916184Y-37681000D01*
X216751772Y-37648297D01*
X216596900Y-37584147D01*
X216457519Y-37491015D01*
X216338985Y-37372481D01*
X216245853Y-37233100D01*
X216181703Y-37078228D01*
X216149000Y-36913816D01*
X216149000Y-36746184D01*
X216181703Y-36581772D01*
X216245853Y-36426900D01*
X216338985Y-36287519D01*
X216457519Y-36168985D01*
X216596900Y-36075853D01*
X216751772Y-36011703D01*
X216916184Y-35979000D01*
X217083816Y-35979000D01*
X217248228Y-36011703D01*
X217248228Y-36011703D01*
G37*
G36*
X226293642Y-36059781D02*
G01*
X226436599Y-36118996D01*
X226439416Y-36120163D01*
X226570608Y-36207822D01*
X226682178Y-36319392D01*
X226722363Y-36379534D01*
X226769838Y-36450586D01*
X226830219Y-36596358D01*
X226861000Y-36751107D01*
X226861000Y-36908893D01*
X226830219Y-37063642D01*
X226791448Y-37157242D01*
X226769837Y-37209416D01*
X226682178Y-37340608D01*
X226570608Y-37452178D01*
X226439416Y-37539837D01*
X226439415Y-37539838D01*
X226439414Y-37539838D01*
X226293642Y-37600219D01*
X226138893Y-37631000D01*
X225981107Y-37631000D01*
X225826358Y-37600219D01*
X225680586Y-37539838D01*
X225680585Y-37539838D01*
X225680584Y-37539837D01*
X225549392Y-37452178D01*
X225437822Y-37340608D01*
X225350163Y-37209416D01*
X225328552Y-37157242D01*
X225289781Y-37063642D01*
X225259000Y-36908893D01*
X225259000Y-36751107D01*
X225289781Y-36596358D01*
X225350162Y-36450586D01*
X225397637Y-36379534D01*
X225437822Y-36319392D01*
X225549392Y-36207822D01*
X225680584Y-36120163D01*
X225683401Y-36118996D01*
X225826358Y-36059781D01*
X225981107Y-36029000D01*
X226138893Y-36029000D01*
X226293642Y-36059781D01*
X226293642Y-36059781D01*
G37*
G36*
X231941000Y-37631000D02*
G01*
X230339000Y-37631000D01*
X230339000Y-36029000D01*
X231941000Y-36029000D01*
X231941000Y-37631000D01*
X231941000Y-37631000D01*
G37*
G36*
X251766416Y-32009879D02*
G01*
X251957592Y-32089067D01*
X251957594Y-32089068D01*
X252077220Y-32169000D01*
X252129648Y-32204031D01*
X252275969Y-32350352D01*
X252390933Y-32522408D01*
X252470121Y-32713584D01*
X252510490Y-32916534D01*
X252510490Y-33123466D01*
X252470121Y-33326416D01*
X252390933Y-33517592D01*
X252390932Y-33517594D01*
X252275969Y-33689648D01*
X252129648Y-33835969D01*
X251957594Y-33950932D01*
X251957593Y-33950933D01*
X251957592Y-33950933D01*
X251766416Y-34030121D01*
X251563466Y-34070490D01*
X251356534Y-34070490D01*
X251153584Y-34030121D01*
X250962408Y-33950933D01*
X250962407Y-33950933D01*
X250962406Y-33950932D01*
X250790352Y-33835969D01*
X250644031Y-33689648D01*
X250529068Y-33517594D01*
X250529067Y-33517592D01*
X250449879Y-33326416D01*
X250409510Y-33123466D01*
X250409510Y-32916534D01*
X250449879Y-32713584D01*
X250529067Y-32522408D01*
X250644031Y-32350352D01*
X250790352Y-32204031D01*
X250842780Y-32169000D01*
X250962406Y-32089068D01*
X250962408Y-32089067D01*
X251153584Y-32009879D01*
X251356534Y-31969510D01*
X251563466Y-31969510D01*
X251766416Y-32009879D01*
X251766416Y-32009879D01*
G37*
G36*
X240336416Y-32009879D02*
G01*
X240527592Y-32089067D01*
X240527594Y-32089068D01*
X240647220Y-32169000D01*
X240699648Y-32204031D01*
X240845969Y-32350352D01*
X240960933Y-32522408D01*
X241040121Y-32713584D01*
X241080490Y-32916534D01*
X241080490Y-33123466D01*
X241040121Y-33326416D01*
X240960933Y-33517592D01*
X240960932Y-33517594D01*
X240845969Y-33689648D01*
X240699648Y-33835969D01*
X240527594Y-33950932D01*
X240527593Y-33950933D01*
X240527592Y-33950933D01*
X240336416Y-34030121D01*
X240133466Y-34070490D01*
X239926534Y-34070490D01*
X239723584Y-34030121D01*
X239532408Y-33950933D01*
X239532407Y-33950933D01*
X239532406Y-33950932D01*
X239360352Y-33835969D01*
X239214031Y-33689648D01*
X239099068Y-33517594D01*
X239099067Y-33517592D01*
X239019879Y-33326416D01*
X238979510Y-33123466D01*
X238979510Y-32916534D01*
X239019879Y-32713584D01*
X239099067Y-32522408D01*
X239214031Y-32350352D01*
X239360352Y-32204031D01*
X239412780Y-32169000D01*
X239532406Y-32089068D01*
X239532408Y-32089067D01*
X239723584Y-32009879D01*
X239926534Y-31969510D01*
X240133466Y-31969510D01*
X240336416Y-32009879D01*
X240336416Y-32009879D01*
G37*
G36*
X236526416Y-32009879D02*
G01*
X236717592Y-32089067D01*
X236717594Y-32089068D01*
X236837220Y-32169000D01*
X236889648Y-32204031D01*
X237035969Y-32350352D01*
X237150933Y-32522408D01*
X237230121Y-32713584D01*
X237270490Y-32916534D01*
X237270490Y-33123466D01*
X237230121Y-33326416D01*
X237150933Y-33517592D01*
X237150932Y-33517594D01*
X237035969Y-33689648D01*
X236889648Y-33835969D01*
X236717594Y-33950932D01*
X236717593Y-33950933D01*
X236717592Y-33950933D01*
X236526416Y-34030121D01*
X236323466Y-34070490D01*
X236116534Y-34070490D01*
X235913584Y-34030121D01*
X235722408Y-33950933D01*
X235722407Y-33950933D01*
X235722406Y-33950932D01*
X235550352Y-33835969D01*
X235404031Y-33689648D01*
X235289068Y-33517594D01*
X235289067Y-33517592D01*
X235209879Y-33326416D01*
X235169510Y-33123466D01*
X235169510Y-32916534D01*
X235209879Y-32713584D01*
X235289067Y-32522408D01*
X235404031Y-32350352D01*
X235550352Y-32204031D01*
X235602780Y-32169000D01*
X235722406Y-32089068D01*
X235722408Y-32089067D01*
X235913584Y-32009879D01*
X236116534Y-31969510D01*
X236323466Y-31969510D01*
X236526416Y-32009879D01*
X236526416Y-32009879D01*
G37*
G36*
X220016416Y-32009879D02*
G01*
X220207592Y-32089067D01*
X220207594Y-32089068D01*
X220327220Y-32169000D01*
X220379648Y-32204031D01*
X220525969Y-32350352D01*
X220640933Y-32522408D01*
X220720121Y-32713584D01*
X220760490Y-32916534D01*
X220760490Y-33123466D01*
X220720121Y-33326416D01*
X220640933Y-33517592D01*
X220640932Y-33517594D01*
X220525969Y-33689648D01*
X220379648Y-33835969D01*
X220207594Y-33950932D01*
X220207593Y-33950933D01*
X220207592Y-33950933D01*
X220016416Y-34030121D01*
X219813466Y-34070490D01*
X219606534Y-34070490D01*
X219403584Y-34030121D01*
X219212408Y-33950933D01*
X219212407Y-33950933D01*
X219212406Y-33950932D01*
X219040352Y-33835969D01*
X218894031Y-33689648D01*
X218779068Y-33517594D01*
X218779067Y-33517592D01*
X218699879Y-33326416D01*
X218659510Y-33123466D01*
X218659510Y-32916534D01*
X218699879Y-32713584D01*
X218779067Y-32522408D01*
X218894031Y-32350352D01*
X219040352Y-32204031D01*
X219092780Y-32169000D01*
X219212406Y-32089068D01*
X219212408Y-32089067D01*
X219403584Y-32009879D01*
X219606534Y-31969510D01*
X219813466Y-31969510D01*
X220016416Y-32009879D01*
X220016416Y-32009879D01*
G37*
G36*
X206046416Y-32009879D02*
G01*
X206237592Y-32089067D01*
X206237594Y-32089068D01*
X206357220Y-32169000D01*
X206409648Y-32204031D01*
X206555969Y-32350352D01*
X206670933Y-32522408D01*
X206750121Y-32713584D01*
X206790490Y-32916534D01*
X206790490Y-33123466D01*
X206750121Y-33326416D01*
X206670933Y-33517592D01*
X206670932Y-33517594D01*
X206555969Y-33689648D01*
X206409648Y-33835969D01*
X206237594Y-33950932D01*
X206237593Y-33950933D01*
X206237592Y-33950933D01*
X206046416Y-34030121D01*
X205843466Y-34070490D01*
X205636534Y-34070490D01*
X205433584Y-34030121D01*
X205242408Y-33950933D01*
X205242407Y-33950933D01*
X205242406Y-33950932D01*
X205070352Y-33835969D01*
X204924031Y-33689648D01*
X204809068Y-33517594D01*
X204809067Y-33517592D01*
X204729879Y-33326416D01*
X204689510Y-33123466D01*
X204689510Y-32916534D01*
X204729879Y-32713584D01*
X204809067Y-32522408D01*
X204924031Y-32350352D01*
X205070352Y-32204031D01*
X205122780Y-32169000D01*
X205242406Y-32089068D01*
X205242408Y-32089067D01*
X205433584Y-32009879D01*
X205636534Y-31969510D01*
X205843466Y-31969510D01*
X206046416Y-32009879D01*
X206046416Y-32009879D01*
G37*
G36*
X202236416Y-32009879D02*
G01*
X202427592Y-32089067D01*
X202427594Y-32089068D01*
X202547220Y-32169000D01*
X202599648Y-32204031D01*
X202745969Y-32350352D01*
X202860933Y-32522408D01*
X202940121Y-32713584D01*
X202980490Y-32916534D01*
X202980490Y-33123466D01*
X202940121Y-33326416D01*
X202860933Y-33517592D01*
X202860932Y-33517594D01*
X202745969Y-33689648D01*
X202599648Y-33835969D01*
X202427594Y-33950932D01*
X202427593Y-33950933D01*
X202427592Y-33950933D01*
X202236416Y-34030121D01*
X202033466Y-34070490D01*
X201826534Y-34070490D01*
X201623584Y-34030121D01*
X201432408Y-33950933D01*
X201432407Y-33950933D01*
X201432406Y-33950932D01*
X201260352Y-33835969D01*
X201114031Y-33689648D01*
X200999068Y-33517594D01*
X200999067Y-33517592D01*
X200919879Y-33326416D01*
X200879510Y-33123466D01*
X200879510Y-32916534D01*
X200919879Y-32713584D01*
X200999067Y-32522408D01*
X201114031Y-32350352D01*
X201260352Y-32204031D01*
X201312780Y-32169000D01*
X201432406Y-32089068D01*
X201432408Y-32089067D01*
X201623584Y-32009879D01*
X201826534Y-31969510D01*
X202033466Y-31969510D01*
X202236416Y-32009879D01*
X202236416Y-32009879D01*
G37*
G36*
X255966823Y-32181313D02*
G01*
X256127242Y-32229976D01*
X256194361Y-32265852D01*
X256275078Y-32308996D01*
X256404659Y-32415341D01*
X256511004Y-32544922D01*
X256511005Y-32544924D01*
X256590024Y-32692758D01*
X256638687Y-32853177D01*
X256655117Y-33020000D01*
X256638687Y-33186823D01*
X256590024Y-33347242D01*
X256549477Y-33423100D01*
X256511004Y-33495078D01*
X256404659Y-33624659D01*
X256275078Y-33731004D01*
X256275076Y-33731005D01*
X256127242Y-33810024D01*
X255966823Y-33858687D01*
X255841804Y-33871000D01*
X255758196Y-33871000D01*
X255633177Y-33858687D01*
X255472758Y-33810024D01*
X255324924Y-33731005D01*
X255324922Y-33731004D01*
X255195341Y-33624659D01*
X255088996Y-33495078D01*
X255050523Y-33423100D01*
X255009976Y-33347242D01*
X254961313Y-33186823D01*
X254944883Y-33020000D01*
X254961313Y-32853177D01*
X255009976Y-32692758D01*
X255088995Y-32544924D01*
X255088996Y-32544922D01*
X255195341Y-32415341D01*
X255324922Y-32308996D01*
X255405639Y-32265852D01*
X255472758Y-32229976D01*
X255633177Y-32181313D01*
X255758196Y-32169000D01*
X255841804Y-32169000D01*
X255966823Y-32181313D01*
X255966823Y-32181313D01*
G37*
G36*
X230018228Y-32201703D02*
G01*
X230173100Y-32265853D01*
X230312481Y-32358985D01*
X230431015Y-32477519D01*
X230524147Y-32616900D01*
X230588297Y-32771772D01*
X230621000Y-32936184D01*
X230621000Y-33103816D01*
X230588297Y-33268228D01*
X230524147Y-33423100D01*
X230431015Y-33562481D01*
X230312481Y-33681015D01*
X230173100Y-33774147D01*
X230018228Y-33838297D01*
X229853816Y-33871000D01*
X229686184Y-33871000D01*
X229521772Y-33838297D01*
X229366900Y-33774147D01*
X229227519Y-33681015D01*
X229108985Y-33562481D01*
X229015853Y-33423100D01*
X228951703Y-33268228D01*
X228919000Y-33103816D01*
X228919000Y-32936184D01*
X228951703Y-32771772D01*
X229015853Y-32616900D01*
X229108985Y-32477519D01*
X229227519Y-32358985D01*
X229366900Y-32265853D01*
X229521772Y-32201703D01*
X229686184Y-32169000D01*
X229853816Y-32169000D01*
X230018228Y-32201703D01*
X230018228Y-32201703D01*
G37*
G36*
X243988228Y-32201703D02*
G01*
X244143100Y-32265853D01*
X244282481Y-32358985D01*
X244401015Y-32477519D01*
X244494147Y-32616900D01*
X244558297Y-32771772D01*
X244591000Y-32936184D01*
X244591000Y-33103816D01*
X244558297Y-33268228D01*
X244494147Y-33423100D01*
X244401015Y-33562481D01*
X244282481Y-33681015D01*
X244143100Y-33774147D01*
X243988228Y-33838297D01*
X243823816Y-33871000D01*
X243656184Y-33871000D01*
X243491772Y-33838297D01*
X243336900Y-33774147D01*
X243197519Y-33681015D01*
X243078985Y-33562481D01*
X242985853Y-33423100D01*
X242921703Y-33268228D01*
X242889000Y-33103816D01*
X242889000Y-32936184D01*
X242921703Y-32771772D01*
X242985853Y-32616900D01*
X243078985Y-32477519D01*
X243197519Y-32358985D01*
X243336900Y-32265853D01*
X243491772Y-32201703D01*
X243656184Y-32169000D01*
X243823816Y-32169000D01*
X243988228Y-32201703D01*
X243988228Y-32201703D01*
G37*
G36*
X232476823Y-32181313D02*
G01*
X232637242Y-32229976D01*
X232704361Y-32265852D01*
X232785078Y-32308996D01*
X232914659Y-32415341D01*
X233021004Y-32544922D01*
X233021005Y-32544924D01*
X233100024Y-32692758D01*
X233148687Y-32853177D01*
X233165117Y-33020000D01*
X233148687Y-33186823D01*
X233100024Y-33347242D01*
X233059477Y-33423100D01*
X233021004Y-33495078D01*
X232914659Y-33624659D01*
X232785078Y-33731004D01*
X232785076Y-33731005D01*
X232637242Y-33810024D01*
X232476823Y-33858687D01*
X232351804Y-33871000D01*
X232268196Y-33871000D01*
X232143177Y-33858687D01*
X231982758Y-33810024D01*
X231834924Y-33731005D01*
X231834922Y-33731004D01*
X231705341Y-33624659D01*
X231598996Y-33495078D01*
X231560523Y-33423100D01*
X231519976Y-33347242D01*
X231471313Y-33186823D01*
X231454883Y-33020000D01*
X231471313Y-32853177D01*
X231519976Y-32692758D01*
X231598995Y-32544924D01*
X231598996Y-32544922D01*
X231705341Y-32415341D01*
X231834922Y-32308996D01*
X231915639Y-32265852D01*
X231982758Y-32229976D01*
X232143177Y-32181313D01*
X232268196Y-32169000D01*
X232351804Y-32169000D01*
X232476823Y-32181313D01*
X232476823Y-32181313D01*
G37*
G36*
X226408228Y-32201703D02*
G01*
X226563100Y-32265853D01*
X226702481Y-32358985D01*
X226821015Y-32477519D01*
X226914147Y-32616900D01*
X226978297Y-32771772D01*
X227011000Y-32936184D01*
X227011000Y-33103816D01*
X226978297Y-33268228D01*
X226914147Y-33423100D01*
X226821015Y-33562481D01*
X226702481Y-33681015D01*
X226563100Y-33774147D01*
X226408228Y-33838297D01*
X226243816Y-33871000D01*
X226076184Y-33871000D01*
X225911772Y-33838297D01*
X225756900Y-33774147D01*
X225617519Y-33681015D01*
X225498985Y-33562481D01*
X225405853Y-33423100D01*
X225341703Y-33268228D01*
X225309000Y-33103816D01*
X225309000Y-32936184D01*
X225341703Y-32771772D01*
X225405853Y-32616900D01*
X225498985Y-32477519D01*
X225617519Y-32358985D01*
X225756900Y-32265853D01*
X225911772Y-32201703D01*
X226076184Y-32169000D01*
X226243816Y-32169000D01*
X226408228Y-32201703D01*
X226408228Y-32201703D01*
G37*
G36*
X223786823Y-32181313D02*
G01*
X223947242Y-32229976D01*
X224014361Y-32265852D01*
X224095078Y-32308996D01*
X224224659Y-32415341D01*
X224331004Y-32544922D01*
X224331005Y-32544924D01*
X224410024Y-32692758D01*
X224458687Y-32853177D01*
X224475117Y-33020000D01*
X224458687Y-33186823D01*
X224410024Y-33347242D01*
X224369477Y-33423100D01*
X224331004Y-33495078D01*
X224224659Y-33624659D01*
X224095078Y-33731004D01*
X224095076Y-33731005D01*
X223947242Y-33810024D01*
X223786823Y-33858687D01*
X223661804Y-33871000D01*
X223578196Y-33871000D01*
X223453177Y-33858687D01*
X223292758Y-33810024D01*
X223144924Y-33731005D01*
X223144922Y-33731004D01*
X223015341Y-33624659D01*
X222908996Y-33495078D01*
X222870523Y-33423100D01*
X222829976Y-33347242D01*
X222781313Y-33186823D01*
X222764883Y-33020000D01*
X222781313Y-32853177D01*
X222829976Y-32692758D01*
X222908995Y-32544924D01*
X222908996Y-32544922D01*
X223015341Y-32415341D01*
X223144922Y-32308996D01*
X223225639Y-32265852D01*
X223292758Y-32229976D01*
X223453177Y-32181313D01*
X223578196Y-32169000D01*
X223661804Y-32169000D01*
X223786823Y-32181313D01*
X223786823Y-32181313D01*
G37*
G36*
X246446823Y-32181313D02*
G01*
X246607242Y-32229976D01*
X246674361Y-32265852D01*
X246755078Y-32308996D01*
X246884659Y-32415341D01*
X246991004Y-32544922D01*
X246991005Y-32544924D01*
X247070024Y-32692758D01*
X247118687Y-32853177D01*
X247135117Y-33020000D01*
X247118687Y-33186823D01*
X247070024Y-33347242D01*
X247029477Y-33423100D01*
X246991004Y-33495078D01*
X246884659Y-33624659D01*
X246755078Y-33731004D01*
X246755076Y-33731005D01*
X246607242Y-33810024D01*
X246446823Y-33858687D01*
X246321804Y-33871000D01*
X246238196Y-33871000D01*
X246113177Y-33858687D01*
X245952758Y-33810024D01*
X245804924Y-33731005D01*
X245804922Y-33731004D01*
X245675341Y-33624659D01*
X245568996Y-33495078D01*
X245530523Y-33423100D01*
X245489976Y-33347242D01*
X245441313Y-33186823D01*
X245424883Y-33020000D01*
X245441313Y-32853177D01*
X245489976Y-32692758D01*
X245568995Y-32544924D01*
X245568996Y-32544922D01*
X245675341Y-32415341D01*
X245804922Y-32308996D01*
X245885639Y-32265852D01*
X245952758Y-32229976D01*
X246113177Y-32181313D01*
X246238196Y-32169000D01*
X246321804Y-32169000D01*
X246446823Y-32181313D01*
X246446823Y-32181313D01*
G37*
G36*
X197225256Y-30141298D02*
G01*
X197331579Y-30162447D01*
X197632042Y-30286903D01*
X197902451Y-30467585D01*
X198132415Y-30697549D01*
X198313097Y-30967958D01*
X198313098Y-30967960D01*
X198349550Y-31055963D01*
X198437553Y-31268421D01*
X198501000Y-31587391D01*
X198501000Y-31912609D01*
X198437553Y-32231579D01*
X198361436Y-32415341D01*
X198317089Y-32522406D01*
X198313097Y-32532042D01*
X198132415Y-32802451D01*
X197902451Y-33032415D01*
X197632042Y-33213097D01*
X197331579Y-33337553D01*
X197282884Y-33347239D01*
X197012611Y-33401000D01*
X196687389Y-33401000D01*
X196417116Y-33347239D01*
X196368421Y-33337553D01*
X196067958Y-33213097D01*
X195797549Y-33032415D01*
X195567585Y-32802451D01*
X195386903Y-32532042D01*
X195382912Y-32522406D01*
X195338564Y-32415341D01*
X195262447Y-32231579D01*
X195199000Y-31912609D01*
X195199000Y-31587391D01*
X195262447Y-31268421D01*
X195350450Y-31055963D01*
X195386902Y-30967960D01*
X195386903Y-30967958D01*
X195567585Y-30697549D01*
X195797549Y-30467585D01*
X196067958Y-30286903D01*
X196368421Y-30162447D01*
X196474744Y-30141298D01*
X196687389Y-30099000D01*
X197012611Y-30099000D01*
X197225256Y-30141298D01*
X197225256Y-30141298D01*
G37*
M02*
